<svg width="201" height="134" viewBox="0 0 201 134" fill="none" xmlns="http://www.w3.org/2000/svg">
<g clip-path="url(#clip0_777_2829)">
<path fill-rule="evenodd" clip-rule="evenodd" d="M164.491 45.6237C175.18 31.3961 182.831 20.4862 182.831 20.4862L158.64 31.2475L149.586 7.75857L142.484 38.4417L122.104 47.4955L137.992 53.0648C125.741 78.5929 99.9372 99.9668 76.676 116.265C114.73 97.164 139.759 75.1651 154.149 58.8394L173.871 66.2792L164.491 45.6237ZM74.5249 86.8219L74.2483 92.6991C72.2916 93.7432 69.6314 95.1615 68.6531 95.6835C66.2118 97.0049 61.2953 97.4079 61.6189 90.0765C61.8619 84.4548 62.2661 74.0429 62.2661 74.0429L69.9834 70.6003C69.9834 70.6003 69.4463 81.7878 69.3079 85.4118C69.1529 88.4781 70.0342 89.1081 72.0092 88.1291C72.6801 87.7641 73.9426 87.1268 74.5249 86.8219ZM45.5504 96.0861L45.9067 87.3747C46.7823 86.9871 46.8382 86.9362 47.5509 86.5945C50.8811 85.0575 52.4123 85.9962 52.2958 88.7002C52.1994 90.9767 51.3402 93.2928 47.3901 95.2508C46.5563 95.6617 45.5504 96.0861 45.5504 96.0861ZM46.1749 81.2188C44.0511 82.1694 39.6407 84.1167 37.7358 84.9704L36.6281 112.838L45.0281 108.324L45.3046 102.447C45.9521 102.123 47.2563 101.509 48.365 100.951C57.8544 96.0591 59.8408 91.8786 60.0572 85.9129C60.0998 80.4532 55.7971 76.9224 46.1749 81.2188ZM96.4462 58.9167L95.3669 81.3986C94.5422 81.8421 85.1873 86.8362 82.8346 88.0975C80.603 89.2895 75.0257 89.8438 75.3433 82.8655C75.5947 77.5226 75.9771 68.0307 75.9771 68.0307L83.4755 64.685C83.4755 64.685 82.951 74.92 82.7901 78.3394C82.6635 81.2571 83.4379 81.8821 85.2266 80.9909C86.205 80.4688 88.3062 79.3136 88.3062 79.3136L89.0781 62.2256L96.4462 58.9167ZM113.957 67.1211C113.757 69.7783 112.306 72.3667 107.205 75.1064C105.337 76.0904 101.819 77.9614 97.5099 80.2668L97.814 74.4873C99.6587 73.545 104.028 71.3281 104.336 71.1711C106.148 70.2381 106.997 69.5065 107.041 68.7911C107.085 68.3219 106.714 68.0048 106.04 67.9841C104.831 67.9386 103.756 67.9956 101.85 67.9712C98.7022 67.9103 97.8095 65.245 97.9317 63.5587C98.2874 58.9596 101.383 56.7155 105.169 55.0498C106.45 54.4776 112.789 51.6348 113.949 51.1319L113.749 56.2844C110.735 57.697 107.433 59.3317 105.975 60.0242C105.164 60.3934 104.534 61.0281 104.439 61.6876C104.353 62.3797 104.836 62.5949 105.738 62.5512C105.738 62.5512 106.533 62.5026 108.682 62.3884C112.896 62.1133 114.098 65.4998 113.957 67.1211Z" fill="#E5233D"/>
<path fill-rule="evenodd" clip-rule="evenodd" d="M26.6783 51.5036C30.9292 49.988 36.9303 47.9434 36.9303 47.9434L37.2521 41.1045C37.2521 41.1045 34.2586 42.0896 24.6776 45.2848C15.9996 48.1901 10.603 52.8758 10.4476 58.6836C10.3368 62.4053 12.852 63.8396 14.8227 64.0919C10.7856 66.9883 7.84178 71.0171 7.75503 75.8215C7.64274 83.9017 15.5228 87.0207 26.389 82.0219C31.0417 79.936 36.2676 77.5126 36.2676 77.5126L36.6155 69.8932C36.6155 69.8932 29.0946 73.0343 25.6858 74.4178C19.2502 77.0419 17.0499 75.9756 17.0571 72.6347C17.0575 69.8932 19.9868 67.3094 23.9077 65.7463C26.1242 64.8749 31.7118 62.7361 31.7118 62.7361L31.9918 55.8739C31.9918 55.8739 27.6524 57.4497 23.3873 59.0396C21.0731 59.9385 19.3832 59.1852 19.4127 57.4196C19.4572 55.3333 21.2821 53.4478 26.6783 51.5036ZM132.757 58.6897C96.4763 94.5473 31.4126 131.496 31.4126 131.496C31.4126 131.496 72.6771 115.672 106.014 87.9553C121.25 75.2566 129.233 63.9016 132.757 58.6897ZM130.269 32.5399C131.284 32.1481 131.941 31.8573 131.941 31.8573L132.316 21.8403C132.316 21.8403 131.543 22.0935 130.495 22.4945C128.107 23.3793 127.044 26.5962 127 28.4361C126.813 32.8824 129.254 32.9317 130.269 32.5399ZM138.418 14.9171L137.558 34.3142C136.869 34.6141 132.119 36.7276 130.205 37.5488C125.305 39.6339 120.602 36.4272 120.894 29.9832C121.051 26.4243 122.732 20.5375 129.087 18.2524C133.273 16.7552 138.418 14.9171 138.418 14.9171ZM109.091 36.8981L109.395 29.9941C109.995 29.7543 110.2 29.7317 110.712 29.5521C113.068 28.6765 114.172 29.5953 114.08 31.765C113.995 33.5816 113.249 35.3032 110.432 36.4143C109.855 36.6124 109.855 36.6124 109.091 36.8981ZM110.752 24.8312C109.248 25.3609 104.583 27.0286 103.275 27.5032L102.356 49.3071L108.741 46.6271L108.92 41.902C109.358 41.7082 110.056 41.4409 111.225 40.9705C117.4 38.42 119.586 34.3237 119.736 29.9935C119.879 25.1382 117.368 22.4726 110.752 24.8312ZM92.8551 46.9265C92.2367 48.2257 91.3593 49.1059 90.2649 49.5904C89.1286 50.0515 88.3434 49.8865 87.8255 49.0485C87.3403 48.2013 87.1642 46.7045 87.3065 44.5907C87.6146 40.3214 88.8932 37.7465 91.1422 36.8659C93.3679 36.0271 94.3292 37.6889 94.0262 41.8514C93.8747 43.9326 93.4735 45.6274 92.8551 46.9265ZM100.742 34.8603C101.124 36.0882 101.282 37.5199 101.206 39.1227C101.14 40.7581 100.851 42.3511 100.348 43.934C99.8444 45.517 99.1416 47.0157 98.2299 48.3976C97.3183 49.7794 96.1978 51.0445 94.9011 52.1836C93.5717 53.3319 92.0712 54.2473 90.4086 54.9624C88.7134 55.6866 87.1963 56.0444 85.8571 56.0356C84.5087 55.9943 83.3985 55.6749 82.4989 54.9797C81.6084 54.3172 80.9377 53.3114 80.4726 52.0368C80.04 50.753 79.8222 49.2329 79.9026 47.5231C79.9739 45.7809 80.3008 44.0719 80.8507 42.4055C81.4007 40.739 82.1921 39.1802 83.1689 37.7799C84.1457 36.3796 85.3313 35.0962 86.7442 33.9946C88.1245 32.9023 89.676 32.0428 91.3661 31.4254C93.0237 30.8171 94.5124 30.608 95.7722 30.7094C97.0412 30.8435 98.072 31.2556 98.8739 31.9783C99.7736 32.6734 100.361 33.6324 100.742 34.8603ZM79.9202 35.9902C78.677 36.4464 77.3829 36.8466 75.595 37.4917C70.0684 39.4726 65.4019 44.1281 65.1042 52.0497L64.5876 65.3051L72.5697 61.9284L73.0452 49.7742C73.2714 44.9656 75.2983 43.7962 79.6662 42.0719L79.9202 35.9902ZM61.8865 66.4537C60.7829 66.9057 50.1741 71.4452 47.0586 72.746C44.1061 74.0007 38.223 74.2195 38.5006 66.7254C38.707 60.9734 39.1112 50.5615 39.1112 50.5615L47.6454 47.5211C47.6454 47.5211 47.2111 58.5741 47.0585 62.2724C46.9218 65.4038 48.0028 66.1181 50.3638 65.1357C51.6864 64.5868 53.8193 63.6687 53.8193 63.6687L54.4946 44.9912L62.8007 42.0151L61.8865 66.4537Z" fill="#044895"/>
<path fill-rule="evenodd" clip-rule="evenodd" d="M151.009 17.1632C153.272 23.0621 157.788 34.5812 157.788 34.5812L175.039 26.9024C171.899 31.2327 161.432 45.5028 161.432 45.5028L168.849 60.0697C168.849 60.0697 157.797 50.3241 154.072 54.5736C152.975 55.7969 143.131 68.661 126.637 80.7657C153.967 52.7053 152.85 31.7919 151.009 17.1632Z" fill="#E5233D"/>
<path fill-rule="evenodd" clip-rule="evenodd" d="M26.147 75.5529C25.0433 76.0049 24.0516 76.355 23.1719 76.6032C20.5001 77.357 18.6079 77.2582 17.3558 76.3111C16.3726 75.5692 15.8515 74.3455 15.8667 72.6542C15.8527 71.3578 16.3968 70.0444 17.331 68.8671C16.6826 69.4366 15.2446 71.0724 15.1298 73.2839C14.8651 78.4548 20.2517 79.2195 26.147 75.5529ZM23.6764 60.1881C23.3598 60.3126 23.1317 60.377 23.0991 60.3862C21.6003 60.809 20.257 60.6608 19.3155 59.9423C18.5504 59.3498 18.1537 58.4425 18.1806 57.4157C18.2166 56.4214 18.5267 55.5256 19.1342 54.6864C18.7799 54.9269 17.5809 56.0384 17.4069 57.9151C17.3149 58.9604 17.6606 59.8118 18.4024 60.446C19.3112 61.1737 21.1282 61.5046 23.6764 60.1881ZM61.5158 43.8187L60.7131 65.6601C60.5268 65.7478 60.0238 65.96 59.7723 66.0661L61.5158 43.8187ZM98.1781 32.8775C98.8271 33.4325 99.2848 34.182 99.6113 35.2145C99.9562 36.3122 100.11 37.6045 100.03 39.0679C99.9597 40.5639 99.6846 42.0825 99.2191 43.5494C99.9081 39.3835 99.3964 36.8216 99.0515 35.724C98.725 34.6914 98.2581 33.9093 97.6182 33.3869C95.9493 31.9599 93.6092 32.2686 91.869 32.5839C92.1857 32.4594 92.5115 32.3675 92.8047 32.2847C93.9125 31.9722 94.9034 31.8684 95.768 31.9407C96.7396 32.0181 97.529 32.3225 98.1781 32.8775ZM73.9309 43.936C72.6709 45.2053 71.9672 46.9503 71.8365 49.7286L71.387 61.1022L70.7304 61.3929L71.1647 50.3398C71.3064 47.1016 72.2615 45.2505 73.9309 43.936ZM107.007 42.4769L106.878 46.1334L107.008 46.0966L107.576 45.866L107.719 42.3815C107.426 42.4642 107.188 42.496 107.007 42.4769ZM137.114 16.6555L136.376 33.488L135.687 33.7879L137.114 16.6555ZM117.222 25.8176C118.358 26.7272 118.528 28.5771 118.495 29.9571C118.093 28.0321 117.524 24.3967 111.148 25.9847C111.563 25.8327 111.953 25.7224 112.344 25.6121C113.908 25.1708 116.002 24.8613 117.222 25.8176ZM107.144 39.3455L108.193 30.4736L107.924 36.8758L107.848 38.725C107.848 38.725 109.091 38.2688 109.585 38.024C108.555 38.7365 107.144 39.3455 107.144 39.3455ZM86.0887 44.5126C85.9221 46.9144 86.144 48.5739 86.7679 49.6632C87.4612 50.8734 88.6825 51.3372 90.1161 50.9327C90.3116 50.8776 90.5071 50.8224 90.726 50.7255C91.1964 50.5225 91.6158 50.2636 91.9934 49.9813C91.4286 50.5976 90.4544 51.259 89.6399 51.4889C88.2062 51.8933 86.9849 51.4295 86.2917 50.2193C85.6912 49.0883 85.2337 46.968 86.0887 44.5126ZM50.8016 66.3126C50.4849 66.437 50.2009 66.5523 49.9402 66.6259C48.7346 66.966 47.7539 66.8561 47.0305 66.287C45.8527 65.354 45.7752 63.5834 45.8356 62.3011C45.9337 59.532 46.1954 52.6046 46.3604 49.3246C46.3604 49.3246 45.262 60.1433 45.173 62.9449C45.1127 64.2272 45.1901 65.9978 46.3679 66.9308C47.0913 67.4999 48.0721 67.6098 49.2776 67.2697C49.4965 67.1728 50.2509 66.8545 50.8016 66.3126ZM161.434 45.5027L168.851 60.0696L161.081 47.9922C161.09 48.0247 160.429 47.0515 161.434 45.5027ZM156.784 36.3762C156.784 36.3762 174.686 27.3891 175.008 26.9115L157.757 34.5903C157.757 34.5903 153.25 23.1037 150.979 17.1722C151.224 18.79 156.784 36.3762 156.784 36.3762ZM93.3807 81.081C93.623 80.9424 94.0282 80.7577 94.2053 80.6375L95.1497 60.7945L93.3807 81.081ZM108.811 63.5829C106.63 63.7063 105.834 63.7549 105.802 63.7641C105.169 63.7668 104.314 63.727 103.744 63.0794C103.489 62.7998 103.212 62.3157 103.313 61.5493C103.37 61.0058 103.618 60.514 104.015 60.0506C103.512 60.509 103.095 61.1536 103.037 61.9434C102.936 62.7098 103.214 63.1939 103.468 63.4735C104.242 64.3448 105.4 64.3344 108.158 64.2593C109.446 64.2122 110.706 64.3136 111.433 65.0222C112.23 65.8517 112.468 66.9444 112.419 67.5205C112.322 68.6725 111.68 70.2597 110.084 71.8346C112.271 69.9874 112.733 68.3811 112.816 67.057C112.865 66.481 112.627 65.3883 111.83 64.5587C111.093 63.8176 110.09 63.5032 108.811 63.5829ZM71.5232 89.6377C70.3828 89.9594 69.6586 89.6366 69.2459 89.2961C68.1608 88.4424 68.1018 86.7369 68.1671 85.3478C68.2928 82.6763 68.5912 75.8792 68.7613 72.4923C68.7613 72.4923 67.5885 83.2968 67.4628 85.9682C67.3974 87.3574 67.4565 89.0629 68.5416 89.9166C68.9542 90.2571 69.7111 90.5707 70.8189 90.2582C71.1447 90.1662 71.5265 90.0234 71.9225 89.8062C72.7146 89.3719 73.2418 88.8717 73.2418 88.8717C73.0321 89.0011 72.8132 89.098 72.6269 89.1857C72.1891 89.3795 71.8491 89.5458 71.5232 89.6377ZM80.9032 78.8725C80.8077 80.9028 81.0966 82.0514 81.9453 82.6906C82.3487 82.9985 83.0404 83.3306 84.1156 83.0272C84.4089 82.9445 85.1959 82.617 85.7933 81.9916C85.4207 82.167 85.104 82.2915 84.8108 82.3742C83.7356 82.6776 83.0439 82.3455 82.6404 82.0376C81.8243 81.3892 81.5028 80.2497 81.5892 78.1869C81.6957 75.6966 81.9914 69.6383 82.1607 66.4977C82.1464 66.572 81.0097 76.3822 80.9032 78.8725ZM44.643 87.8726L43.3858 98.8766C43.3858 98.8766 46.0794 97.2029 46.0468 97.2121L44.2865 97.9547L44.3536 96.073L44.643 87.8726ZM50.0425 81.0773C52.9824 80.775 54.8696 80.9807 56.3907 82.1331C57.8701 83.2621 58.7035 85.5927 58.138 90.3212C58.5986 88.9612 58.8176 87.4935 58.8605 85.8998C58.8607 84.5291 58.5418 82.6509 57.0625 81.5218C55.5647 80.3276 53.1379 80.204 50.0425 81.0773ZM44.0644 102.903L43.8666 107.563L43.0419 108.006L43.1897 103.044C43.5105 103.059 43.8129 103.009 44.0644 102.903Z" fill="white"/>
</g>
<defs>
<clipPath id="clip0_777_2829">
<rect width="184" height="87" fill="white" transform="translate(0 49.9622) rotate(-15.7556)"/>
</clipPath>
</defs>
</svg>
