<svg width="57" height="71" viewBox="0 0 57 71" fill="none" xmlns="http://www.w3.org/2000/svg">
<g clip-path="url(#clip0_1939_8519)">
<path d="M12.5063 28.1799C13.8881 28.1112 14.579 24.6746 12.6445 24.5371C12.6445 24.5371 11.4008 24.9495 10.7099 25.9805C10.1572 26.9427 11.1245 28.2486 12.5063 28.1799Z" fill="#BFBFBF"/>
<path d="M53.3386 14.9148C53.3386 14.9148 54.7896 13.8838 53.8914 12.3717C52.9241 10.8596 44.7714 0.412391 27.775 0C27.6368 0 27.4296 0 27.2914 0C27.1532 0 26.9459 0 26.8077 0C9.74228 0.412391 1.58955 10.8596 0.691372 12.3717C-0.206809 13.8838 1.2441 14.9148 1.2441 14.9148C-1.93408 21.1694 2.07319 25.5682 2.07319 25.5682C1.17501 33.9535 9.74228 36.7715 9.74228 36.7715C7.53137 32.6476 9.53501 30.1733 9.53501 30.1733C9.53501 30.1733 8.22228 29.486 8.22228 26.3243C8.22228 23.1626 11.2623 22.2004 13.1968 22.2004C15.1314 22.2004 18.1714 23.3688 18.1714 27.0116C18.1714 30.6544 15.3386 31.8916 13.6805 31.8916C12.0223 31.8916 10.9168 30.8606 10.9168 30.8606C10.9168 30.8606 9.67319 34.5721 11.055 35.6031C12.4368 36.6341 14.3714 35.6031 18.5168 33.1287C22.5241 30.7231 27.0841 31.1355 27.2914 31.1355C27.4986 31.1355 31.9896 30.7231 36.0659 33.1287C40.2114 35.6031 42.1459 36.6341 43.5277 35.6031C44.9096 34.5721 43.6659 30.8606 43.6659 30.8606C43.6659 30.8606 42.5605 31.8916 40.9023 31.8916C39.2441 31.8916 36.4114 30.6544 36.4114 27.0116C36.4114 23.3688 39.4514 22.2004 41.3859 22.2004C43.3205 22.2004 46.3605 23.1626 46.3605 26.3243C46.3605 29.486 45.0477 30.1733 45.0477 30.1733C45.0477 30.1733 46.9823 32.6476 44.8405 36.7715C44.8405 36.7715 53.4077 33.9535 52.5786 25.5682C52.5096 25.5682 56.5168 21.1694 53.3386 14.9148ZM45.5314 17.6641C41.1096 17.3892 40.0041 20.9632 40.0041 20.9632C40.0041 20.9632 35.1677 20.3446 32.8186 23.6438C32.8186 23.6438 31.3677 22.819 27.2914 22.819C23.215 22.819 21.7641 23.6438 21.7641 23.6438C19.3459 20.3446 14.5096 20.9632 14.5096 20.9632C14.5096 20.9632 13.4041 17.3892 8.98228 17.6641C4.56046 17.939 2.62592 24.2623 2.62592 24.2623C-0.137719 20.4134 2.0041 15.8083 2.0041 15.8083C3.59319 16.4269 4.42228 15.3959 4.42228 15.3959C12.2296 5.63601 23.4914 4.94869 26.8077 4.94869C26.8077 4.94869 27.015 4.94869 27.2914 4.94869C27.5677 4.94869 27.775 4.94869 27.775 4.94869C31.0914 4.94869 42.3532 5.63601 50.1605 15.3959C50.1605 15.3959 50.9896 16.4269 52.5786 15.8083C52.5786 15.8083 54.7205 20.4134 51.9568 24.1936C51.8877 24.1936 49.9532 17.8703 45.5314 17.6641Z" fill="#BFBFBF"/>
<path d="M41.8695 24.5371C39.935 24.6746 40.695 28.1112 42.0077 28.1799C43.3895 28.2486 44.4259 26.9427 43.735 25.9805C43.1131 25.0182 41.8695 24.5371 41.8695 24.5371Z" fill="#BFBFBF"/>
<path d="M13.6116 37.8704C13.6116 37.8704 16.3752 36.9081 18.448 35.3273C20.5207 33.7464 24.2516 32.8529 27.9134 32.9217C31.5752 33.0591 35.237 35.7397 37.517 36.5645C39.797 37.3892 41.3861 37.9391 43.2516 37.5267C43.2516 37.5267 42.5607 41.3757 40.2116 44.4686C37.8625 47.5615 35.7898 48.2489 35.237 48.4551C34.6843 48.6613 33.9934 50.5857 35.237 51.2731C36.4807 51.9604 37.9316 50.4483 38.3461 49.2798C38.7607 48.1114 40.7643 47.0804 41.3861 47.8365C42.008 48.5925 41.0407 51.8917 41.3861 52.8539C41.7316 53.8161 44.0807 53.8849 44.4261 52.8539C44.7716 51.8229 43.8043 51.0669 43.597 50.2421C43.3898 49.4173 43.3898 46.3244 44.9098 46.5993C46.4298 46.8742 46.8443 49.2111 48.7098 48.6613C50.5752 48.1114 50.2989 45.1559 48.2952 45.0872C46.2916 45.0872 44.288 44.1937 45.117 41.8568C45.1861 41.6506 45.3243 41.4444 45.4625 41.2382C49.4698 35.2585 58.728 39.7948 56.6552 46.668C54.997 52.1666 51.7498 58.1462 45.6698 63.2324C29.157 76.8413 11.1243 68.1124 11.1243 68.1124C11.1243 68.1124 4.28432 63.3699 5.73522 56.8403C7.18613 50.3108 16.4443 51.8917 16.997 58.4212C17.5498 65.0194 15.2698 63.5761 16.237 66.6003C16.237 66.6003 18.8625 67.9062 19.0698 65.7067C19.277 63.5073 18.3098 61.7203 19.8298 61.033C21.4189 60.3457 22.8007 61.5141 23.2843 62.9575C23.768 64.3321 26.4625 65.2944 27.0152 63.6448C27.568 61.9952 22.248 60.7581 22.7316 58.6274C23.2152 56.4967 26.117 56.9091 27.4298 56.7029C28.7425 56.4967 29.0189 53.335 27.1534 53.4725C25.2189 53.6099 24.1134 56.4967 20.5898 55.5344C17.1352 54.5722 14.648 51.2731 14.717 47.6303C14.9243 43.9875 15.477 39.245 13.6116 37.8704Z" fill="#BFBFBF"/>
</g>
<defs>
<clipPath id="clip0_1939_8519">
<rect width="57" height="71" fill="white"/>
</clipPath>
</defs>
</svg>
