<svg width="175" height="76" viewBox="0 0 175 76" fill="none" xmlns="http://www.w3.org/2000/svg">
<g clip-path="url(#clip0_912_4923)">
<path fill-rule="evenodd" clip-rule="evenodd" d="M174.368 5.96742C170.265 2.01268 165.136 0 158.947 0C152.616 0 147.381 2.0833 143.207 6.17928C142.429 6.92079 141.828 7.76824 141.191 8.54506C143.526 12.0055 144.905 16.1721 144.905 20.6211V21.8923C144.905 26.2354 143.561 30.2961 141.333 33.6859C141.934 34.4274 142.465 35.2042 143.172 35.9104C147.31 40.0064 152.58 42.0897 158.911 42.0897C165.066 42.0897 170.159 40.1477 174.261 36.2635L158.982 21.1508L174.368 5.96742ZM156.294 13.1707C154.526 13.1707 153.111 11.7583 153.111 10.0281C153.111 8.29789 154.526 6.88548 156.294 6.88548C158.062 6.88548 159.477 8.29789 159.477 10.0281C159.442 11.7583 158.027 13.1707 156.294 13.1707Z" fill="currentColor"/>
<path fill-rule="evenodd" clip-rule="evenodd" d="M143.635 21.0449C143.635 15.2187 141.584 10.3106 137.446 6.17928C133.272 2.0833 128.073 0 121.777 0C115.446 0 110.212 2.0833 106.038 6.17928C105.614 6.603 105.508 6.81486 105.119 7.23858C105.508 8.3332 105.649 9.63967 105.684 11.0168C105.826 15.0421 103.668 17.4785 102.289 18.5378C104.447 19.6324 108.903 23.2694 108.691 29.5193C108.62 32.0616 108.231 33.8624 106.533 36.3342C110.459 40.0064 115.517 42.0544 121.742 42.0544C128.038 42.0544 133.272 40.0417 137.411 35.9104C141.584 31.8498 143.635 26.871 143.635 21.0449Z" fill="currentColor"/>
<path fill-rule="evenodd" clip-rule="evenodd" d="M104.588 22.316C102.89 20.3386 101.157 19.2087 99.3885 18.8556C100.485 18.3259 101.546 17.4079 102.678 16.1014C103.774 14.7596 104.305 13.1 104.305 11.1933C104.305 7.7682 103.067 5.22587 100.626 3.49567C98.1859 1.69486 95.0735 0.847412 91.289 0.847412H70.5273V4.80215C74.6655 8.7922 77.2828 14.3359 77.2828 20.4799V21.7157C77.2828 27.8597 74.7009 33.4034 70.5273 37.3934V41.3482H92.1378C96.6297 41.3482 100.273 40.2535 102.996 38.0996C105.755 35.9457 107.134 33.1209 107.134 29.5899C107.134 26.6591 106.285 24.2227 104.588 22.316ZM83.0834 10.4518H89.4498C91.1475 10.4518 92.4208 11.617 92.4208 13.2766C92.4208 14.7243 91.1475 15.8895 89.4498 15.8895H83.0834V10.4518ZM89.662 31.2495H83.048V24.5405H89.662C91.8195 24.5405 93.4111 25.9176 93.4111 27.9656C93.4111 29.9783 91.961 31.2495 89.662 31.2495Z" fill="currentColor"/>
<path fill-rule="evenodd" clip-rule="evenodd" d="M75.9353 21.0449C75.9353 15.2187 73.8839 10.3106 69.7457 6.21459C65.5722 2.0833 60.3729 0 54.0772 0C47.7462 0 42.5116 2.0833 38.338 6.17928C34.1998 10.2753 32.1484 15.1834 32.1484 21.0095C32.1484 26.8004 34.1998 31.7438 38.338 35.8751C42.4762 39.9711 47.7462 42.0544 54.0772 42.0544C60.4083 42.0544 65.6076 40.0417 69.7457 35.9104C73.8839 31.8498 75.9353 26.871 75.9353 21.0449Z" fill="currentColor"/>
<path d="M69.8543 15.9603L60.0571 22.987L63.8062 34.3569L54.0443 27.2949L44.2825 34.3569L48.0316 22.987L38.2344 15.9603L50.3306 15.9956L54.0443 4.62573L57.7581 15.9956L69.8543 15.9603Z" fill="#D41220"/>
<path fill-rule="evenodd" clip-rule="evenodd" d="M30.8418 20.4094C30.8418 14.2654 33.4591 8.68642 37.6327 4.69637V0.812256H25.0767V14.5126H12.556V0.812256H0V41.2777H12.556V25.3175H25.0767V41.2777H37.6327V37.3936C33.4591 33.3682 30.8418 27.8245 30.8418 21.6453V20.4094Z" fill="currentColor"/>
<path d="M116.464 67.7143C115.14 69.0243 113.515 69.6793 111.591 69.6793C109.666 69.6793 108.035 69.0243 106.698 67.7143C105.373 66.3918 104.711 64.7699 104.711 62.8486C104.711 60.9272 105.373 59.3116 106.698 58.0015C108.035 56.6791 109.666 56.0178 111.591 56.0178C113.515 56.0178 115.14 56.6791 116.464 58.0015C117.802 59.3116 118.47 60.9272 118.47 62.8486C118.47 64.7699 117.802 66.3918 116.464 67.7143ZM109.06 65.4124C109.735 66.0737 110.578 66.4043 111.591 66.4043C112.603 66.4043 113.446 66.0737 114.121 65.4124C114.796 64.7387 115.133 63.8841 115.133 62.8486C115.133 61.813 114.796 60.9647 114.121 60.3034C113.446 59.6297 112.603 59.2928 111.591 59.2928C110.578 59.2928 109.735 59.6297 109.06 60.3034C108.385 60.9647 108.048 61.813 108.048 62.8486C108.048 63.8841 108.385 64.7387 109.06 65.4124Z" fill="currentColor"/>
<path d="M99.8022 69.3987V62.8112L95.172 69.3987H92.5664V56.2986H95.9219V62.886L100.552 56.2986H103.139V69.3987H99.8022Z" fill="currentColor"/>
<path d="M89.795 66.1611H91.2009V71.9064H87.8642V69.3987H81.7344V71.9064H78.3789V66.1611H79.7661C80.3659 65.2004 80.6659 63.8155 80.6659 62.0065V56.2986H89.795V66.1611ZM83.2528 66.1611H86.4583V59.4052H84.0026V62.0439C84.0026 63.7906 83.7526 65.163 83.2528 66.1611Z" fill="currentColor"/>
<path d="M74.4299 69.3987L73.8675 67.5085H69.4998L68.9374 69.3987H65.3008L69.631 56.2986H73.7176L78.0478 69.3987H74.4299ZM70.3621 64.6265H73.0052L71.6743 60.1725L70.3621 64.6265Z" fill="currentColor"/>
<path d="M61.6574 56.2986C62.9821 56.2986 64.0943 56.729 64.9941 57.5899C65.8939 58.4507 66.3438 59.5486 66.3438 60.8836C66.3438 62.2186 65.8939 63.3165 64.9941 64.1773C64.0943 65.0382 62.9821 65.4686 61.6574 65.4686H59.9141V69.3987H56.5586V56.2986H61.6574ZM61.6574 62.2872C62.0323 62.2872 62.3447 62.1562 62.5947 61.8942C62.8571 61.6322 62.9883 61.2953 62.9883 60.8836C62.9883 60.4719 62.8571 60.1413 62.5947 59.8917C62.3447 59.6297 62.0323 59.4987 61.6574 59.4987H59.9141V62.2872H61.6574Z" fill="currentColor"/>
</g>
<defs>
<clipPath id="clip0_912_4923">
<rect width="174.369" height="75.2813" fill="currentColor"/>
</clipPath>
</defs>
</svg>
