<svg width="113" height="113" viewBox="0 0 113 113" fill="none" xmlns="http://www.w3.org/2000/svg">
<g clip-path="url(#clip0_915_7376)">
<path d="M86.2871 43.7904L108.553 34.5651C105.778 27.9542 101.765 21.9347 96.73 16.8307C91.5097 11.5319 85.2882 7.32373 78.4271 4.45068L69.2109 26.7108C73.0137 28.3368 76.4692 30.6774 79.39 33.6056C82.3194 36.528 84.6608 39.9855 86.2871 43.7904Z" fill="currentColor"/>
<path d="M26.715 69.2039L4.44922 78.4212C7.22476 85.0344 11.2376 91.0567 16.2722 96.1647C21.4902 101.469 27.7121 105.681 34.575 108.556L36.9055 102.931L43.7991 86.2732C39.9956 84.6502 36.5389 82.3123 33.6166 79.3864C30.6832 76.4672 28.3399 73.0099 26.715 69.2039Z" fill="currentColor"/>
<path d="M56.5555 88.863H56.4987C52.3622 88.8706 48.2632 88.0793 44.4268 86.5325L37.5672 103.089L35.1992 108.812C41.9517 111.578 49.1789 113.001 56.476 113H56.8954C64.0666 112.951 71.1621 111.53 77.7993 108.814L73.2122 97.7381L68.5751 86.5382C64.7554 88.0789 60.6743 88.8683 56.5555 88.863Z" fill="currentColor"/>
<path d="M24.1285 55.6383L24.1387 55.6496C24.2296 51.7983 25.0133 47.9948 26.4522 44.4213L4.18638 35.1948C1.47301 41.8319 0.0526663 48.9263 0.00173689 56.0964C-0.0568181 63.5341 1.36571 70.9091 4.18638 77.7915L26.4533 68.5742C24.9062 64.736 24.116 60.6348 24.1262 56.4966L24.1285 55.6383Z" fill="currentColor"/>
<path d="M16.2722 16.8319C11.2379 21.9366 7.22503 27.9559 4.44922 34.5663L26.7161 43.7905C28.3375 39.9846 30.6773 36.527 33.6075 33.6068C36.5286 30.6787 39.9846 28.3385 43.7878 26.7131L34.5681 4.4519C27.7095 7.32568 21.4904 11.5339 16.2722 16.8319Z" fill="currentColor"/>
<path d="M96.7259 96.167C101.761 91.0589 105.774 85.0361 108.549 78.4223L86.2842 69.2039C84.6591 73.0056 82.3197 76.4604 79.3928 79.3807C76.4719 82.3071 73.0169 84.6461 69.2148 86.271L73.8883 97.5675L78.4356 108.549C85.2935 105.676 91.5111 101.467 96.7259 96.167Z" fill="currentColor"/>
<path d="M88.8864 56.4967C88.8907 60.6355 88.0964 64.7364 86.5469 68.5742L108.814 77.7927C111.529 71.1573 112.951 64.0639 113.002 56.8945C113.059 49.4557 111.636 42.0799 108.816 35.196L86.5469 44.4213C88.0962 48.2585 88.8906 52.3585 88.8864 56.4967Z" fill="currentColor"/>
<path d="M56.4998 24.1211C60.6371 24.1159 64.7369 24.9055 68.5763 26.447L77.7982 4.1869C70.9146 1.36738 63.5392 -0.0554506 56.1008 0.00113556C48.9306 0.051395 41.8361 1.47175 35.1992 4.18577L44.42 26.4481C48.257 24.9067 52.3545 24.1167 56.4896 24.1211H56.4998Z" fill="currentColor"/>
<path d="M37.3699 49.7369V51.9492H35.7227V42.2533H37.3699V42.9899C39.3923 41.3142 43.8793 41.7076 43.8793 46.0241C43.8828 50.5088 39.3923 51.3558 37.3699 49.7369ZM49.7954 49.6301C47.8457 51.2466 44.3545 50.5145 44.3545 48.0169C44.3545 45.3534 47.6843 45.2999 49.7772 45.0294C49.5771 42.8035 47.0829 43.5117 45.8233 44.4303C45.5834 43.9755 45.347 43.5117 45.1083 43.0558C47.3569 41.5166 51.4426 41.4779 51.4426 45.2078V50.311H49.7942V49.6289L49.7954 49.6301ZM59.5152 50.3122H53.7731V51.0397H52.1918V48.8264H53.1501C54.4518 47.0234 54.2574 44.4439 54.321 42.2544H59.8073V48.8264H61.092V51.0397H59.5084V50.3133L59.5152 50.3122ZM67.648 45.0828L63.0768 50.3122H61.8945V42.2567H63.5407V47.2825L67.9333 42.2612H69.2975V50.3156H67.6423L67.648 45.0828ZM74.5042 50.4827C80.3452 50.4827 80.402 42.0805 74.5917 42.0805C68.5882 42.0805 68.5984 50.4827 74.5042 50.4827ZM39.78 48.9992C42.7107 49.0526 43.0881 43.6163 39.9698 43.5686C36.6628 43.5117 36.6071 48.9434 39.78 48.9992ZM49.7954 46.5209C48.0287 46.7426 46.0439 46.6721 46.0439 47.9897C46.0427 49.5016 49.7942 49.6142 49.7942 46.5209H49.7954ZM58.1681 43.7391H55.858C55.7443 45.4955 55.8126 47.2496 55.01 48.8241H58.1669V43.7391H58.1681ZM74.5599 43.564C77.9487 43.564 77.9135 48.9469 74.5246 48.9957C71.0005 49.0514 71.0414 43.6163 74.5599 43.564Z" fill="currentColor"/>
<path d="M39.8644 58.395L36.4289 53.3521H31.2109V69.2039H36.5415V60.813L39.0675 64.5395H40.6488L43.168 60.813V69.2039H48.4724V53.3566H43.2806L39.8633 58.3995L39.8644 58.395ZM76.1426 62.0862C77.3079 62.0862 78.6732 61.6315 78.6732 59.2954C78.6732 57.498 77.4875 57.0479 76.1426 57.0479H74.7785V62.0862H76.1426ZM56.2278 69.2039L61.2219 61.91V69.2039H66.5558V53.3566H61.6868L56.7075 60.8335V53.3566H51.3725V69.2039H56.2278ZM69.4456 69.2039V53.3566H77.0362C80.5603 53.3566 84.0049 55.0709 84.0049 59.2999C84.0049 63.8858 80.3807 65.7798 77.0362 65.7798H74.7773V69.2039H69.4456Z" fill="currentColor"/>
</g>
<defs>
<clipPath id="clip0_915_7376">
<rect width="113" height="113" fill="currentColor"/>
</clipPath>
</defs>
</svg>
