<svg width="145" height="94" viewBox="0 0 145 94" fill="none" xmlns="http://www.w3.org/2000/svg">
<path fill-rule="evenodd" clip-rule="evenodd" d="M54.6751 25.4786C23.0577 36.9098 3.19891 55.8593 9.94917 74.6109C16.6994 93.3626 46.1393 94.5936 77.7566 83.1624C109.374 71.7311 130.931 48.0333 123.854 31.0403C116.734 13.8934 86.2925 14.0473 54.6751 25.4786Z" fill="currentColor"/>
<path fill-rule="evenodd" clip-rule="evenodd" d="M56.8752 10.0903C19.4221 24.7751 -6.12 52.9795 3.41746 75.4023C11.9097 95.407 51.6492 98.8364 89.3635 83.602C127.1 68.3897 150.203 39.9215 141.558 19.1254C132.805 -1.86851 94.3283 -4.57243 56.8752 10.0903ZM55.7647 19.8948C21.7956 32.8209 -1.4166 58.3873 5.37722 74.7648C12.8461 92.813 48.7313 94.3518 83.3319 81.5796C117.954 68.8074 142.604 42.4715 134.656 25.0169C126.642 7.38641 89.7119 6.96873 55.7647 19.8948Z" fill="currentColor"/>
<path fill-rule="evenodd" clip-rule="evenodd" d="M119.916 70.9837H109.072V70.9617H106.023V84.9869H109.072V79.0954H119.633V76.3036H109.072V73.7755H119.916V70.9837ZM144.304 71.0276V85.0529H141.255V73.7315H140.776L135.79 85.0529H135.42H134.832H134.462H132.371H131.783H131.413L126.427 73.7315H125.948V85.0529H122.899V71.0276H125.229H125.599H125.948H128.278H128.648L133.591 82.261L138.534 71.0276H138.904H141.234H141.582H141.952H144.304Z" fill="currentColor"/>
<path fill-rule="evenodd" clip-rule="evenodd" d="M116.037 41.1964C121.524 41.1964 125.967 45.9887 125.967 51.9242C125.967 57.8377 121.524 62.652 116.037 62.652C110.55 62.652 106.108 57.8596 106.108 51.9242C106.108 45.9887 110.55 41.1964 116.037 41.1964ZM60.6414 54.1005H47.9248C48.7522 56.8484 51.2781 58.8709 54.2831 58.8709C54.5662 58.8709 54.8275 58.8489 55.1105 58.8269V62.8718C54.8492 62.8938 54.5662 62.8938 54.2831 62.8938C48.4256 62.8938 43.6569 58.1015 43.6569 52.166C43.6569 46.2525 48.4038 41.4382 54.2831 41.4382C60.1406 41.4382 64.9093 46.2306 64.9093 52.166C64.9093 52.8255 64.844 53.485 64.7351 54.1005H63.4068H60.6414ZM47.9901 50.0336H60.5979C59.7268 47.3737 57.2227 45.4611 54.3049 45.4611C51.3652 45.4611 48.8611 47.3737 47.9901 50.0336ZM76.3412 45.5711V62.4321H71.5507V45.5711H63.6246V41.79H84.2891V45.5711H76.3412ZM33.6404 33.7881C39.1277 33.7881 43.5698 38.5804 43.5698 44.5159C43.5698 50.4293 39.1277 55.2437 33.6404 55.2437C31.4846 55.2437 29.4813 54.4962 27.87 53.2432V63.4434H23.7763V45.681C23.7327 45.3073 23.7109 44.9116 23.7109 44.5159C23.7109 38.5804 28.153 33.7881 33.6404 33.7881ZM33.6404 37.789C37.059 37.789 39.8462 40.8007 39.8462 44.4939C39.8462 48.1871 37.059 51.1987 33.6404 51.1987C30.2217 51.1987 27.4345 48.209 27.4345 44.4939C27.4345 40.8007 30.1999 37.789 33.6404 37.789ZM94.5669 41.1964C100.054 41.1964 104.496 45.9887 104.496 51.9242C104.496 57.8596 100.032 62.652 94.5669 62.652C92.3894 62.652 90.3643 61.8826 88.7312 60.6075V71.0276H84.6375V51.9462C84.6375 46.0107 89.0796 41.1964 94.5669 41.1964ZM94.5669 45.2193C97.9856 45.2193 100.773 48.231 100.773 51.9242C100.773 55.6174 97.9856 58.6291 94.5669 58.6291C91.1482 58.6291 88.361 55.6174 88.361 51.9242C88.361 48.231 91.1265 45.2193 94.5669 45.2193ZM116.037 45.2193C119.456 45.2193 122.243 48.231 122.243 51.9242C122.243 55.6174 119.456 58.6291 116.037 58.6291C112.618 58.6291 109.831 55.6174 109.831 51.9242C109.831 48.209 112.618 45.2193 116.037 45.2193Z" fill="#8500AC"/>
</svg>
