<svg width="140" height="113" viewBox="0 0 140 113" fill="none" xmlns="http://www.w3.org/2000/svg">
<g clip-path="url(#clip0_915_7307)">
<path d="M140 71.4354C134.911 71.4354 129.822 71.4354 124.733 71.4354C120.686 85.2082 112.812 96.1499 100.768 103.959C90.9739 110.319 80.1646 113.287 68.4911 112.986C56.0357 112.658 44.856 108.664 35.0343 101.005C25.2126 93.3461 18.7106 83.4302 15.2263 71.4491C10.1646 71.4491 5.10288 71.4491 0 71.4491C0 61.4922 0 51.6036 0 41.6194C0.274348 41.6194 0.534979 41.6194 0.79561 41.6194C5.33608 41.6194 9.89026 41.6057 14.4307 41.633C15.048 41.633 15.3361 41.4689 15.5144 40.8398C18.1207 31.7582 22.7572 23.8392 29.3827 17.1101C37.8738 8.47982 48.0796 3.07738 60.0137 0.930076C63.882 0.232546 67.7915 -0.123058 71.7284 0.0410664C84.6365 0.574472 96.1728 4.80069 106.132 13.0343C115.171 20.502 121.303 29.8844 124.54 41.1544C124.582 41.3048 124.65 41.4416 124.733 41.633C125.007 41.633 125.281 41.633 125.556 41.633C130.096 41.633 134.65 41.633 139.191 41.633C139.465 41.633 139.739 41.6467 140.014 41.6604C140 51.5763 140 61.5058 140 71.4354ZM1.8107 69.7258C2.08505 69.7394 2.30453 69.7668 2.52401 69.7668C47.4897 69.7668 92.4691 69.7531 137.435 69.7668C138.038 69.7668 138.203 69.6027 138.203 69.0009C138.189 61.9845 138.189 54.9819 138.189 47.9655C138.189 46.4474 138.189 44.9292 138.189 43.37C92.6749 43.37 47.2565 43.37 1.8107 43.37C1.8107 52.1507 1.8107 60.8904 1.8107 69.7258ZM35.8436 71.5175C40.3704 82.7737 53.1276 94.2761 70.6173 94.153C87.6406 94.0299 100.261 82.7874 104.801 71.5175C81.8107 71.5175 58.8615 71.5175 35.8436 71.5175ZM122.894 41.6194C118.189 23.0049 98.9026 1.28568 69.1221 1.69599C41.0425 2.09263 21.8793 22.5946 17.0919 41.5783C17.2977 41.592 17.5034 41.6194 17.6955 41.6194C19.6845 41.6057 21.6598 41.551 23.6488 41.5783C24.3073 41.592 24.5816 41.3869 24.8011 40.7577C27.38 33.3858 31.4815 26.9439 37.2291 21.6645C48.7654 11.0785 62.3868 6.85225 77.8601 9.17735C90.3841 11.0374 100.508 17.2195 108.368 27.0806C111.701 31.2658 114.184 35.9297 115.94 40.9766C116.049 41.3048 116.118 41.633 116.584 41.633C118.669 41.6194 120.741 41.6194 122.894 41.6194ZM17.037 71.4628C22.6886 92.8811 44.7188 113.698 74.8834 111.154C88.8889 109.977 100.713 104.028 110.343 93.8248C116.365 87.4513 120.494 79.9699 122.99 71.4764C122.634 71.4764 122.401 71.4764 122.181 71.4764C120.453 71.4764 118.711 71.5038 116.982 71.4628C116.406 71.4491 116.159 71.6406 115.981 72.174C113.361 79.7647 109.177 86.3708 103.224 91.7732C91.2757 102.592 77.2016 106.873 61.3992 103.809C43.347 100.294 31.1797 89.4481 24.7188 72.2834C24.513 71.7363 24.1289 71.4901 23.6625 71.4764C21.4815 71.4491 19.3004 71.4628 17.037 71.4628ZM35.9259 41.551C58.8615 41.551 81.7833 41.551 104.719 41.551C100.233 30.5409 87.4211 18.6692 69.3141 19.1069C52.7023 19.5035 40.3704 30.582 35.9259 41.551ZM74.2524 103.946C74.2524 103.412 74.2524 102.92 74.2524 102.414C74.2387 101.894 74.417 101.306 73.7037 101.046C73.6214 101.019 73.6077 100.773 73.6077 100.622C73.5391 99.1452 73.4568 97.6817 73.4156 96.2046C73.4019 95.7669 73.2373 95.6165 72.7984 95.6301C71.6872 95.6712 70.5624 95.6712 69.4513 95.6985C69.2044 95.6985 68.9712 95.7396 68.6008 95.7806C68.6008 96.8884 68.642 97.9553 68.5871 99.0084C68.546 99.9111 68.6831 100.91 67.6818 101.498C67.6132 101.539 67.5583 101.648 67.5583 101.73C67.5446 102.482 67.5583 103.248 67.5583 104.083C68.1344 104.042 68.5185 104.014 68.9438 103.973C68.9438 103.467 68.9438 103.07 68.9438 102.551C70.2743 102.551 71.5501 102.551 72.8395 102.551C73.1824 103.959 73.1824 103.959 74.2524 103.946ZM51.9342 22.9502C52.8944 22.5262 53.7174 22.1706 54.5405 21.7876C54.9246 21.6098 55.3224 21.4047 55.679 21.1721C56.8861 20.4062 56.845 18.5188 55.5556 17.917C54.9246 17.6298 54.8971 17.2879 54.9108 16.7408C54.9383 15.6876 53.9369 14.7713 52.9904 15.0722C51.6598 15.4962 50.3841 16.098 49.0535 16.645C50.0411 18.806 50.9739 20.8302 51.9342 22.9502ZM59.4376 12.6787C59.808 14.8807 60.1509 17.0006 60.5213 19.1206C60.5487 19.271 60.8505 19.4899 60.9877 19.4625C61.5364 19.3668 62.0576 19.2437 62.3045 18.5872C62.7435 17.3973 63.2922 16.2484 63.8683 14.9217C63.9781 15.332 64.0466 15.5509 64.0741 15.7697C64.2112 16.6177 64.3621 17.4793 64.4856 18.3273C64.5816 19.0112 65.1166 18.7923 65.5007 18.7923C65.6241 18.7923 65.8711 18.4231 65.8573 18.2589C65.583 16.1527 65.2538 14.0464 64.952 11.9538C63.6763 11.8854 63.4979 11.9948 63.0727 13.0069C62.5926 14.1421 62.1262 15.291 61.6598 16.4262C61.6187 16.4125 61.5775 16.3988 61.5364 16.3988C61.3032 15.1132 61.07 13.8412 60.823 12.5146C60.3155 12.5556 59.9314 12.6103 59.4376 12.6787ZM83.3333 93.3324C84.3484 95.4934 85.3224 97.5723 86.2689 99.5965C87.3937 99.364 87.8052 98.7348 87.7915 97.7638C87.7915 97.6544 87.8052 97.5313 87.8189 97.4218C87.9561 96.4097 88.0933 95.4113 88.2305 94.3992C88.7106 95.1241 89.0535 95.849 89.3964 96.5602C89.9314 97.6817 89.6296 97.5586 90.9465 97.4082C91.0288 97.3945 91.1248 97.3671 91.2894 97.3261C90.3429 95.2882 89.4101 93.264 88.4911 91.2672C87.0782 91.527 87.0782 91.527 86.9136 92.84C86.8724 93.1546 86.845 93.4692 86.8176 93.7837C86.7215 94.618 86.6255 95.4523 86.5295 96.2867C86.4746 96.3003 86.406 96.3003 86.3512 96.314C85.9396 95.4797 85.4733 94.6728 85.144 93.8111C84.8971 93.1683 84.5405 93.0315 83.9506 93.1956C83.7997 93.2503 83.6351 93.264 83.3333 93.3324ZM97.7778 85.0714C97.7641 86.9452 99.6845 88.9147 101.523 88.9284C103.251 88.9284 104.911 87.2324 104.925 85.4681C104.938 83.7311 102.99 81.8163 101.166 81.7753C99.5199 81.7342 97.7915 83.4165 97.7778 85.0714ZM93.1138 24.9607C93.1001 26.7114 94.7051 28.2842 96.4883 28.2842C98.2442 28.2842 100.178 26.2874 100.178 24.4683C100.178 22.7587 98.5734 21.1585 96.8313 21.1448C94.9383 21.1448 93.1276 22.9912 93.1138 24.9607ZM40.8093 31.977C41.1385 31.6078 41.4266 31.2658 41.7833 30.8692C39.9726 29.3921 38.203 27.9423 36.3923 26.4652C36.0905 26.9028 35.8299 27.2721 35.5693 27.6551C35.6927 27.7919 35.775 27.8876 35.8711 27.9833C36.3512 28.4757 37.2291 28.9681 37.2154 29.4331C37.1879 30.0212 36.4335 30.5957 35.9945 31.1701C35.9671 31.1974 35.9259 31.2111 35.8573 31.2385C35.5144 30.9513 35.1852 30.6504 34.8285 30.3768C33.882 29.6519 33.5528 29.7477 33.0315 30.9102C34.6228 32.1685 36.2277 33.4405 37.8326 34.7125C38.2167 35.0133 38.5597 34.8903 38.8203 34.5073C39.0809 34.1243 39.1907 33.7687 38.6831 33.4815C38.5048 33.3858 38.3402 33.249 38.1893 33.1122C36.8724 32.0181 36.749 32.2779 37.9973 30.7324C38.3265 30.3221 38.6831 30.2674 39.0946 30.5957C39.6296 31.0333 40.1783 31.471 40.8093 31.977ZM82.8669 20.1737C82.4828 17.876 82.1536 15.6603 81.701 13.4583C81.6461 13.1847 80.9602 12.9796 80.535 12.8565C80.3566 12.8018 80.0137 12.9796 79.904 13.1437C78.7654 14.8397 77.6543 16.563 76.5295 18.2726C76.406 18.4641 76.31 18.6829 76.1728 18.9291C76.5569 19.0248 76.8587 19.0659 77.1331 19.1616C77.5034 19.3121 77.7092 19.189 77.9012 18.847C78.4636 17.8623 78.4774 17.876 79.6022 18.0948C79.6982 18.1085 79.7805 18.1222 79.8765 18.1495C80.9876 18.3273 81.0151 18.3273 81.2208 19.3941C81.3169 19.9412 81.5775 20.1874 82.1125 20.16C82.3045 20.1737 82.5103 20.1737 82.8669 20.1737ZM49.3004 24.3042C47.2839 23.1416 45.3086 21.9517 43.2922 20.8576C43.0315 20.7208 42.4828 20.967 42.1536 21.1858C41.9753 21.3089 41.8518 21.7466 41.9204 21.9791C42.4554 23.9486 43.0315 25.9181 43.6214 27.8739C43.6763 28.038 43.9095 28.2569 44.0741 28.2569C44.6502 28.2706 45.048 27.6688 44.9108 27.108C44.8697 26.9302 44.8422 26.7387 44.7599 26.5883C44.513 26.1369 44.7874 25.8634 45.1166 25.6993C45.7476 25.3847 46.0494 24.2905 46.941 24.7555C47.8464 25.2342 48.5597 25.1659 49.3004 24.3042ZM55.8436 100.39C55.8573 100.062 55.8848 99.8153 55.8848 99.5828C55.8848 97.5996 55.8711 95.6165 55.8985 93.647C55.8985 93.2367 55.8436 92.9631 55.3909 92.84C54.9383 92.7169 54.5405 92.5118 54.1427 92.9494C52.7846 94.4266 51.4129 95.89 50.0549 97.3535C49.8903 97.5313 49.7668 97.7227 49.6159 97.9142C50.727 98.5023 51.0837 98.5434 51.4266 97.9553C51.7833 97.3535 52.1948 97.3398 52.7298 97.5723C53.0178 97.6954 53.3196 97.8185 53.6214 97.9142C54.2798 98.1057 54.6091 98.4613 54.4582 99.1999C54.417 99.4324 54.5267 99.8153 54.7051 99.9521C55.0069 100.171 55.4184 100.226 55.8436 100.39ZM102.305 31.8266C102.716 32.3326 103.073 32.7566 103.429 33.208C103.951 33.8782 104.609 34.2201 105.446 33.9876C106.406 33.7277 107.325 32.6746 107.366 31.8676C107.366 31.7445 107.339 31.5941 107.27 31.4847C106.557 30.3358 105.83 29.1869 105.062 27.9833C103.251 29.2416 101.564 30.4315 99.8765 31.6214C99.7256 31.7172 99.6022 31.8403 99.4239 31.977C99.6571 32.36 99.8765 32.7156 100.123 33.1122C100.864 32.6746 101.564 32.2643 102.305 31.8266ZM39.4513 87.2735C39.7531 87.6427 40.0137 88.0257 40.3292 88.3403C41.4952 89.4481 42.6886 89.3797 43.7174 88.1898C44.417 87.3829 44.4719 86.6717 43.7723 85.8374C43.1962 85.1398 42.5377 84.5107 41.9067 83.8542C41.4678 83.4028 41.0562 83.3618 40.5761 83.8815C39.5748 84.962 38.5185 86.0015 37.4897 87.0683C37.1331 87.4376 36.7901 87.8069 36.4335 88.1761C37.476 89.0378 37.476 89.0378 39.4513 87.2735ZM92.4966 18.765C92.4005 18.2316 92.4554 17.6161 92.2359 17.493C90.9328 16.7408 89.5748 16.098 88.2305 15.4415C87.8601 15.2637 87.6269 15.4004 87.5583 15.8244C87.4897 16.2758 87.5171 16.6177 88.0384 16.7681C88.3402 16.8502 88.6008 17.0417 89.0123 17.2468C88.1619 18.9701 87.3388 20.6387 86.5158 22.3073C87.7915 22.8681 87.8875 22.8544 88.4636 21.7466C89.0947 20.543 89.6982 19.3257 90.3292 18.0948C90.9876 18.3136 91.6324 18.5051 92.4966 18.765ZM74.3347 13.0069C74.3347 12.6513 74.3347 12.4051 74.3347 12.159C74.3484 11.7486 74.1427 11.6119 73.7449 11.6255C72.6475 11.6666 71.5501 11.6939 70.4664 11.6666C69.8903 11.6529 69.7119 11.8581 69.7256 12.4051C69.7531 14.0874 69.7394 15.7697 69.7394 17.452C69.7394 18.6419 69.7394 18.6419 70.9602 18.5598C71.0151 18.5598 71.0837 18.5051 71.2071 18.4504C71.2071 16.6587 71.2071 14.8533 71.2071 12.9796C72.2634 13.0069 73.2647 13.0069 74.3347 13.0069Z" fill="currentColor"/>
<path d="M1.8125 69.7258C1.8125 60.8904 1.8125 52.1645 1.8125 43.3701C47.272 43.3701 92.6767 43.3701 138.191 43.3701C138.191 44.9293 138.191 46.4475 138.191 47.9656C138.191 54.982 138.177 61.9846 138.205 69.001C138.205 69.6027 138.04 69.7669 137.437 69.7669C92.4709 69.7532 47.4915 69.7669 2.52581 69.7669C2.30633 69.7669 2.08685 69.7395 1.8125 69.7258ZM75.4202 55.2692C74.8989 55.2692 74.5148 55.2281 74.1308 55.2829C73.4723 55.3649 73.3351 55.064 73.294 54.4622C73.198 52.8347 73.0196 51.2071 72.8687 49.5795C72.8276 49.1418 72.7316 48.7999 72.1554 48.8273C71.5656 48.8546 70.9757 48.7862 70.3859 48.7179C69.8098 48.6495 69.6177 48.882 69.6589 49.4427C69.8098 51.2755 69.9332 53.1082 70.0978 54.9409C70.1115 55.0914 70.3447 55.3376 70.4819 55.3512C71.2089 55.4196 71.936 55.447 72.663 55.447C73.0608 55.447 73.2391 55.5837 73.2254 56.0077C73.1705 57.9772 73.5272 57.5943 71.6342 57.649C71.593 57.649 71.5382 57.649 71.497 57.649C70.1938 57.649 70.1938 57.649 70.0567 58.9073C70.043 59.003 70.0155 59.0851 70.0018 59.1808C69.8783 60.6716 69.7823 62.1761 69.6451 63.6669C69.604 64.1729 69.7412 64.4328 70.3173 64.3918C70.9072 64.3507 71.5107 64.3781 72.1006 64.4055C72.5395 64.4328 72.759 64.3097 72.8002 63.8173C72.951 62.0804 73.1431 60.3434 73.3214 58.6064C73.3489 58.2781 73.2803 57.8678 73.8015 57.8541C74.3228 57.8405 74.8303 57.8541 75.4339 57.8541C75.4339 58.1824 75.4339 58.4286 75.4339 58.6748C75.4339 60.2887 75.4751 61.9026 75.4202 63.5164C75.3927 64.2277 75.6534 64.4465 76.3255 64.4055C77.0526 64.3644 77.7933 64.3507 78.5203 64.4055C79.1925 64.4465 79.3297 64.1593 79.3297 63.5712C79.3022 61.9162 79.3434 60.2476 79.3159 58.5927C79.3022 57.9909 79.4531 57.7858 80.0978 57.9225C81.0443 58.114 81.3461 57.8541 81.4696 56.9378C81.5107 56.6642 81.5244 56.3907 81.5107 56.1171C81.4833 55.6385 81.689 55.4743 82.1554 55.488C82.9373 55.5154 83.7329 55.488 84.5148 55.488C84.5834 54.9409 84.6383 54.5853 84.6657 54.2297C84.8029 52.6432 84.9401 51.0703 85.0772 49.4838C85.1184 48.9777 84.9401 48.7315 84.3777 48.7589C83.7604 48.7999 83.1431 48.7726 82.5258 48.7726C82.128 48.7726 81.9085 48.882 81.8674 49.347C81.7302 51.0019 81.5519 52.6432 81.3736 54.2844C81.2638 55.3102 81.2364 55.2555 80.1801 55.3239C79.4531 55.3649 79.3022 55.105 79.3159 54.4349C79.3571 52.821 79.3159 51.2071 79.3434 49.5932C79.3571 49.0871 79.1788 48.8273 78.6575 48.8273C77.615 48.8273 76.5862 48.8273 75.4613 48.8273C75.4202 51.0156 75.4202 53.0945 75.4202 55.2692ZM39.8646 56.6232C39.8235 56.6232 39.7823 56.6232 39.7412 56.6232C39.7412 54.2297 39.7275 51.8499 39.7549 49.4564C39.7549 48.7999 39.4943 48.5948 38.8495 48.6084C36.7233 48.6631 34.6109 48.6905 32.4847 48.7042C30.8386 48.7042 29.2062 48.6631 27.5601 48.6221C27.0663 48.6084 26.8879 48.7862 26.9017 49.2923C26.9428 50.3591 26.9154 51.4259 26.9154 52.5064C26.9154 56.3086 26.9291 60.0972 26.9154 63.8994C26.9154 64.255 27.0663 64.3781 27.4092 64.3781C31.3324 64.3781 35.2693 64.3781 39.1925 64.3644C39.3708 64.3644 39.6726 64.1046 39.7137 63.9268C39.8235 63.3934 39.8646 62.8463 39.8646 62.2992C39.8783 60.3981 39.8646 58.5106 39.8646 56.6232ZM68.2048 48.6221C66.8879 48.6221 65.6671 48.6084 64.4325 48.6221C61.6479 48.6495 58.8633 48.6905 56.0786 48.6905C55.4613 48.6905 55.2967 48.882 55.3104 49.4701C55.3242 54.175 55.3242 58.8936 55.3104 63.5985C55.3104 64.1729 55.4751 64.3918 56.0786 64.3781C59.8921 64.3508 63.7055 64.3644 67.519 64.3644C67.7384 64.3644 67.9579 64.3371 68.2048 64.3234C68.2048 59.1124 68.2048 53.9562 68.2048 48.6221ZM113.431 64.3371C113.486 63.6532 113.582 63.0514 113.582 62.436C113.555 58.1003 113.5 53.751 113.486 49.4154C113.486 48.7726 113.267 48.5948 112.663 48.6084C110.482 48.6631 108.287 48.6905 106.092 48.6905C104.542 48.6905 102.992 48.6631 101.442 48.6084C100.839 48.5811 100.619 48.7589 100.619 49.4154C100.647 54.1476 100.647 58.8799 100.619 63.6122C100.619 64.2003 100.77 64.3918 101.387 64.3918C105.173 64.3644 108.959 64.3781 112.745 64.3781C112.951 64.3781 113.157 64.3507 113.431 64.3371ZM12.7864 56.5548C12.7864 58.9483 12.8002 61.3418 12.7727 63.7216C12.7727 64.214 12.9236 64.3918 13.4312 64.3918C15.914 64.3644 18.4106 64.3918 20.8934 64.3644C21.1815 64.3644 21.5244 64.2277 21.7302 64.0362C22.8825 62.9694 24.021 61.8752 25.1047 60.74C25.379 60.4528 25.5711 59.9467 25.5711 59.5364C25.6122 57.3344 25.5848 55.1187 25.5985 52.9167C25.5985 52.397 25.4476 52.0003 25.0361 51.6721C23.9113 50.7694 22.8139 49.8394 21.6753 48.964C21.4147 48.7589 21.0169 48.6358 20.674 48.6358C18.3008 48.6084 15.9277 48.6358 13.5546 48.6084C12.9236 48.5948 12.7316 48.8273 12.7316 49.4427C12.8139 51.8089 12.7864 54.175 12.7864 56.5548ZM54.2679 57.8405C54.2679 57.5122 54.2679 57.266 54.2679 57.0198C54.2679 54.5169 54.2679 52.0277 54.2679 49.5248C54.2679 48.6221 54.2679 48.6221 53.3763 48.6221C49.6863 48.6495 45.9826 48.6768 42.2926 48.7042C41.3461 48.7042 41.3461 48.7042 41.3461 49.6205C41.3461 54.1203 41.3598 58.6337 41.3324 63.1335C41.3324 63.8447 41.4696 64.2003 42.2515 64.1319C42.6493 64.0909 43.0745 64.1456 43.4723 64.1866C43.9387 64.2277 44.117 64.0225 44.1307 63.5575C44.1582 61.9162 44.2131 60.2887 44.2542 58.6474C44.2679 58.3875 44.2816 58.1277 44.2954 57.8268C47.6287 57.8405 50.8934 57.8405 54.2679 57.8405ZM126.49 51.3986C126.49 50.66 126.449 50.0445 126.504 49.4291C126.559 48.7999 126.326 48.6084 125.708 48.6084C122.951 48.6358 120.194 48.6084 117.437 48.6221C116.6 48.6221 115.777 48.7042 114.968 48.7589C114.94 48.882 114.913 48.923 114.913 48.964C114.913 53.8741 114.913 58.7979 114.899 63.7079C114.899 64.2687 115.16 64.3781 115.667 64.3781C119.042 64.3644 122.43 64.3644 125.804 64.3644C126.024 64.3644 126.243 64.3371 126.49 64.3097C126.49 63.6122 126.449 62.9967 126.504 62.3949C126.572 61.7248 126.271 61.5743 125.681 61.588C123.884 61.6427 122.073 61.67 120.276 61.67C119.439 61.67 118.603 61.5606 117.711 61.5059C117.711 60.3434 117.725 59.2218 117.697 58.114C117.684 57.6763 117.834 57.5122 118.287 57.5259C119.659 57.5532 121.031 57.5396 122.402 57.5396C123.335 57.5396 123.335 57.5396 123.335 56.6506C123.335 56.2676 123.28 55.871 123.308 55.488C123.349 54.8999 123.061 54.7494 122.526 54.7631C120.948 54.7905 119.385 54.7768 117.766 54.7768C117.766 53.6826 117.766 52.5748 117.766 51.3986C120.66 51.3986 123.527 51.3986 126.49 51.3986ZM96.6547 55.1324C94.3777 55.1324 92.2103 55.1187 90.0567 55.1461C89.4943 55.1598 89.3022 54.9956 89.3159 54.4212C89.3571 52.7116 89.3159 51.0019 89.3297 49.306C89.3297 48.882 89.2062 48.6768 88.7535 48.7042C88.2323 48.7315 87.6973 48.7315 87.176 48.7042C86.7371 48.6768 86.545 48.8273 86.5587 49.2786C86.5724 49.8257 86.545 50.3728 86.545 50.9199C86.545 55.2008 86.5587 59.468 86.5587 63.749C86.5587 64.2003 86.7096 64.4191 87.1897 64.3781C87.615 64.3508 88.0676 64.3234 88.4929 64.3781C89.1513 64.4602 89.3296 64.1593 89.3159 63.5712C89.3022 61.9299 89.3434 60.2887 89.3159 58.6611C89.3022 58.0456 89.5217 57.8952 90.0978 57.8952C91.8125 57.9225 93.5272 57.8952 95.2281 57.9088C96.9428 57.9225 96.5999 57.6763 96.6547 59.3723C96.7096 60.8631 96.7233 62.3676 96.8056 63.8584C96.8194 64.0362 97.0937 64.3234 97.272 64.3371C97.9305 64.3918 98.5889 64.3644 99.4394 64.3644C99.508 59.1261 99.5217 53.9425 99.4257 48.7042C98.6438 48.7042 98.0539 48.7315 97.4641 48.6905C96.9703 48.6631 96.7645 48.8136 96.7645 49.3196C96.7645 49.9078 96.6685 50.4959 96.6685 51.084C96.6548 52.4107 96.6547 53.7373 96.6547 55.1324ZM83.4449 64.3644C83.8152 64.3644 84.1719 64.3644 84.5423 64.3644C84.8989 64.3781 85.1047 64.255 85.0635 63.8447C84.8852 61.9299 84.7206 60.0014 84.5423 58.0867C84.5285 57.9636 84.3914 57.7584 84.2954 57.7584C83.6232 57.7174 82.9236 57.6353 82.2652 57.7037C81.4833 57.7858 81.2775 58.155 81.3598 58.9209C81.497 60.2066 81.5656 61.5059 81.7439 62.7779C82.0045 64.6653 81.5793 64.3508 83.4449 64.3644Z" fill="currentColor"/>
<path d="M74.2527 103.946C73.1965 103.96 73.1965 103.96 72.8398 102.565C71.5504 102.565 70.2746 102.565 68.9441 102.565C68.9441 103.071 68.9441 103.467 68.9441 103.987C68.5188 104.014 68.1347 104.055 67.5586 104.096C67.5586 103.262 67.5586 102.51 67.5586 101.744C67.5586 101.662 67.6135 101.552 67.682 101.511C68.6697 100.923 68.5325 99.9248 68.5874 99.0222C68.6423 97.969 68.6011 96.9022 68.6011 95.7944C68.9715 95.7533 69.2047 95.7123 69.4516 95.7123C70.5627 95.6849 71.6875 95.6849 72.7987 95.6439C73.2376 95.6302 73.4022 95.7807 73.4159 96.2184C73.4571 97.6955 73.5394 99.1726 73.608 100.636C73.6217 100.786 73.6354 101.033 73.704 101.06C74.4173 101.32 74.2527 101.908 74.2527 102.428C74.2527 102.92 74.2527 103.412 74.2527 103.946ZM71.9345 101.265C71.9345 99.8017 71.9345 98.4204 71.9345 96.9979C71.3035 96.9979 70.741 96.9979 70.1786 96.9979C70.0689 98.434 69.9591 99.8291 69.8631 101.265C70.5627 101.265 71.2349 101.265 71.9345 101.265Z" fill="#D77168"/>
<path d="M59.4375 12.6787C59.9313 12.6103 60.3291 12.5693 60.8092 12.5009C61.0562 13.8276 61.2894 15.1132 61.5225 16.3852C61.5637 16.3989 61.6049 16.4126 61.646 16.4126C62.1124 15.2774 62.5925 14.1285 63.0589 12.9933C63.4841 11.9812 63.6487 11.8718 64.9382 11.9402C65.24 14.0191 65.5555 16.1253 65.8435 18.2453C65.871 18.4231 65.6103 18.7924 65.4869 18.7787C65.1165 18.7787 64.5678 18.9975 64.4718 18.3137C64.3483 17.452 64.2112 16.604 64.0603 15.7561C64.0191 15.5372 63.9505 15.3321 63.8545 14.9081C63.2784 16.2484 62.7297 17.3973 62.2907 18.5735C62.0438 19.2437 61.5225 19.3668 60.9739 19.4489C60.8367 19.4762 60.5349 19.2574 60.5075 19.1069C60.1508 17.0007 59.7942 14.8807 59.4375 12.6787Z" fill="#D77168"/>
<path d="M83.332 93.3323C83.6338 93.2776 83.7984 93.2503 83.9493 93.2092C84.5392 93.0451 84.8958 93.1819 85.1427 93.8247C85.472 94.6864 85.9383 95.4933 86.3499 96.3276C86.4047 96.3139 86.4733 96.3139 86.5282 96.3002C86.6242 95.4659 86.7202 94.6316 86.8163 93.7973C86.8574 93.4828 86.8711 93.1682 86.9123 92.8536C87.0769 91.5406 87.0769 91.5406 88.4898 91.2808C89.4088 93.2776 90.3416 95.2881 91.2881 97.3397C91.1098 97.3807 91.0275 97.4081 90.9452 97.4218C89.6283 97.5722 89.9301 97.6953 89.3951 96.5738C89.0522 95.8626 88.7093 95.1377 88.2292 94.4128C88.092 95.4249 87.9548 96.4233 87.8176 97.4354C87.8039 97.5449 87.7902 97.668 87.7902 97.7774C87.8176 98.7348 87.3924 99.3639 86.2676 99.6101C85.3211 97.5722 84.3471 95.4796 83.332 93.3323Z" fill="#D77168"/>
<path d="M97.7774 85.0713C97.7911 83.4164 99.5195 81.7341 101.179 81.7751C102.99 81.8162 104.938 83.731 104.938 85.468C104.924 87.2323 103.264 88.9283 101.536 88.9283C99.6841 88.9283 97.7637 86.9451 97.7774 85.0713ZM101.755 87.3964C102.894 87.4101 103.799 86.2339 103.402 85.2081C103.086 84.4011 102.524 83.772 101.701 83.4437C100.452 82.9377 99.0943 83.7994 99.204 85.044C99.2863 86.1518 100.617 87.3827 101.755 87.3964Z" fill="#D77168"/>
<path d="M93.1133 24.9608C93.127 22.9913 94.9377 21.1312 96.8307 21.1449C98.5591 21.1585 100.164 22.7451 100.178 24.4684C100.178 26.2874 98.2573 28.2843 96.4878 28.2843C94.7182 28.2843 93.1133 26.7114 93.1133 24.9608ZM96.9542 22.5536C96.0214 22.5399 95.0474 23.4152 94.6633 24.6051C94.4164 25.3437 94.6496 25.9455 95.1983 26.4379C95.747 26.9166 96.4192 27.0807 97.009 26.643C97.5714 26.219 98.0378 25.6583 98.4631 25.0838C99.341 23.935 98.0653 22.5946 96.9542 22.5536Z" fill="#D77168"/>
<path d="M82.868 20.1736C82.5113 20.1736 82.3056 20.16 82.0998 20.1736C81.5648 20.201 81.3042 19.9548 81.2082 19.4077C81.0024 18.3272 80.975 18.3409 79.8639 18.1631C79.7678 18.1494 79.6855 18.1357 79.5895 18.1084C78.4647 17.8896 78.451 17.8759 77.8885 18.8606C77.6965 19.2026 77.5045 19.312 77.1204 19.1752C76.846 19.0658 76.5442 19.0384 76.1602 18.9427C76.2973 18.6965 76.3933 18.4777 76.5168 18.2862C77.6279 16.5766 78.7528 14.8532 79.8913 13.1573C80.001 12.9795 80.3577 12.8154 80.5223 12.8701C80.9475 12.9932 81.6197 13.1983 81.6883 13.4719C82.1547 15.6602 82.4976 17.8759 82.868 20.1736ZM80.5497 15.1268C80.4537 15.0994 80.3714 15.0858 80.2754 15.0584C79.9736 15.6055 79.6718 16.1526 79.3289 16.768C79.8913 16.8364 80.3028 16.8911 80.7966 16.9595C80.7143 16.2757 80.632 15.7012 80.5497 15.1268Z" fill="#D77168"/>
<path d="M55.8449 100.39C55.4059 100.239 55.0081 100.171 54.7063 99.952C54.528 99.8152 54.4046 99.4323 54.4594 99.1998C54.6103 98.4612 54.2811 98.1056 53.6227 97.9141C53.3209 97.8184 53.0191 97.6953 52.731 97.5722C52.1823 97.3397 51.7845 97.3534 51.4279 97.9551C51.0849 98.5433 50.7283 98.4886 49.6172 97.9141C49.7681 97.7226 49.9053 97.5175 50.0561 97.3534C51.4142 95.8762 52.7859 94.4265 54.1439 92.9493C54.5417 92.5117 54.9395 92.7168 55.3922 92.8399C55.8449 92.963 55.8998 93.2502 55.8998 93.6469C55.886 95.63 55.8998 97.6132 55.886 99.5827C55.886 99.8152 55.8586 100.061 55.8449 100.39ZM54.432 94.5632C53.9107 95.2197 53.5129 95.7258 53.0603 96.3139C53.5952 96.5054 54.0068 96.6422 54.5006 96.82C54.5006 96.1635 54.5006 95.6027 54.5006 95.0419C54.4869 94.9462 54.4732 94.8641 54.432 94.5632Z" fill="#D77168"/>
<path d="M102.305 31.8267C101.564 32.2643 100.864 32.661 100.11 33.1123C99.8628 32.7157 99.6434 32.3601 99.4102 31.9771C99.5885 31.8403 99.7257 31.7172 99.8628 31.6215C101.55 30.4316 103.251 29.2417 105.048 27.9834C105.816 29.2007 106.543 30.3359 107.257 31.4847C107.325 31.5941 107.366 31.7446 107.353 31.8677C107.311 32.6746 106.392 33.7278 105.432 33.9876C104.595 34.2065 103.937 33.8782 103.416 33.208C103.073 32.7704 102.702 32.3327 102.305 31.8267ZM103.374 30.9787C103.717 31.4437 103.937 31.9224 104.307 32.2233C104.54 32.4011 105.034 32.4421 105.322 32.319C105.734 32.1549 105.871 31.7172 105.624 31.2933C105.377 30.8693 105.103 30.4589 104.801 30.0076C104.307 30.3359 103.882 30.6231 103.374 30.9787Z" fill="#D77168"/>
<path d="M39.4494 87.2734C37.4741 89.0377 37.4741 89.0378 36.4453 88.1761C36.802 87.8068 37.1449 87.4375 37.5016 87.0682C38.5304 86.0014 39.5866 84.962 40.588 83.8815C41.0681 83.3754 41.4659 83.4028 41.9186 83.8541C42.5496 84.5106 43.208 85.1398 43.7841 85.8373C44.47 86.6716 44.4288 87.3965 43.7293 88.1898C42.6867 89.3797 41.507 89.4344 40.3411 88.3402C40.0118 88.0256 39.7512 87.6427 39.4494 87.2734ZM41.4385 85.1808C40.053 86.3844 40.1627 86.6853 41.3424 87.4786C41.5619 87.629 42.1929 87.5606 42.3438 87.3691C42.5358 87.123 42.5907 86.5759 42.4398 86.2887C42.2341 85.8783 41.8088 85.5638 41.4385 85.1808Z" fill="#D77168"/>
<path d="M92.4984 18.765C91.6342 18.5051 90.9895 18.3137 90.3174 18.1085C89.6864 19.3394 89.0828 20.5567 88.4518 21.7603C87.8757 22.8681 87.7796 22.8818 86.5039 22.321C87.327 20.6524 88.15 18.9838 89.0005 17.2605C88.589 17.0554 88.3283 16.8639 88.0265 16.7818C87.5053 16.6177 87.4778 16.2758 87.5464 15.8381C87.615 15.4141 87.8482 15.2773 88.2186 15.4552C89.5629 16.1117 90.9346 16.7545 92.2241 17.5067C92.4573 17.6298 92.4024 18.2316 92.4984 18.765Z" fill="#D77168"/>
<path d="M74.3344 13.0069C73.2645 13.0069 72.2631 13.0069 71.1931 13.0069C71.1931 14.8807 71.1931 16.686 71.1931 18.4777C71.0697 18.5324 71.0011 18.5735 70.9462 18.5871C69.7254 18.6692 69.7254 18.6692 69.7254 17.4793C69.7254 15.797 69.7391 14.1147 69.7117 12.4325C69.6979 11.8717 69.8763 11.6802 70.4524 11.6939C71.5498 11.7212 72.6472 11.6939 73.7309 11.6529C74.1424 11.6392 74.3344 11.7623 74.3207 12.1863C74.3344 12.4051 74.3344 12.6513 74.3344 13.0069Z" fill="#D77168"/>
<path d="M75.4167 55.269C75.4167 53.0944 75.4167 51.0154 75.4167 48.7861C76.5415 48.7861 77.5841 48.7861 78.6129 48.7861C79.1341 48.7861 79.2987 49.0459 79.2987 49.552C79.2713 51.1659 79.3125 52.7798 79.2713 54.3937C79.2576 55.0502 79.4085 55.3237 80.1355 55.2827C81.1917 55.2143 81.2192 55.269 81.3289 54.2432C81.5072 52.602 81.6856 50.9471 81.8227 49.3058C81.8639 48.8408 82.0971 48.7314 82.4812 48.7314C83.0985 48.7314 83.7157 48.7587 84.333 48.7177C84.8954 48.6767 85.0738 48.9228 85.0326 49.4426C84.8954 51.0291 84.7583 52.602 84.6211 54.1885C84.5937 54.5441 84.5388 54.8997 84.4702 55.4468C83.6883 55.4468 82.9064 55.4605 82.1108 55.4468C81.6444 55.4331 81.4387 55.5973 81.4661 56.076C81.4798 56.3495 81.4661 56.623 81.4249 56.8966C81.3015 57.8266 80.986 58.0865 80.0532 57.8813C79.4085 57.7446 79.2576 57.9497 79.2713 58.5515C79.2987 60.2064 79.2713 61.875 79.285 63.53C79.2987 64.1181 79.1478 64.419 78.4757 64.3643C77.7487 64.3096 77.0079 64.3232 76.2809 64.3643C75.6087 64.4053 75.3481 64.1865 75.3756 63.4753C75.4167 61.8614 75.3893 60.2475 75.3893 58.6336C75.3893 58.3874 75.3893 58.1412 75.3893 57.8129C74.7994 57.8129 74.2782 57.7993 73.7569 57.8129C73.2356 57.8266 73.3179 58.2369 73.2768 58.5652C73.0985 60.3022 72.9064 62.0392 72.7555 63.7761C72.7144 64.2685 72.4949 64.3916 72.0559 64.3643C71.4661 64.3369 70.8625 64.3096 70.2727 64.3506C69.6965 64.3916 69.5594 64.1318 69.6005 63.6257C69.724 62.1349 69.8337 60.6441 69.9572 59.1396C69.9709 59.0439 69.9983 58.9618 70.012 58.8661C70.1492 57.6078 70.1492 57.6078 71.4524 57.6078C71.4935 57.6078 71.5484 57.6078 71.5895 57.6078C73.4826 57.5668 73.1259 57.936 73.1808 55.9665C73.1945 55.5426 73.0299 55.4058 72.6184 55.4058C71.8913 55.4058 71.1643 55.3784 70.4373 55.31C70.2864 55.2964 70.0669 55.0502 70.0532 54.8997C69.8886 53.067 69.7651 51.2343 69.6142 49.4015C69.5731 48.8408 69.7651 48.6083 70.3413 48.6767C70.9311 48.745 71.521 48.8134 72.1108 48.7861C72.7007 48.7587 72.7967 49.1143 72.8241 49.5383C72.975 51.1659 73.1396 52.7935 73.2494 54.421C73.2905 55.0091 73.4277 55.3237 74.0861 55.2417C74.5114 55.228 74.8954 55.269 75.4167 55.269Z" fill="#D77168"/>
<path d="M39.8621 56.6231C39.8621 58.5105 39.8758 60.398 39.8621 62.2854C39.8621 62.8325 39.821 63.3796 39.7112 63.913C39.6701 64.0908 39.3683 64.3507 39.19 64.3507C35.2668 64.378 31.3299 64.3643 27.4067 64.3643C27.0638 64.3643 26.9129 64.2412 26.9129 63.8856C26.9129 60.0834 26.9129 56.2949 26.9129 52.4926C26.9129 51.4258 26.9403 50.3453 26.8992 49.2785C26.8854 48.7725 27.0638 48.5947 27.5576 48.6083C29.2037 48.6494 30.8361 48.6904 32.4822 48.6904C34.6084 48.6904 36.7208 48.6494 38.847 48.5947C39.4918 48.581 39.7524 48.7725 39.7524 49.4426C39.725 51.8361 39.7387 54.2159 39.7387 56.6094C39.7798 56.6231 39.821 56.6231 39.8621 56.6231ZM29.6564 56.6505C29.6289 56.6505 29.6152 56.6505 29.5878 56.6505C29.5878 58.0866 29.5878 59.509 29.5878 60.9451C29.5878 61.3007 29.6152 61.5605 30.0816 61.5605C32.1804 61.5605 34.2654 61.5742 36.3642 61.6016C36.8031 61.6016 36.954 61.4238 36.954 60.9861C36.9266 57.9908 36.9129 54.9955 36.9266 52.0003C36.9266 51.4942 36.7071 51.3985 36.2544 51.3985C34.2929 51.4121 32.3313 51.4258 30.3697 51.3985C29.8896 51.3985 29.6427 51.5079 29.6564 52.0276C29.6701 53.5594 29.6564 55.105 29.6564 56.6505Z" fill="#D77168"/>
<path d="M68.2037 48.6221C68.2037 53.9561 68.2037 59.1124 68.2037 64.3234C67.9568 64.337 67.7374 64.3644 67.5179 64.3644C63.7044 64.3644 59.891 64.3507 56.0775 64.3781C55.4603 64.3781 55.2957 64.1729 55.3094 63.5985C55.3231 58.8936 55.3231 54.175 55.3094 49.4701C55.3094 48.8819 55.474 48.6905 56.0775 48.6905C58.8622 48.6905 61.6468 48.6494 64.4315 48.6221C65.666 48.6221 66.8869 48.6221 68.2037 48.6221ZM58.19 51.3985C58.1489 51.5626 58.1077 51.631 58.1077 51.6857C58.094 54.8178 58.094 57.9635 58.0803 61.0956C58.0803 61.5332 58.3409 61.5606 58.6564 61.5606C60.3162 61.6016 61.976 61.6426 63.6496 61.67C64.1022 61.6837 64.5686 61.67 65.0076 61.5743C65.1722 61.5469 65.4054 61.2597 65.4054 61.0956C65.4328 58.0045 65.4328 54.9135 65.4191 51.8225C65.4191 51.6721 65.1859 51.4122 65.0625 51.3985C62.7716 51.3985 60.4946 51.3985 58.19 51.3985Z" fill="#D77168"/>
<path d="M113.431 64.3368C113.157 64.3505 112.951 64.3642 112.759 64.3642C108.973 64.3642 105.187 64.3505 101.401 64.3779C100.784 64.3779 100.633 64.2001 100.633 63.5983C100.66 58.866 100.66 54.1337 100.633 49.4015C100.633 48.745 100.852 48.5808 101.456 48.5945C103.006 48.6492 104.556 48.6903 106.106 48.6766C108.301 48.6766 110.482 48.6356 112.677 48.5945C113.28 48.5808 113.5 48.745 113.5 49.4015C113.513 53.7371 113.568 58.0864 113.596 62.422C113.582 63.0512 113.486 63.653 113.431 64.3368ZM110.715 61.6151C110.715 58.1274 110.715 54.7902 110.715 51.3983C108.232 51.4804 105.804 51.2342 103.335 51.5761C103.335 51.877 103.335 52.1232 103.335 52.3694C103.335 54.8723 103.335 57.3752 103.335 59.8781C103.335 61.4236 103.335 61.5194 104.899 61.5877C106.806 61.6835 108.74 61.6151 110.715 61.6151Z" fill="#D77168"/>
<path d="M12.7832 56.5548C12.7832 54.1886 12.797 51.8225 12.7695 49.4564C12.7695 48.8409 12.9616 48.6221 13.5926 48.6221C15.9657 48.6494 18.3388 48.6221 20.7119 48.6494C21.0549 48.6494 21.4389 48.7725 21.7133 48.9777C22.8518 49.853 23.9492 50.783 25.0741 51.6857C25.4856 52.014 25.6365 52.4106 25.6365 52.9303C25.609 55.1324 25.6502 57.348 25.609 59.5501C25.5953 59.9604 25.417 60.4527 25.1426 60.7536C24.059 61.8888 22.9204 62.983 21.7682 64.0498C21.5624 64.2413 21.2057 64.3781 20.9314 64.3781C18.4485 64.4054 15.952 64.3781 13.4691 64.4054C12.9479 64.4054 12.797 64.2413 12.8107 63.7352C12.797 61.3281 12.7832 58.9346 12.7832 56.5548ZM15.5267 61.6426C16.775 61.6426 17.9959 61.6837 19.2167 61.629C19.7105 61.6016 20.2867 61.4922 20.6708 61.205C21.3841 60.6853 21.9876 60.0151 22.6049 59.3723C22.7421 59.2355 22.8107 58.9756 22.8244 58.7568C22.8793 57.6489 22.9204 56.5411 22.9204 55.4196C22.9204 54.7494 23.0713 53.8467 22.7147 53.4364C21.7956 52.4243 20.8628 51.2617 19.2167 51.3848C18.5857 51.4259 17.941 51.3985 17.2963 51.3985C15.4993 51.3985 15.4993 51.3985 15.4993 53.1765C15.4993 55.7478 15.4993 58.3054 15.4993 60.8767C15.4856 61.0819 15.513 61.287 15.5267 61.6426Z" fill="#D77168"/>
<path d="M54.2676 57.8404C50.8931 57.8404 47.6283 57.8404 44.295 57.8404C44.2813 58.1276 44.2538 58.3875 44.2538 58.661C44.2127 60.3023 44.1578 61.9299 44.1304 63.5711C44.1167 64.0361 43.9383 64.2413 43.4719 64.2003C43.0604 64.1729 42.6489 64.1182 42.2511 64.1455C41.4692 64.2139 41.332 63.8583 41.332 63.1471C41.3595 58.6474 41.3457 54.1339 41.3457 49.6342C41.3457 48.7178 41.3457 48.7178 42.2923 48.7178C45.9822 48.6905 49.6859 48.6631 53.3759 48.6357C54.2676 48.6357 54.2676 48.6357 54.2676 49.5384C54.2676 52.0413 54.2676 54.5306 54.2676 57.0335C54.2676 57.266 54.2676 57.5122 54.2676 57.8404ZM44.103 51.5216C44.103 52.6158 44.0755 53.5732 44.1304 54.5169C44.1441 54.681 44.4459 54.9682 44.6242 54.9682C46.8327 55.0366 49.0412 55.0776 51.2497 55.1187C51.3458 55.1187 51.4555 55.064 51.5515 55.0366C51.5515 53.8741 51.5515 52.7525 51.5515 51.5079C49.0687 51.3301 46.627 51.3301 44.103 51.5216Z" fill="#D77168"/>
<path d="M126.488 51.3985C123.525 51.3985 120.658 51.3985 117.75 51.3985C117.75 52.5747 117.75 53.6826 117.75 54.7768C119.368 54.7768 120.946 54.7904 122.51 54.7631C123.045 54.7494 123.333 54.8999 123.292 55.488C123.264 55.8709 123.319 56.2539 123.319 56.6505C123.319 57.5395 123.319 57.5395 122.386 57.5395C121.015 57.5395 119.643 57.5532 118.271 57.5259C117.818 57.5122 117.681 57.6763 117.681 58.114C117.709 59.2218 117.695 60.3297 117.695 61.5059C118.6 61.5743 119.423 61.67 120.26 61.67C122.057 61.67 123.868 61.629 125.665 61.5879C126.255 61.5743 126.556 61.7247 126.488 62.3949C126.433 62.9967 126.474 63.6258 126.474 64.3097C126.213 64.3234 126.008 64.3644 125.788 64.3644C122.414 64.3644 119.025 64.3644 115.651 64.3781C115.143 64.3781 114.883 64.2686 114.883 63.7079C114.897 58.7978 114.883 53.8741 114.897 48.964C114.897 48.923 114.924 48.8819 114.951 48.7588C115.761 48.7178 116.584 48.6358 117.421 48.6221C120.178 48.6084 122.935 48.6358 125.692 48.6084C126.323 48.6084 126.543 48.7862 126.488 49.429C126.447 50.0445 126.488 50.66 126.488 51.3985Z" fill="#D77168"/>
<path d="M96.6547 55.1322C96.6547 53.7235 96.641 52.4105 96.6547 51.0975C96.6684 50.5094 96.7507 49.9213 96.7507 49.3332C96.7507 48.8271 96.9702 48.663 97.4503 48.704C98.0402 48.7451 98.63 48.7177 99.4119 48.7177C99.5217 53.956 99.4942 59.126 99.4256 64.378C98.5751 64.378 97.9167 64.419 97.2583 64.3506C97.0799 64.3369 96.8056 64.036 96.7919 63.8719C96.7096 62.3811 96.6959 60.8766 96.641 59.3858C96.5861 57.7035 96.9291 57.936 95.2144 57.9224C93.4997 57.9087 91.785 57.936 90.0841 57.9087C89.5079 57.895 89.2885 58.0455 89.3022 58.6746C89.3433 60.3159 89.3022 61.9571 89.3022 63.5847C89.3022 64.1728 89.1376 64.4737 88.4791 64.3916C88.0539 64.3369 87.6149 64.3506 87.176 64.3916C86.6821 64.4327 86.545 64.2138 86.545 63.7625C86.545 59.4816 86.545 55.2143 86.5312 50.9334C86.5312 50.3863 86.5587 49.8392 86.545 49.2921C86.5313 48.8408 86.7233 48.6903 87.1623 48.7177C87.6835 48.7451 88.2185 48.7451 88.7398 48.7177C89.2062 48.6903 89.3296 48.8955 89.3159 49.3195C89.3022 51.0291 89.3296 52.7388 89.3022 54.4347C89.2885 55.0092 89.4805 55.1596 90.0429 55.1596C92.224 55.1186 94.3913 55.1322 96.6547 55.1322Z" fill="#D77168"/>
<path d="M83.4424 64.3642C81.5769 64.3505 82.0021 64.6788 81.7415 62.7777C81.5631 61.5057 81.4946 60.2064 81.3574 58.9207C81.2751 58.1548 81.4671 57.7855 82.2627 57.7035C82.9349 57.6351 83.6208 57.7035 84.2929 57.7582C84.3889 57.7582 84.5261 57.9634 84.5398 58.0864C84.7181 60.0012 84.8828 61.9297 85.0611 63.8445C85.1022 64.2548 84.8965 64.3642 84.5398 64.3642C84.1695 64.3505 83.8128 64.3642 83.4424 64.3642Z" fill="#D77168"/>
<path d="M71.56 78.5876C71.56 80.3519 71.56 82.13 71.56 83.949C71.025 83.949 70.5174 83.949 69.9688 83.949C69.9688 81.241 69.9688 78.5329 69.9688 75.8659C70.0236 75.8385 70.0373 75.8248 70.0648 75.8248C72.4516 75.4556 72.4516 75.4555 73.0552 77.767C73.3021 78.6833 73.549 79.6134 73.7959 80.5297C73.8371 80.6802 73.8919 80.8306 73.988 81.1589C74.3035 80.0237 74.5778 79.0389 74.8384 78.0542C75.003 77.4387 75.1128 76.8096 75.2774 76.2078C75.3185 76.0573 75.5106 75.8248 75.634 75.8248C76.4022 75.7838 77.1704 75.8112 77.9523 75.8112C77.9523 78.5602 77.9523 81.2546 77.9523 83.99C77.431 83.99 76.9509 83.99 76.3885 83.99C76.3885 82.1436 76.3885 80.3246 76.3885 78.5192C76.3336 78.5055 76.2788 78.5055 76.2239 78.4919C75.9907 79.3809 75.7438 80.2699 75.5243 81.1589C75.3323 81.9248 75.1265 82.6907 74.9619 83.4703C74.8659 83.9217 74.6738 84.1405 74.1663 84.0448C73.8371 83.9764 73.4941 84.0311 73.1375 84.0311C72.6711 82.171 72.2047 80.3656 71.752 78.5603C71.6834 78.5466 71.6286 78.5602 71.56 78.5876Z" fill="currentColor"/>
<path d="M68.6516 75.7573C68.6516 76.2497 68.6516 76.66 68.6516 77.1387C67.3484 77.1387 66.059 77.1387 64.7284 77.1387C64.7284 77.7952 64.7284 78.3696 64.7284 79.0261C65.8395 79.0261 66.9369 79.0261 68.0892 79.0261C68.0892 79.5595 68.0892 79.9972 68.0892 80.5306C66.9643 80.5306 65.8669 80.5306 64.6735 80.5306C64.6735 81.7205 64.6735 82.8284 64.6735 83.9636C64.0837 83.9636 63.5624 83.9636 63 83.9636C63 81.2418 63 78.5201 63 75.7573C64.8656 75.7573 66.7311 75.7573 68.6516 75.7573Z" fill="currentColor"/>
<path d="M78.4921 37.6804C78.4921 38.8567 78.4921 40.0055 78.4921 41.2501C77.7514 41.2501 77.0381 41.2501 76.2562 41.2501C76.2562 40.2928 75.8858 39.308 76.4757 38.3369C76.5305 38.2412 76.1464 37.7762 75.8858 37.6257C75.68 37.5026 75.3508 37.5984 75.0765 37.5984C71.5648 37.5984 68.0532 37.5984 64.5415 37.5984C64.2946 37.5984 64.0477 37.5984 63.7047 37.5984C63.7047 38.8567 63.7047 40.0602 63.7047 41.3185C62.9228 41.3185 62.237 41.3185 61.4551 41.3185C61.4551 40.2791 61.4276 39.2806 61.4688 38.2822C61.4825 37.7898 61.3453 37.5573 60.8241 37.571C60.2891 37.5984 60.0148 37.2975 59.9873 36.7914C59.9324 35.369 59.8364 33.9329 59.9187 32.5105C59.9462 32.0318 60.3851 31.4163 60.8241 31.1701C62.0449 30.4589 62.7308 29.4058 63.2658 28.1612C63.6773 27.2038 64.1986 26.2874 64.6375 25.3437C64.8159 24.9608 65.0353 24.8103 65.4743 24.8103C68.4784 24.824 71.4962 24.824 74.5003 24.8103C74.8844 24.8103 75.1176 24.9197 75.296 25.289C75.8721 26.4926 76.5305 27.6688 77.0792 28.8997C77.4496 29.7204 77.9297 30.3905 78.7253 30.8282C79.6855 31.3479 80.2205 32.0865 80.1108 33.2627C80.001 34.3706 80.0148 35.4784 80.001 36.5999C79.9873 37.2701 79.7541 37.6804 78.9997 37.5984C78.8351 37.571 78.6842 37.6394 78.4921 37.6804ZM76.3522 29.6246C75.7486 28.4484 75.1862 27.3953 74.6512 26.3148C74.4592 25.9181 74.2123 25.7814 73.7596 25.7814C71.5923 25.8087 69.4249 25.9045 67.2713 25.754C65.9544 25.672 65.2137 26.0412 64.8021 27.2859C64.5278 28.0791 64.0751 28.804 63.6773 29.6246C67.9297 29.6246 72.0724 29.6246 76.3522 29.6246ZM77.916 34.1791C78.012 34.1928 78.1218 34.2065 78.2178 34.2201C78.4373 33.9329 78.8488 33.6457 78.8351 33.3722C78.8213 33.126 78.3824 32.8114 78.0669 32.7293C77.9297 32.6883 77.4907 33.1123 77.477 33.3448C77.4633 33.6047 77.7514 33.8919 77.916 34.1791ZM62.6759 33.4269C62.6622 33.3174 62.6485 33.208 62.6348 33.0986C62.3604 32.9618 62.0312 32.6609 61.798 32.7157C61.5374 32.784 61.1945 33.1396 61.167 33.3995C61.1259 33.7278 61.3728 34.1791 61.8117 34.056C62.141 33.9876 62.3879 33.6594 62.6759 33.4269Z" fill="currentColor"/>
<path d="M95.1846 38.9114C95.1435 39.732 95.1023 40.4569 95.0612 41.2228C94.5948 41.2228 94.1558 41.2228 93.6346 41.2228C93.6346 40.4842 93.6346 39.7457 93.6346 38.9661C90.9734 38.9661 88.3808 38.9661 85.7333 38.9661C85.7333 39.7183 85.7333 40.4569 85.7333 41.2365C85.2258 41.2365 84.7731 41.2365 84.2381 41.2365C84.2381 40.7031 84.2107 40.156 84.2519 39.6226C84.2793 39.2396 84.1833 39.0208 83.7855 38.843C83.566 38.7473 83.3191 38.4053 83.3053 38.1591C83.2368 37.3659 83.2368 36.5726 83.3053 35.7793C83.3328 35.4374 83.5111 34.9861 83.7855 34.8219C84.7182 34.2475 85.2532 33.3858 85.5824 32.4148C86.0351 31.0744 86.7896 30.5137 88.2848 30.6915C89.6154 30.8556 90.9734 30.7188 92.3177 30.6778C92.7292 30.6641 93.0036 30.7735 93.1682 31.1702C93.3877 31.6625 93.7169 32.1276 93.9089 32.6336C94.2793 33.6047 94.8554 34.3569 95.7471 34.9177C95.9528 35.0408 96.1174 35.3827 96.1311 35.6289C96.186 36.3811 96.1311 37.1334 96.1586 37.8719C96.1586 38.5284 96.0351 39.0208 95.1846 38.9114ZM85.747 33.7141C88.4082 33.7141 90.9871 33.7141 93.6483 33.7141C93.2779 32.9892 92.9761 32.3327 92.6195 31.7036C92.5372 31.5668 92.3177 31.4163 92.1531 31.4163C90.507 31.389 88.8609 31.4027 87.2285 31.4163C87.0776 31.4163 86.8719 31.5258 86.8033 31.6352C86.4329 32.2917 86.1037 32.9892 85.747 33.7141ZM95.5962 36.4632C95.3904 36.1623 95.2669 35.793 95.0475 35.7109C94.828 35.6426 94.5125 35.8887 94.2656 35.9845C94.4713 36.7914 94.8966 36.7504 95.5962 36.4632ZM85.1298 36.5863C84.9652 36.1486 85.0749 35.6152 84.4713 35.6562C83.9363 35.6973 83.9501 36.1486 83.9638 36.5863C84.3342 36.5863 84.6634 36.5863 85.1298 36.5863Z" fill="currentColor"/>
<path d="M55.1981 38.8977C55.1981 39.7183 55.1981 40.4569 55.1981 41.2365C54.7042 41.2365 54.279 41.2365 53.7852 41.2365C53.7852 40.5252 53.7852 39.8004 53.7852 38.9934C51.124 38.9934 48.5314 38.9934 45.8702 38.9934C45.8702 39.6909 45.8702 40.4295 45.8702 41.2091C45.3489 41.2091 44.91 41.2091 44.3887 41.2091C44.3887 40.4705 44.3887 39.732 44.3887 38.925C43.4971 39.0208 43.3599 38.5421 43.3873 37.8582C43.4148 37.2017 43.3874 36.5452 43.3599 35.8887C43.3462 35.328 43.5931 34.904 44.0595 34.6441C44.7865 34.2475 45.1981 33.6046 45.4724 32.8661C46.0211 31.3616 46.7618 30.2948 48.7097 30.6641C49.9168 30.8966 51.2063 30.6778 52.4683 30.7325C52.7426 30.7461 53.0856 30.9513 53.2776 31.1838C53.5382 31.4847 53.7029 31.8813 53.8537 32.2643C54.2653 33.3037 54.8002 34.2064 55.7605 34.8629C56.0485 35.0544 56.2269 35.5331 56.2817 35.8887C56.364 36.5179 56.2954 37.1607 56.268 37.7898C56.2269 38.419 56.2269 39.1028 55.1981 38.8977ZM53.744 33.7414C53.3736 32.9755 53.0444 32.2916 52.674 31.6215C52.6055 31.4984 52.3311 31.4163 52.1528 31.4163C50.5753 31.4026 48.9978 31.4026 47.434 31.4163C47.2557 31.4163 47.0088 31.5121 46.9264 31.6488C46.5561 32.319 46.2406 33.0029 45.8565 33.7551C48.5451 33.7414 51.0828 33.7414 53.744 33.7414ZM54.9511 35.3416C54.7179 35.7793 54.4847 36.0118 54.5122 36.217C54.5259 36.4084 54.8551 36.723 54.9923 36.7093C55.2118 36.6683 55.5684 36.3948 55.5547 36.217C55.541 35.9845 55.2529 35.7656 54.9511 35.3416ZM45.1706 36.5999C45.1157 36.2443 45.0883 35.9845 45.0472 35.6972C44.7317 35.6836 44.4847 35.6699 44.2378 35.6562C44.2378 36.0255 44.2378 36.299 44.2378 36.5999C44.5396 36.5999 44.8002 36.5999 45.1706 36.5999Z" fill="currentColor"/>
<path d="M71.9346 101.265C71.235 101.265 70.5629 101.265 69.8633 101.265C69.973 99.8426 70.0828 98.4476 70.1788 96.9978C70.7412 96.9978 71.2899 96.9978 71.9346 96.9978C71.9346 98.4202 71.9346 99.8016 71.9346 101.265Z" fill="currentColor"/>
<path d="M52.1133 19.5856C52.7854 19.3394 53.3753 19.1069 53.9789 18.9154C54.4041 18.7786 54.7607 18.806 54.9254 19.3394C55.09 19.8454 54.8979 20.1874 54.4864 20.3925C53.9514 20.6661 53.3616 20.8439 52.7306 21.1037C52.5248 20.5977 52.3465 20.1463 52.1133 19.5856Z" fill="currentColor"/>
<path d="M51.5348 18.4093C51.3565 17.9716 51.2193 17.616 51.0547 17.2194C51.8366 16.8228 52.5499 16.3304 53.4827 16.5766C53.7021 17.2331 53.5787 17.6981 52.8654 17.9033C52.4264 18.0264 52.0149 18.2178 51.5348 18.4093Z" fill="currentColor"/>
<path d="M101.755 87.3966C100.617 87.3829 99.2863 86.152 99.204 85.0305C99.108 83.7996 100.466 82.9242 101.701 83.4303C102.524 83.7722 103.086 84.3877 103.402 85.1946C103.799 86.2341 102.894 87.4103 101.755 87.3966Z" fill="currentColor"/>
<path d="M96.9557 22.5534C98.0668 22.5944 99.3425 23.9348 98.4783 25.0836C98.0531 25.6444 97.5867 26.2188 97.0243 26.6428C96.4344 27.0805 95.7623 26.9164 95.2136 26.4377C94.6511 25.9453 94.4317 25.3435 94.6786 24.6049C95.049 23.415 96.0229 22.5397 96.9557 22.5534Z" fill="currentColor"/>
<path d="M80.549 15.1267C80.6313 15.7012 80.6999 16.2756 80.7959 16.9595C80.3021 16.8911 79.8905 16.8364 79.3281 16.768C79.6711 16.1388 79.9728 15.6054 80.2746 15.0583C80.3707 15.0857 80.4667 15.0994 80.549 15.1267Z" fill="currentColor"/>
<path d="M44.0859 24.7144C43.8938 24.0032 43.7292 23.3741 43.5234 22.5808C44.0447 22.9091 44.4288 23.1689 44.8266 23.4014C45.2793 23.6613 45.2518 23.9485 44.8677 24.2357C44.6483 24.3862 44.4014 24.523 44.0859 24.7144Z" fill="currentColor"/>
<path d="M54.4323 94.5632C54.4735 94.8641 54.4872 94.9462 54.4872 95.0282C54.4872 95.589 54.4872 96.1634 54.4872 96.8063C54.0071 96.6421 53.5819 96.4917 53.0469 96.3002C53.5133 95.7258 53.9111 95.2197 54.4323 94.5632Z" fill="currentColor"/>
<path d="M103.375 30.9786C103.896 30.623 104.322 30.3358 104.815 30.0076C105.103 30.4726 105.391 30.8692 105.638 31.2932C105.885 31.7172 105.762 32.1549 105.337 32.319C105.049 32.4284 104.541 32.4011 104.322 32.2233C103.937 31.9224 103.704 31.4437 103.375 30.9786Z" fill="currentColor"/>
<path d="M41.4419 85.1809C41.7985 85.5639 42.2375 85.8648 42.4569 86.2888C42.5941 86.576 42.553 87.1231 42.3609 87.3692C42.21 87.5607 41.5927 87.6291 41.3595 87.4787C40.1661 86.6854 40.0564 86.3845 41.4419 85.1809Z" fill="currentColor"/>
<path d="M29.6584 56.6504C29.6584 55.1049 29.6584 53.5594 29.6584 52.0139C29.6584 51.5079 29.8916 51.3848 30.3717 51.3848C32.3333 51.4121 34.2949 51.3984 36.2565 51.3848C36.6955 51.3848 36.9287 51.4805 36.9287 51.9866C36.9287 54.9818 36.9424 57.9771 36.9561 60.9724C36.9561 61.4101 36.8052 61.5879 36.3663 61.5879C34.2675 61.5742 32.1824 61.5468 30.0837 61.5468C29.6173 61.5468 29.5898 61.287 29.5898 60.9314C29.6036 59.4953 29.5898 58.0729 29.5898 56.6368C29.6173 56.6504 29.6447 56.6504 29.6584 56.6504Z" fill="currentColor"/>
<path d="M58.1899 51.3984C60.4944 51.3984 62.7715 51.3848 65.0486 51.4121C65.172 51.4121 65.4052 51.6857 65.4052 51.8361C65.4189 54.9271 65.4189 58.0181 65.3915 61.1092C65.3915 61.2733 65.1583 61.5468 64.9937 61.5879C64.5547 61.6836 64.0884 61.6973 63.6357 61.6836C61.9759 61.6562 60.3161 61.6015 58.6425 61.5742C58.327 61.5605 58.0664 61.5468 58.0664 61.1092C58.0801 57.9771 58.0801 54.8314 58.0938 51.6993C58.1076 51.631 58.135 51.5626 58.1899 51.3984Z" fill="currentColor"/>
<path d="M110.714 61.6152C108.739 61.6152 106.805 61.6836 104.884 61.5878C103.32 61.5194 103.32 61.4237 103.32 59.8782C103.32 57.3753 103.32 54.8724 103.32 52.3695C103.32 52.1233 103.32 51.8771 103.32 51.5762C105.803 51.2343 108.231 51.4668 110.7 51.3984C110.714 54.7903 110.714 58.1138 110.714 61.6152Z" fill="currentColor"/>
<path d="M15.5294 61.6425C15.502 61.2869 15.4883 61.0818 15.4883 60.8903C15.4883 58.319 15.4883 55.7614 15.4883 53.1901C15.4883 51.4121 15.502 51.4121 17.2853 51.4121C17.93 51.4121 18.561 51.4531 19.2057 51.3984C20.8518 51.2753 21.7983 52.4379 22.7036 53.45C23.0603 53.8466 22.9094 54.7493 22.9094 55.4331C22.9094 56.541 22.8683 57.6625 22.8134 58.7704C22.7997 58.9755 22.7448 59.2354 22.5939 59.3858C21.9766 60.0286 21.3731 60.6851 20.6597 61.2185C20.2757 61.5058 19.6995 61.6152 19.2057 61.6425C18.0123 61.6836 16.7777 61.6425 15.5294 61.6425Z" fill="currentColor"/>
<path d="M44.1027 51.5216C46.6404 51.3301 49.0684 51.3301 51.5376 51.5079C51.5376 52.7525 51.5376 53.8877 51.5376 55.0366C51.4415 55.0639 51.3318 55.1323 51.2358 55.1187C49.0273 55.0776 46.8188 55.0503 44.6103 54.9682C44.4319 54.9682 44.1301 54.681 44.1164 54.5169C44.0753 53.5731 44.1027 52.6158 44.1027 51.5216Z" fill="currentColor"/>
<path d="M24.7466 72.2696C31.2075 89.4343 43.3611 100.28 61.4132 103.782C77.2157 106.845 91.2898 102.578 103.238 91.7457C109.191 86.3433 113.375 79.7373 115.995 72.1465C116.105 71.8182 116.242 71.6131 116.461 71.5173H104.815C100.261 82.7872 87.6547 94.0161 70.6313 94.1392C53.1416 94.2623 40.3981 82.7599 35.8577 71.5173H24.0195C24.335 71.6131 24.5957 71.8593 24.7466 72.2696ZM101.194 81.7478C103.004 81.7888 104.952 83.7036 104.952 85.4406C104.939 87.2049 103.279 88.9009 101.55 88.9009C99.7123 88.9009 97.7918 86.9314 97.8055 85.044C97.8193 83.389 99.5339 81.7204 101.194 81.7478ZM83.9647 93.1818C84.5545 93.0177 84.9112 93.1545 85.1581 93.7973C85.4873 94.6589 85.9537 95.4659 86.3652 96.3002C86.4201 96.2865 86.4887 96.2865 86.5435 96.2728C86.6396 95.4385 86.7356 94.6042 86.8316 93.7699C86.8728 93.4554 86.8865 93.1408 86.9276 92.8262C87.0922 91.5132 87.0922 91.5132 88.5051 91.2533C89.4242 93.2502 90.357 95.2607 91.3035 97.3123C91.1252 97.3533 91.0428 97.3807 90.9605 97.3944C89.6437 97.5448 89.9455 97.6679 89.4105 96.5464C89.0675 95.8352 88.7246 95.1103 88.2445 94.3854C88.1073 95.3975 87.9701 96.3959 87.833 97.408C87.8193 97.5175 87.8055 97.6405 87.8055 97.75C87.833 98.7074 87.4077 99.3365 86.2829 99.5827C85.3364 97.5448 84.3487 95.4659 83.3474 93.3186C83.6629 93.2502 83.8138 93.2228 83.9647 93.1818ZM67.5723 101.716C67.5723 101.634 67.6272 101.525 67.6958 101.484C68.6835 100.896 68.5463 99.8973 68.6012 98.9946C68.656 97.9414 68.6149 96.8746 68.6149 95.7668C68.9852 95.7258 69.2184 95.6847 69.4653 95.6847C70.5765 95.6574 71.7013 95.6574 72.8124 95.6163C73.2514 95.6027 73.416 95.7531 73.4297 96.1908C73.4708 97.6679 73.5531 99.145 73.6217 100.608C73.6354 100.759 73.6492 101.005 73.7178 101.032C74.4311 101.292 74.2664 101.88 74.2664 102.4C74.2664 102.893 74.2664 103.385 74.2664 103.932C73.2102 103.946 73.2102 103.946 72.8535 102.551C71.5641 102.551 70.2884 102.551 68.9578 102.551C68.9578 103.057 68.9578 103.453 68.9578 103.973C68.5326 104 68.1485 104.041 67.5723 104.082C67.5723 103.234 67.5723 102.482 67.5723 101.716ZM50.0689 97.326C51.4269 95.8488 52.7987 94.3991 54.1567 92.922C54.5545 92.4843 54.9523 92.6894 55.405 92.8125C55.8577 92.9356 55.9125 93.2228 55.9125 93.6195C55.8988 95.6027 55.9125 97.5858 55.8988 99.5553C55.8988 99.8015 55.8714 100.048 55.8577 100.362C55.4187 100.212 55.0209 100.143 54.7191 99.9246C54.5408 99.7878 54.4173 99.4049 54.4722 99.1724C54.6231 98.4338 54.2939 98.0782 53.6354 97.8867C53.3337 97.791 53.0319 97.6679 52.7438 97.5448C52.1951 97.3123 51.7973 97.326 51.4407 97.9278C51.0977 98.5159 50.7411 98.4612 49.63 97.8867C49.7808 97.6953 49.9043 97.4901 50.0689 97.326ZM37.5312 87.0545C38.56 85.9877 39.6162 84.9482 40.6176 83.8677C41.0977 83.3617 41.4955 83.389 41.9482 83.8404C42.5792 84.4969 43.2376 85.126 43.8138 85.8236C44.4996 86.6579 44.4585 87.3827 43.7589 88.176C42.7164 89.3659 41.5367 89.4206 40.3707 88.3265C40.0415 88.0119 39.7946 87.6289 39.4928 87.2596C37.5175 89.024 37.5175 89.024 36.4887 88.1623C36.8316 87.793 37.1745 87.4238 37.5312 87.0545Z" fill="currentColor"/>
<path d="M115.967 40.9491C114.211 35.9022 111.728 31.2383 108.395 27.0532C100.521 17.192 90.3979 11.0236 77.8876 9.14987C62.4006 6.83844 48.7792 11.0647 37.2566 21.637C31.4953 26.9164 27.3937 33.3583 24.8286 40.7302C24.664 41.1953 24.4719 41.4278 24.1016 41.5098H35.9671C40.4116 30.5408 52.7298 19.4624 69.3553 19.0657C87.4623 18.6281 100.274 30.5135 104.746 41.5098H116.283C116.104 41.4141 116.036 41.1816 115.967 40.9491Z" fill="currentColor"/>
</g>
<defs>
<clipPath id="clip0_915_7307">
<rect width="140" height="113" fill="currentColor"/>
</clipPath>
</defs>
</svg>
