<svg width="174" height="100" viewBox="0 0 174 100" fill="none" xmlns="http://www.w3.org/2000/svg">
<path fill-rule="evenodd" clip-rule="evenodd" d="M28.9502 60.6702C25.7654 60.6702 23.1857 51.395 23.1857 39.9598C23.1857 28.5246 25.7654 19.2811 28.9502 19.2811C29.0776 19.2811 29.205 19.3129 29.3324 19.3446C28.5999 16.9305 27.6445 14.58 26.4342 12.3565C33.9186 21.3776 34.3008 32.0822 34.3008 32.0822V32.0504C34.5874 34.6869 34.7466 37.3233 34.7466 39.9916C34.7148 51.4268 32.1351 60.6702 28.9502 60.6702ZM48.6325 74.4878H40.3838C41.2755 69.4372 46.7216 67.182 49.1739 57.4303C52.4224 44.5656 46.0528 36.2751 41.5622 32.2728C41.5622 32.241 41.9443 46.535 37.4219 55.175C38.8232 49.2668 39.492 43.2315 39.4602 37.1645C39.4602 18.3917 33.4727 3.17651 26.0521 3.17651C18.6314 3.17651 12.6758 18.4235 12.6758 37.1963C12.6758 55.9691 18.6633 71.1843 26.0839 71.1843C30.5427 71.1843 34.5237 65.6255 36.9442 57.0808C37.9633 56.4456 39.6831 56.4138 40.0334 56.4138C43.1227 56.4138 45.6069 60.2573 40.7023 66.7373C38.1225 70.4855 37.2945 72.7725 37.1034 74.5196H28.1859C27.2941 74.5196 26.7527 74.996 26.7527 75.8219V83.1277C24.6826 83.2548 23.0583 84.9701 23.0583 87.0348V87.2889H50.0656V75.8219C50.0656 74.9643 49.5561 74.4878 48.6325 74.4878Z" fill="currentColor"/>
<path fill-rule="evenodd" clip-rule="evenodd" d="M122.649 39.3563V33.5751L124.368 31.3834C125.324 32.1775 125.865 33.3528 125.865 34.5916V46.3762H130.069V34.3057C130.069 31.9234 128.986 29.6681 127.139 28.1752L126.98 28.0481L127.49 27.4128C129.146 25.3163 130.037 22.7117 130.037 20.0434V12.0706H125.834V20.5834C125.834 22.2987 125.26 23.9822 124.177 25.3481L122.617 27.3175V12.0706H118.477V46.408H122.649V39.3563Z" fill="currentColor"/>
<path fill-rule="evenodd" clip-rule="evenodd" d="M158.51 16.2635V12.0706H149.911C149.21 12.0706 148.637 12.6423 148.637 13.3411V45.1374C148.637 45.8362 149.21 46.408 149.911 46.408H158.51V42.2151H152.841V27.0952H158.255V22.934H152.841V16.2635H158.51Z" fill="currentColor"/>
<path fill-rule="evenodd" clip-rule="evenodd" d="M113.191 63.1796L109.942 67.849V52.9197H105.738V87.2571H109.942V74.4878L113.191 69.8819V87.2571H117.395V52.9197H113.191V63.1796Z" fill="currentColor"/>
<path fill-rule="evenodd" clip-rule="evenodd" d="M80.7677 70.2949H77.551V59.4632C77.551 58.1926 77.8377 57.0808 79.239 57.0808H80.7677V70.2949ZM83.7296 52.9197H79.2708C75.8312 52.9197 73.6337 55.4608 73.4108 59.6855C73.3789 60.0349 73.3789 60.3526 73.3789 60.6702V87.2888H77.5829V74.5195H80.7996V87.2888H85.0035V54.1903C84.9717 53.4914 84.4303 52.9197 83.7296 52.9197Z" fill="currentColor"/>
<path fill-rule="evenodd" clip-rule="evenodd" d="M128.444 81.1265C128.413 81.9206 128.126 83.223 126.693 83.223C125.26 83.223 125.005 81.8889 124.941 81.1265C124.941 80.8089 124.941 59.3043 124.941 59.0185C124.973 58.2243 125.26 56.8902 126.693 56.8902C128.126 56.8902 128.381 58.2243 128.444 58.9867C128.444 59.3679 128.476 80.5548 128.444 81.1265ZM126.725 52.6338C123.285 52.6338 121.087 55.1749 120.833 59.3996C120.801 59.749 120.801 60.0667 120.801 60.3843V80.0148C120.801 84.7159 122.998 87.5112 126.693 87.5112C130.132 87.5112 132.33 84.97 132.585 80.7454C132.616 80.396 132.616 80.0783 132.616 79.7607V60.1302C132.616 55.4608 130.419 52.6656 126.725 52.6338Z" fill="currentColor"/>
<path fill-rule="evenodd" clip-rule="evenodd" d="M113.633 44.5973C114.684 43.2632 115.226 41.4844 115.226 39.2609V35.4492H111.085V39.3562C111.085 40.4362 110.894 41.2303 110.544 41.7385C110.257 42.1832 109.748 42.4691 109.238 42.4374C108.697 42.4691 108.219 42.215 107.9 41.7703C107.55 41.2938 107.391 40.5632 107.391 39.4515V18.8999C107.391 17.7881 107.55 17.0575 107.869 16.5811C108.155 16.1364 108.665 15.8822 109.206 15.914C109.748 15.914 110.257 16.1681 110.544 16.6128C110.894 17.1211 111.085 17.9152 111.085 18.9952V22.9022H115.226V19.0905C115.226 16.8669 114.684 15.0564 113.633 13.754C111.627 11.3082 107.996 10.9905 105.576 12.9917C105.289 13.214 105.034 13.4681 104.811 13.754C103.76 15.0881 103.219 16.8669 103.219 19.0905V39.2291C103.219 41.4527 103.76 43.2632 104.811 44.5656C106.818 47.0114 110.448 47.3291 112.869 45.3279C113.155 45.1373 113.41 44.8832 113.633 44.5973Z" fill="currentColor"/>
<path fill-rule="evenodd" clip-rule="evenodd" d="M141.024 40.6902C140.992 41.4843 140.706 42.8184 139.273 42.8184C137.839 42.8184 137.553 41.4843 137.521 40.6902C137.521 40.3725 137.521 18.4233 137.521 18.1374C137.553 17.3433 137.839 15.9774 139.273 15.9774C140.706 15.9774 140.992 17.3115 141.024 18.1056C141.024 18.5186 141.056 40.1184 141.024 40.6902ZM139.273 11.6892C135.769 11.6892 133.572 14.2304 133.317 18.5186C133.285 18.868 133.285 19.1856 133.285 19.5033V39.5467C133.285 44.2796 135.515 47.1384 139.241 47.1384C142.744 47.1384 144.942 44.5655 145.196 40.309C145.228 39.9596 145.228 39.642 145.228 39.3243V19.2809C145.228 14.548 142.999 11.6892 139.273 11.6892Z" fill="currentColor"/>
<path fill-rule="evenodd" clip-rule="evenodd" d="M94.3982 46.662C96.118 46.7256 97.7423 45.9314 98.8251 44.5973C99.8761 43.2632 100.418 41.4844 100.418 39.2609V35.4492H96.2773V39.3562C96.2773 40.4362 96.0862 41.2303 95.7359 41.7385C95.4492 42.1832 94.9396 42.4691 94.3982 42.4374C93.8568 42.4691 93.3791 42.215 93.0606 41.7703C92.7103 41.2938 92.551 40.5632 92.551 39.4515V18.8999C92.551 17.7881 92.7103 17.0575 93.0288 16.5811C93.3154 16.1364 93.825 15.8822 94.3664 15.914C94.9078 15.914 95.4174 16.1681 95.704 16.6128C96.0543 17.1211 96.2454 17.9152 96.2454 18.9952V22.9022H100.386V19.0905C100.386 16.8669 99.8443 15.0564 98.7933 13.754C96.7869 11.3082 93.1561 10.9905 90.7357 12.9917C90.449 13.214 90.1943 13.4681 89.9713 13.754C88.9203 15.0881 88.3789 16.8669 88.3789 19.0905V39.2291C88.3789 41.4527 88.9203 43.2632 89.9713 44.5656C91.0542 45.9632 92.6784 46.7256 94.3982 46.662Z" fill="currentColor"/>
<path fill-rule="evenodd" clip-rule="evenodd" d="M63.3133 16.2317H66.53V20.6152C66.53 22.3305 65.9568 24.014 64.8739 25.3799L63.3133 27.3493V16.2317ZM59.1094 13.3411V46.408H63.3133V33.5751L68.1543 27.4128C69.8104 25.3163 70.7021 22.7117 70.7021 20.0117V12.0706H60.3833C59.6826 12.0706 59.1094 12.6423 59.1094 13.3411Z" fill="currentColor"/>
<path fill-rule="evenodd" clip-rule="evenodd" d="M63.3133 57.0808H66.53V61.4643C66.53 63.1796 65.9568 64.8631 64.8739 66.229L63.3133 68.1984V57.0808ZM59.1094 54.1903V87.2571H63.3133V74.456L68.1543 68.2619C69.8104 66.1655 70.7021 63.5608 70.7021 60.8926V52.9197H60.3833C59.6826 52.9197 59.1094 53.4914 59.1094 54.1903Z" fill="currentColor"/>
<path fill-rule="evenodd" clip-rule="evenodd" d="M97.2023 83.0324H93.062C93.5715 78.5854 93.9537 74.7736 93.9537 69.596V59.4949C93.9537 58.2243 94.2404 57.1126 95.6417 57.1126H97.1704L97.2023 83.0324ZM101.406 83.0324V56.1279V54.1903C101.406 53.4914 100.833 52.9197 100.132 52.9197H95.6735C92.2339 52.9197 90.0364 55.4608 89.7816 59.6855C89.7497 60.0349 89.7497 60.3526 89.7497 60.6702V69.596C89.7497 74.1066 88.9854 81.6665 88.8261 83.0324H86.8516V87.2571H103.604V83.0324H101.406Z" fill="currentColor"/>
<path fill-rule="evenodd" clip-rule="evenodd" d="M81.0231 41.9292C81.0231 42.2151 80.8002 42.4374 80.5135 42.4374H77.8383C77.5516 42.4374 77.3287 42.2151 77.3287 41.9292V39.9598C77.3287 39.6739 77.5516 39.4515 77.8383 39.4515H81.0231V41.9292ZM80.7683 12.0706V27.3175L79.2077 25.3481C78.1567 23.9822 77.5516 22.2987 77.5516 20.5834V12.0706H73.3477V20.0117C73.3477 22.6799 74.2394 25.2846 75.8955 27.381L80.9912 33.8292V35.4175H77.0739C75.0356 35.4175 73.3795 37.0692 73.3795 39.1021V42.6915C73.3795 44.7244 75.0356 46.3762 77.0739 46.3762H81.2779C83.3162 46.3762 84.9723 44.7244 84.9723 42.6915V38.9433C84.9723 38.9115 84.9723 38.9115 84.9723 38.8798V12.0706H80.7683Z" fill="currentColor"/>
<path fill-rule="evenodd" clip-rule="evenodd" d="M47.5183 15.9458C47.5183 17.6611 46.117 19.0587 44.3972 19.0587C42.6774 19.0587 41.2761 17.6611 41.2761 15.9458C41.2761 14.2305 42.6774 12.8329 44.3972 12.8329C46.117 12.8011 47.5183 14.1988 47.5183 15.9458ZM44.3972 12.0706C42.2634 12.0706 40.5117 13.8176 40.5117 15.9458C40.5117 18.074 42.2634 19.8211 44.3972 19.8211C46.531 19.8211 48.2827 18.074 48.2827 15.9458C48.2827 13.8176 46.531 12.0706 44.3972 12.0706Z" fill="currentColor"/>
<path fill-rule="evenodd" clip-rule="evenodd" d="M45.0025 15.1834C45.0344 15.4693 44.8114 15.7234 44.5248 15.7552C44.493 15.7552 44.4611 15.7552 44.4293 15.7552H43.856V14.6434H44.3337C44.4611 14.6434 44.6204 14.6434 44.7477 14.7069C44.907 14.7705 45.0344 14.961 45.0025 15.1834ZM45.2255 16.2316C45.6395 16.0093 45.8624 15.5963 45.8624 15.1199C45.8943 14.6434 45.6077 14.1669 45.1618 13.9763C44.907 13.8811 44.6522 13.8493 44.3974 13.8811H42.9961V17.9787H43.856V16.4857H44.4611L45.2573 17.9787H46.2128L45.3529 16.4222C45.2573 16.3269 45.2573 16.2952 45.2255 16.2316Z" fill="currentColor"/>
</svg>
