<svg width="149" height="41" viewBox="0 0 149 41" fill="none" xmlns="http://www.w3.org/2000/svg">
<g clip-path="url(#clip0_915_7363)">
<path d="M0 41.0455C0 27.3523 0 13.6932 0 0C49.6667 0 99.3105 0 149 0C149 13.6705 149 27.3409 149 41.0455C99.3562 41.0455 49.7124 41.0455 0 41.0455ZM144.757 36.7841C144.757 36.5455 144.757 36.3523 144.757 36.1705C144.757 25.7614 144.757 15.3409 144.769 4.93182C144.769 4.39773 144.609 4.28409 144.094 4.28409C97.7094 4.29545 51.3135 4.29545 4.92893 4.28409C4.40287 4.28409 4.26564 4.42045 4.26564 4.94318C4.27707 15.3523 4.27707 25.7727 4.27707 36.1818C4.27707 36.375 4.27707 36.5795 4.27707 36.7955C51.1305 36.7841 97.8924 36.7841 144.757 36.7841Z" fill="currentColor"/>
<path d="M60.9531 10.9317C63.8693 10.9317 66.7512 10.7726 69.6102 10.9658C73.67 11.2385 77.3066 14.8067 77.9242 18.8181C78.759 24.1931 75.4654 28.9203 70.1248 30.034C69.7589 30.1135 69.37 30.1817 68.9927 30.1817C66.3281 30.1931 63.6635 30.1931 60.9531 30.1931C60.9531 23.7499 60.9531 17.3294 60.9531 10.9317ZM65.6076 25.6931C66.5568 25.6931 67.4488 25.7158 68.3294 25.6931C70.4793 25.6476 72.0918 24.659 72.9953 22.7272C73.8987 20.8067 73.6471 18.9317 72.3434 17.2499C70.5708 14.9885 68.0663 15.2953 65.6076 15.3635C65.6076 18.8181 65.6076 22.2158 65.6076 25.6931Z" fill="currentColor"/>
<path d="M105.244 20.5115C105.244 25.8979 100.91 30.2047 95.5236 30.2047C90.1373 30.2047 85.7458 25.8638 85.7344 20.5342C85.723 15.1933 90.1601 10.807 95.5579 10.8297C100.921 10.8524 105.244 15.1706 105.244 20.5115ZM89.9085 20.5115C89.9085 23.6479 92.413 26.1592 95.5351 26.1365C98.6114 26.1138 101.139 23.5797 101.139 20.5115C101.139 17.432 98.6228 14.9433 95.5122 14.9433C92.3787 14.9433 89.9085 17.3979 89.9085 20.5115Z" fill="currentColor"/>
<path d="M54.9977 10.8635C56.4958 10.8635 57.9139 10.8635 59.4234 10.8635C59.4234 11.0908 59.4234 11.3067 59.4234 11.534C59.4234 15.0113 59.4234 18.4885 59.4234 21.9658C59.4234 26.0567 56.3357 29.5567 52.2187 30.1135C47.9874 30.6931 43.9619 28.0113 42.9441 23.9203C42.8412 23.4885 42.7612 23.0226 42.7497 22.5794C42.7383 18.7953 42.7383 15.0226 42.7383 11.2385C42.7383 11.1249 42.7497 11.0226 42.7612 10.8749C44.1907 10.8749 45.5859 10.8749 47.084 10.8749C47.084 11.0567 47.084 11.2613 47.084 11.4544C47.084 14.8522 47.084 18.2613 47.084 21.659C47.084 23.7272 48.1475 25.1022 50.0802 25.6931C52.1501 26.3408 55.0549 24.534 55.0091 22.0908C54.9405 18.5794 54.9977 15.0567 54.9977 11.5453C54.9977 11.3294 54.9977 11.1022 54.9977 10.8635Z" fill="currentColor"/>
<path d="M121.313 26.25C123.086 26.25 124.767 26.25 126.494 26.25C126.494 27.5796 126.494 28.8523 126.494 30.1705C122.285 30.1705 118.065 30.1705 113.754 30.1705C113.868 29.9887 113.96 29.8182 114.074 29.6705C116.773 25.8296 119.46 21.9887 122.159 18.1478C122.788 17.25 122.846 16.4546 122.331 15.6819C121.873 15.0114 121.016 14.625 120.25 14.8182C119.289 15.0682 118.729 15.7046 118.603 16.6932C118.603 16.7273 118.568 16.75 118.546 16.8069C117.265 16.8069 115.984 16.8069 114.646 16.8069C114.646 15.1705 115.195 13.7728 116.338 12.6591C118.077 10.966 120.147 10.4091 122.468 11.1478C124.824 11.8978 126.196 13.5682 126.585 15.966C126.837 17.5682 126.436 19.0682 125.464 20.4091C124.195 22.1705 122.926 23.9432 121.668 25.716C121.553 25.8637 121.462 26.0228 121.313 26.25Z" fill="currentColor"/>
<path d="M36.2075 30.1817C34.595 30.1817 33.0626 30.1817 31.4615 30.1817C31.4615 25.3181 31.4615 20.4544 31.4615 15.5226C29.7576 15.5226 28.1108 15.5226 26.4297 15.5226C26.4297 13.9317 26.4297 12.4203 26.4297 10.8635C31.3472 10.8635 36.2532 10.8635 41.1936 10.8635C41.1936 12.3863 41.1936 13.8976 41.1936 15.4885C39.5582 15.4885 37.9115 15.4885 36.1961 15.4885C36.2075 20.4317 36.2075 25.284 36.2075 30.1817Z" fill="currentColor"/>
<path d="M19.567 30.3296C19.567 28.6705 19.567 27.2273 19.567 25.7614C20.0244 25.6932 20.4819 25.6932 20.905 25.5682C21.9342 25.2728 22.1858 24.2387 21.351 23.5796C20.8707 23.2046 20.276 22.966 19.6928 22.7387C18.5034 22.2842 17.2683 21.966 16.1133 21.466C14.3979 20.7273 13.1857 19.5001 12.8998 17.5796C12.3737 14.091 13.849 11.4319 17.6915 10.9432C18.1946 10.8751 18.7093 10.8523 19.2696 10.8069C19.2696 12.4092 19.2696 13.9546 19.2696 15.5342C19.018 15.5569 18.755 15.5569 18.492 15.591C17.863 15.6592 17.3941 16.0342 17.2912 16.5455C17.1654 17.1592 17.5314 17.5455 18.0231 17.7501C19.018 18.1592 20.0473 18.4887 21.0537 18.8864C22.0028 19.2614 22.9635 19.6251 23.8555 20.1137C26.0169 21.3069 26.7145 23.2387 26.3943 25.591C26.0855 27.8296 24.7361 29.2387 22.5975 29.841C21.6255 30.1023 20.6191 30.1592 19.567 30.3296Z" fill="currentColor"/>
<path d="M136.272 30.1817C134.934 30.1817 133.665 30.1817 132.349 30.1817C132.349 25.0567 132.349 19.9658 132.349 14.7953C130.931 14.7953 129.559 14.7953 128.152 14.7953C128.152 13.4544 128.152 12.1703 128.152 10.8635C130.863 10.8635 133.55 10.8635 136.283 10.8635C136.272 17.3181 136.272 23.7272 136.272 30.1817Z" fill="currentColor"/>
<path d="M79.5938 10.8523C81.149 10.8523 82.6472 10.8523 84.2025 10.8523C84.2025 17.2955 84.2025 23.7273 84.2025 30.1818C82.6815 30.1818 81.1605 30.1818 79.5938 30.1818C79.5938 23.75 79.5938 17.3296 79.5938 10.8523Z" fill="currentColor"/>
</g>
<defs>
<clipPath id="clip0_915_7363">
<rect width="149" height="41" fill="currentColor"/>
</clipPath>
</defs>
</svg>
