<svg width="175" height="83" viewBox="0 0 175 83" fill="none" xmlns="http://www.w3.org/2000/svg">
<g clip-path="url(#clip0_912_5184)">
<path fill-rule="evenodd" clip-rule="evenodd" d="M151.686 38.6279C165.146 28.3336 174.966 20.2982 174.966 20.2982L150.044 23.9125L147.823 0L133.398 26.3328L112.404 29.3662L125.509 38.5956C107.703 58.8616 78.5632 71.8021 53.0618 80.7411C92.8272 73.0606 121.42 59.3456 138.807 48.0832L154.939 60.0233L151.686 38.6279ZM58.6966 53.1497L56.9257 58.4743C54.865 58.9261 52.0637 59.5393 51.0333 59.7652C48.4574 60.346 43.853 59.4425 46.0425 52.7947C47.7168 47.696 50.7757 38.2407 50.7757 38.2407L58.7288 37.0789C58.7288 37.0789 55.3479 47.2119 54.2854 50.5035C53.3516 53.2788 53.9956 54.0855 56.0563 53.6983C56.7647 53.5369 58.0848 53.2788 58.6966 53.1497ZM29.7822 54.1501L32.3581 46.2438C33.2596 46.1147 33.324 46.0824 34.0646 45.9533C37.5099 45.4047 38.669 46.6633 37.864 49.1159C37.1879 51.1812 35.8033 53.0851 31.6819 53.8596C30.8125 54.021 29.7822 54.1501 29.7822 54.1501ZM34.1934 40.661C32.0039 40.9837 27.4639 41.6291 25.4997 41.9195L17.2891 67.2197L26.1437 65.2512L27.9146 59.9265C28.5908 59.7974 29.9432 59.5715 31.1023 59.3456C41.0517 57.3126 43.9496 53.9887 45.6883 48.5673C47.1373 43.5653 44.1106 39.2088 34.1934 40.661ZM85.9689 33.2065L79.175 53.5692C78.3056 53.7628 68.4528 55.925 65.9735 56.4736C63.623 56.9899 58.3746 56.054 60.4675 49.729C62.0775 44.8884 64.8788 36.2722 64.8788 36.2722L72.6065 35.1427C72.6065 35.1427 69.4832 44.4044 68.4528 47.5023C67.5835 50.1485 68.1308 50.923 69.9984 50.568C71.0287 50.3421 73.2504 49.8258 73.2504 49.8258L78.37 34.3359L85.9689 33.2065ZM99.8788 45.2757C99.0094 47.6637 97.0131 49.6645 91.6359 50.8585C89.6718 51.278 85.9689 52.0848 81.4289 53.0851L83.1998 47.8573C85.1317 47.4701 89.704 46.5665 90.026 46.5019C91.9257 46.1147 92.8916 45.6629 93.117 45.0175C93.278 44.598 93.0204 44.2107 92.4087 44.0171C91.3139 43.6621 90.3157 43.4362 88.577 42.9199C85.7113 42.0486 85.5825 39.3701 86.1299 37.8534C87.6432 33.7228 91.0563 32.4642 94.9524 31.9156C96.2725 31.722 102.809 30.7539 104 30.5925L102.487 35.2718C99.3636 35.7881 95.9183 36.4335 94.405 36.6917C93.5678 36.8208 92.8272 37.2403 92.5697 37.8211C92.3121 38.4343 92.6984 38.757 93.5356 38.9506C93.5356 38.9506 94.2762 39.112 96.2725 39.5638C100.201 40.4028 100.426 43.8235 99.8788 45.2757Z" fill="currentColor"/>
<path fill-rule="evenodd" clip-rule="evenodd" d="M24.0202 8.3257C28.3026 8.03526 34.3238 7.71256 34.3238 7.71256L36.3845 1.5166C36.3845 1.5166 33.39 1.64568 23.7948 2.09747C15.1011 2.51699 8.95119 5.42134 7.30906 10.7137C6.2465 14.1021 8.17842 16.0706 9.91715 16.8129C5.47373 18.4264 1.73868 21.363 0.418533 25.7518C-1.77098 33.1418 4.63656 38.0469 15.8739 36.272C20.6715 35.5621 26.0809 34.6908 26.0809 34.6908L28.367 27.7849C28.367 27.7849 20.6715 28.7207 17.1941 29.108C10.6255 29.8502 8.88679 28.3012 9.75616 25.2355C10.4645 22.7184 13.8132 21.1049 17.8058 20.6853C20.0597 20.4594 25.7267 19.9431 25.7267 19.9431L27.7552 13.7149C27.7552 13.7149 23.3762 14.0376 19.0616 14.3926C16.7111 14.6185 15.3587 13.489 15.8417 11.8755C16.4213 9.9715 18.5786 8.71295 24.0202 8.3257ZM119.264 42.4035C76.7939 65.9287 7.69544 82.9999 7.69544 82.9999C7.69544 82.9999 49.5538 79.1597 87.2263 62.3467C104.453 54.634 114.692 46.2759 119.264 42.4035ZM123.74 17.7487C124.77 17.6519 125.446 17.5551 125.446 17.5551L128.376 8.45478C128.376 8.45478 127.603 8.48705 126.541 8.58386C124.126 8.77749 122.323 11.4559 121.808 13.134C120.488 17.1678 122.709 17.8455 123.74 17.7487ZM135.75 3.67873L129.954 21.2662C129.246 21.363 124.351 22.073 122.387 22.3311C117.364 22.9766 113.887 18.8136 115.819 12.9727C116.881 9.74561 119.94 4.77593 126.348 4.32414C130.566 4.03371 135.75 3.67873 135.75 3.67873ZM103.229 16.2643L105.29 10.0038C105.902 9.93923 106.095 9.9715 106.61 9.93923C108.993 9.74561 109.765 10.8751 109.121 12.8436C108.574 14.4894 107.447 15.877 104.581 16.1675C104.002 16.1997 104.002 16.1997 103.229 16.2643ZM107.866 5.61497C106.352 5.71178 101.651 6.03449 100.331 6.1313L93.8592 25.9132L100.396 25.1064L101.78 20.8144C102.231 20.7499 102.939 20.6853 104.131 20.5563C110.442 19.814 113.5 16.6192 114.756 12.6822C116.141 8.26116 114.531 5.16318 107.866 5.61497ZM85.7773 21.2662C84.8758 22.2989 83.8454 22.8797 82.7184 23.0411C81.5593 23.1702 80.8831 22.8152 80.6255 21.9116C80.4001 21.008 80.6255 19.5881 81.3017 17.6842C82.6862 13.844 84.5216 11.8109 86.8077 11.585C89.0616 11.3914 89.5124 13.1663 88.16 16.9097C87.4838 18.7814 86.6789 20.2336 85.7773 21.2662ZM96.1131 12.2304C96.1453 13.4567 95.9199 14.8121 95.4369 16.2643C94.9539 17.7487 94.2778 19.1364 93.4084 20.4594C92.5391 21.7825 91.5087 22.9766 90.3173 24.0092C89.126 25.0419 87.7736 25.9132 86.2925 26.6231C84.7792 27.3331 83.1692 27.7849 81.4627 28.0108C79.724 28.2367 78.2428 28.1721 77.0193 27.8171C75.7957 27.4299 74.862 26.849 74.218 25.9777C73.574 25.1387 73.2198 24.0415 73.1232 22.7507C73.0588 21.4598 73.252 20.0077 73.7672 18.4587C74.2824 16.8774 75.0229 15.393 75.9567 14.0053C76.8905 12.6177 78.0174 11.3914 79.2732 10.3587C80.5289 9.32609 81.9457 8.45478 83.5234 7.80937C85.0689 7.16396 86.7111 6.77671 88.4176 6.64763C90.0919 6.51855 91.5087 6.71217 92.6357 7.13169C93.7626 7.58348 94.5998 8.22889 95.1471 9.10019C95.7911 9.9715 96.0809 11.0042 96.1131 12.2304ZM76.7617 7.87391C75.5059 7.97072 74.218 8.00299 72.4148 8.13208C66.8445 8.51932 61.3707 11.585 59.0524 18.7814L55.1563 30.8183L63.3348 29.7857L66.9089 18.7491C68.3578 14.3926 70.5151 13.844 74.9585 13.3922L76.7617 7.87391ZM52.3873 31.1733C51.2603 31.3024 40.3771 32.7223 37.1895 33.1095C34.1628 33.4968 28.7212 32.1737 30.9107 25.3646C32.585 20.1367 35.6439 10.6815 35.6439 10.6815L44.241 10.1006C44.241 10.1006 40.9889 20.1367 39.8942 23.4929C38.9604 26.3327 39.7654 27.2685 42.1803 26.9781C43.5326 26.8168 45.7221 26.5263 45.7221 26.5263L51.1637 9.55198L59.5354 8.97111L52.3873 31.1733Z" fill="currentColor"/>
<path fill-rule="evenodd" clip-rule="evenodd" d="M146.696 9.00342C147.243 15.0058 148.403 26.7523 148.403 26.7523L166.176 24.1706C162.184 27.3331 148.918 37.7243 148.918 37.7243L151.944 53.0205C151.944 53.0205 144.345 41.2095 139.838 44.1461C138.518 44.9851 126.185 54.2468 107.961 61.0882C140.224 42.4035 144.603 22.912 146.696 9.00342Z" fill="currentColor"/>
<path fill-rule="evenodd" clip-rule="evenodd" d="M17.3239 30.2699C16.1969 30.399 15.1988 30.4636 14.3294 30.4636C11.6891 30.4636 9.98256 29.8827 9.081 28.6887C8.37263 27.7528 8.21163 26.4943 8.66241 24.9453C8.9844 23.7513 9.82157 22.6863 10.9807 21.8473C10.2402 22.2023 8.50142 23.3317 7.82525 25.3325C6.24751 30.0118 10.9807 32.1094 17.3239 30.2699ZM19.0304 15.5223C18.7084 15.5545 18.483 15.5545 18.4508 15.5545C16.9697 15.5545 15.7783 15.0705 15.1022 14.1669C14.5548 13.4247 14.426 12.4888 14.7158 11.553C15.0056 10.6494 15.5207 9.90717 16.2935 9.29403C15.9071 9.42311 14.5226 10.1331 13.8786 11.8111C13.5244 12.747 13.621 13.6183 14.1362 14.3928C14.7802 15.2964 16.3579 16.0709 19.0304 15.5223ZM57.8942 10.2944L51.5189 30.1408C51.3257 30.1731 50.8105 30.2377 50.5529 30.2699L57.8942 10.2944ZM94.2788 9.74582C94.7296 10.4235 94.955 11.2303 94.9872 12.2629C95.0194 13.3601 94.8262 14.5864 94.3754 15.9095C93.9246 17.2649 93.2806 18.588 92.4757 19.8143C94.1822 16.1677 94.3754 13.6828 94.3432 12.5856C94.311 11.553 94.0856 10.7139 93.6348 10.0685C92.4757 8.32591 90.254 8.00321 88.5796 7.84185C88.9016 7.80958 89.2236 7.80958 89.5134 7.80958C90.6081 7.80958 91.5419 7.97094 92.3147 8.26137C93.184 8.58408 93.828 9.06814 94.2788 9.74582ZM69.2282 13.6183C67.747 14.4573 66.6523 15.8772 65.8151 18.3943L62.4665 28.7209L61.7903 28.8177L65.0424 18.7816C66.0083 15.845 67.3607 14.3928 69.2282 13.6183ZM99.8814 20.8469L98.8188 24.1708H98.9476L99.5272 24.1062L100.558 20.9437C100.268 20.9437 100.042 20.9115 99.8814 20.8469ZM134.109 4.9375L129.086 20.2015L128.377 20.2983L134.109 4.9375ZM113.534 8.19683C114.339 9.3263 114.017 11.0689 113.63 12.3275C113.759 10.4558 114.178 6.97055 107.931 6.77692C108.35 6.74465 108.736 6.74465 109.122 6.74465C110.668 6.74465 112.664 7.00282 113.534 8.19683ZM100.815 18.0071L104.067 10.1331L102.167 15.9418L101.62 17.6198C101.62 17.6198 102.876 17.523 103.391 17.4262C102.264 17.8135 100.815 18.0071 100.815 18.0071ZM80.208 17.2971C79.4352 19.4593 79.2098 21.0405 79.4996 22.2023C79.8216 23.4931 80.8197 24.2353 82.2365 24.2353C82.4297 24.2353 82.6228 24.2353 82.8482 24.2031C83.3312 24.1385 83.782 24.0094 84.2006 23.8481C83.5244 24.2676 82.4619 24.6226 81.6569 24.6226C80.2402 24.6226 79.242 23.8803 78.92 22.5895C78.6624 21.3955 78.7912 19.3302 80.208 17.2971ZM42.2779 28.1723C41.9559 28.2046 41.6661 28.2369 41.4085 28.2369C40.2172 28.2369 39.3478 27.8819 38.8326 27.1719C37.9954 26.0102 38.3818 24.3644 38.7682 23.2027C39.5732 20.6856 41.6017 14.3928 42.5999 11.4239C42.5999 11.4239 38.8004 21.0728 37.9954 23.6222C37.6091 24.7839 37.2227 26.4297 38.0598 27.5915C38.575 28.3014 39.4444 28.6564 40.6357 28.6564C40.8611 28.6241 41.6339 28.5273 42.2779 28.1723ZM148.92 37.7244L151.947 53.0207L147.954 39.9188C147.954 39.9511 147.6 38.8862 148.92 37.7244ZM147.02 28.1401C147.02 28.1401 165.728 24.5258 166.146 24.1708L148.373 26.7524C148.373 26.7524 147.213 15.0382 146.666 9.0036C146.473 10.5526 147.02 28.1401 147.02 28.1401ZM77.4389 52.7625C77.6964 52.698 78.115 52.6335 78.3082 52.5689L84.2972 34.5942L77.4389 52.7625ZM96.0819 40.6933C94.0534 40.2415 93.3128 40.0802 93.2806 40.0802C92.7011 39.9188 91.9283 39.6607 91.5741 38.9184C91.4131 38.5957 91.2843 38.0794 91.5741 37.4017C91.7673 36.9177 92.1215 36.5304 92.6045 36.2077C92.0249 36.4982 91.4775 36.9822 91.2199 37.6922C90.9301 38.3699 91.0589 38.8862 91.2199 39.2089C91.7029 40.2093 92.7654 40.4997 95.3092 41.1451C96.5005 41.4356 97.6275 41.8551 98.1104 42.6941C98.6256 43.6622 98.5612 44.7272 98.368 45.2435C97.9816 46.2761 96.9835 47.567 95.116 48.5996C97.5953 47.4702 98.4324 46.1148 98.851 44.9208C99.0442 44.4044 99.1086 43.3395 98.5934 42.3714C98.1104 41.5001 97.2733 40.9515 96.0819 40.6933ZM55.2217 54.9569C54.0948 54.9569 53.5152 54.4729 53.2254 54.0534C52.4527 52.9884 52.839 51.4072 53.2576 50.1486C54.0626 47.7283 56.0911 41.5646 57.1215 38.4989C57.1215 38.4989 53.2576 48.1156 52.4527 50.5359C52.0341 51.7944 51.6477 53.3757 52.4205 54.4406C52.7103 54.8601 53.322 55.3442 54.4168 55.3442C54.7388 55.3442 55.1252 55.3119 55.5437 55.2151C56.3809 55.0215 56.9927 54.6988 56.9927 54.6988C56.7673 54.7633 56.5419 54.7956 56.3487 54.8279C55.8979 54.8924 55.5437 54.9569 55.2217 54.9569ZM66.5879 47.5024C65.9761 49.3419 65.9439 50.4713 66.5557 51.2781C66.8455 51.6653 67.3929 52.1494 68.4554 52.1494C68.7452 52.1494 69.5502 52.0526 70.2585 51.6331C69.8722 51.6976 69.5502 51.7299 69.2604 51.7299C68.1978 51.7299 67.6505 51.2458 67.3607 50.8586C66.7811 50.0518 66.7811 48.9223 67.3929 47.0506C68.1334 44.7917 69.9688 39.3057 70.9347 36.4659C70.9025 36.5304 67.3285 45.2435 66.5879 47.5024ZM31.0727 46.373L27.0801 56.151C27.0801 56.151 29.978 55.3119 29.9458 55.3119L28.1426 55.5378L28.69 53.8275L31.0727 46.373ZM37.7701 41.5324C40.5391 42.0164 42.2135 42.6941 43.3082 44.1463C44.3708 45.5662 44.5318 47.9219 42.793 52.1171C43.5658 50.9877 44.1454 49.6968 44.5962 48.2447C44.9504 46.9861 45.1436 45.1789 44.081 43.759C43.0184 42.2746 40.8289 41.5324 37.7701 41.5324ZM26.6615 60.0234L25.2769 64.2509L24.4076 64.4445L25.8243 59.9266C26.1141 60.0234 26.4039 60.0557 26.6615 60.0234Z" fill="currentColor"/>
</g>
<defs>
<clipPath id="clip0_912_5184">
<rect width="175" height="83" fill="currentColor"/>
</clipPath>
</defs>
</svg>
