<svg width="23" height="19" viewBox="0 0 23 19" fill="none" xmlns="http://www.w3.org/2000/svg">
<path d="M0.668483 11.8795C0.231069 11.1508 0 10.3169 0 9.46704C0 8.61714 0.231069 7.78323 0.668483 7.05454C0.80291 6.83018 0.982787 6.63644 1.19655 6.48574C1.41032 6.33505 1.65325 6.23075 1.90973 6.17954L4.02598 5.75579C4.15219 5.7308 4.26602 5.66329 4.34848 5.56454L6.93348 2.46079C8.41098 0.685788 9.15098 -0.200462 9.80973 0.0382881C10.4685 0.277038 10.471 1.43204 10.471 3.74204V15.1945C10.471 17.5033 10.471 18.657 9.81098 18.897C9.15223 19.1345 8.41223 18.2483 6.93473 16.4745L4.34598 13.3695C4.26384 13.271 4.15049 13.2035 4.02473 13.1783L1.90848 12.7545C1.652 12.7033 1.40907 12.599 1.1953 12.4483C0.981537 12.2976 0.80291 12.1039 0.668483 11.8795Z" fill="currentColor"/>
<path d="M13.6406 5.047C14.8069 6.21324 15.4649 7.79322 15.4712 9.44255C15.4776 11.0919 14.8317 12.6769 13.6744 13.852M18.7919 2.39575C20.6579 4.26158 21.7108 6.78936 21.7211 9.42817C21.7314 12.067 20.6983 14.6029 18.8469 16.4833" stroke="currentColor" stroke-width="2" stroke-linecap="round"/>
</svg>
