<svg width="186" height="62" viewBox="0 0 186 62" fill="none" xmlns="http://www.w3.org/2000/svg">
<path d="M118.492 20.6035C119.147 20.557 119.522 18.8828 118.585 18.8363C118.585 18.8363 117.977 19.0688 117.649 19.5339C117.321 19.9989 117.789 20.6035 118.492 20.6035Z" fill="#555553"/>
<path d="M138.584 14.0464C138.584 14.0464 139.286 13.5349 138.865 12.7908C138.397 12.0467 134.416 6.93126 125.985 6.74524C125.892 6.74524 125.845 6.74524 125.751 6.74524C125.658 6.74524 125.611 6.74524 125.517 6.74524C117.134 6.93126 113.106 12.0932 112.638 12.7908C112.169 13.5349 112.919 14.0464 112.919 14.0464C111.373 17.1157 113.34 19.3014 113.34 19.3014C112.919 23.4402 117.134 24.8354 117.134 24.8354C116.056 22.7892 117.04 21.5801 117.04 21.5801C117.04 21.5801 116.384 21.208 116.384 19.6734C116.384 18.0923 117.883 17.6272 118.82 17.6272C119.756 17.6272 121.255 18.1853 121.255 19.9989C121.255 21.8126 119.85 22.4172 119.007 22.4172C118.164 22.4172 117.649 21.9056 117.649 21.9056C117.649 21.9056 117.04 23.7193 117.743 24.2308C118.445 24.7424 119.382 24.2308 121.442 23.0217C123.41 21.8126 125.658 22.0451 125.751 22.0451C125.845 22.0451 128.093 21.8126 130.06 23.0217C132.074 24.2308 133.057 24.7424 133.76 24.2308C134.462 23.7193 133.854 21.9056 133.854 21.9056C133.854 21.9056 133.338 22.4172 132.495 22.4172C131.652 22.4172 130.247 21.8126 130.247 19.9989C130.247 18.1853 131.746 17.6272 132.683 17.6272C133.619 17.6272 135.118 18.0923 135.118 19.6734C135.118 21.2545 134.462 21.5801 134.462 21.5801C134.462 21.5801 135.446 22.7892 134.369 24.8354C134.369 24.8354 138.584 23.4402 138.162 19.3014C138.162 19.3014 140.129 17.1622 138.584 14.0464ZM134.743 15.395C132.589 15.2555 132.027 17.0227 132.027 17.0227C132.027 17.0227 129.638 16.7436 128.468 18.3248C128.468 18.3248 127.765 17.9062 125.751 17.9062C123.737 17.9062 123.035 18.3248 123.035 18.3248C121.864 16.6971 119.475 17.0227 119.475 17.0227C119.475 17.0227 118.913 15.2555 116.759 15.395C114.605 15.5345 113.621 18.6038 113.621 18.6038C112.263 16.7436 113.293 14.4649 113.293 14.4649C114.089 14.7905 114.464 14.2789 114.464 14.2789C118.305 9.44248 123.831 9.11695 125.47 9.11695C125.47 9.11695 125.564 9.11695 125.704 9.11695C125.845 9.11695 125.939 9.11695 125.939 9.11695C127.578 9.11695 133.104 9.44248 136.945 14.2789C136.945 14.2789 137.366 14.7905 138.116 14.4649C138.116 14.4649 139.193 16.7436 137.788 18.6038C137.881 18.6503 136.898 15.5345 134.743 15.395Z" fill="#555553"/>
<path d="M132.964 18.7898C132.027 18.8363 132.355 20.557 133.057 20.557C133.713 20.6035 134.228 19.9524 133.9 19.4874C133.572 19.0223 132.964 18.7898 132.964 18.7898Z" fill="#555553"/>
<path d="M119.007 25.3934C119.007 25.3934 120.365 24.9284 121.396 24.1378C122.426 23.3472 124.253 22.9287 126.079 22.9752C127.859 23.0217 129.685 24.3703 130.809 24.7888C131.933 25.2074 132.73 25.4399 133.619 25.2539C133.619 25.2539 133.292 27.1606 132.121 28.6487C130.95 30.1368 129.92 30.5089 129.685 30.6019C129.404 30.6949 129.076 31.6715 129.685 31.997C130.294 32.3225 130.997 31.5785 131.231 31.0204C131.418 30.4624 132.402 29.9508 132.73 30.3228C133.057 30.6949 132.589 32.3225 132.73 32.7876C132.87 33.2526 134.041 33.2991 134.228 32.7876C134.416 32.276 133.947 31.904 133.854 31.532C133.76 31.1599 133.76 29.6253 134.509 29.7183C135.259 29.8578 135.493 31.0204 136.383 30.7414C137.273 30.4624 137.179 29.0207 136.195 29.0207C135.212 29.0207 134.228 28.6022 134.603 27.4396C134.65 27.3466 134.697 27.2536 134.79 27.1141C136.757 24.1843 141.347 26.4165 140.317 29.8113C139.521 32.5085 137.928 35.4848 134.884 37.9495C126.735 44.6461 117.883 40.3677 117.883 40.3677C117.883 40.3677 114.511 38.0425 115.213 34.8337C115.916 31.625 120.506 32.369 120.787 35.6243C121.068 38.8331 119.944 38.182 120.412 39.6237C120.412 39.6237 121.723 40.2747 121.817 39.1586C121.911 38.089 121.442 37.2055 122.192 36.8799C122.941 36.5544 123.644 37.1125 123.878 37.81C124.112 38.5076 125.423 38.9726 125.704 38.1355C125.985 37.345 123.363 36.6939 123.597 35.6708C123.831 34.6477 125.283 34.8337 125.939 34.7407C126.594 34.6477 126.735 33.0666 125.798 33.1596C124.861 33.2526 124.299 34.6477 122.567 34.1827C120.834 33.7176 119.616 32.09 119.663 30.2763C119.663 28.3697 119.944 26.0445 119.007 25.3934Z" fill="#555553"/>
<path d="M118.726 39.8562L100.414 56.6442L102.334 59.0624C102.334 59.0624 131.746 49.7616 150.527 33.2526C169.308 16.7436 166.263 4.83856 159.988 7.25677C153.712 9.67499 143.174 19.2084 143.174 19.2084C143.174 19.2084 147.483 39.3447 124.815 41.3909C124.815 41.3909 134.369 39.3447 138.537 33.1596C142.518 27.2536 140.598 20.9755 140.598 20.9755L134.978 26.6955C134.978 26.6955 136.383 27.9511 136.992 28.1372C137.601 28.3232 138.444 30.0903 137.929 31.625C137.413 33.1596 130.95 38.3681 128.14 39.1586C125.283 39.9957 122.005 41.1118 118.726 39.8562Z" fill="#555553"/>
<path d="M106.549 59.3415C106.549 59.3415 123.316 57.0628 150.386 38.0891C173.288 21.9986 173.382 6.55925 172.913 2.18786C172.82 1.44379 173.288 0.746228 173.991 0.513707C175.068 0.141673 176.473 -0.183856 176.754 0.281186C177.175 1.02525 179.892 41.0189 106.549 59.3415Z" fill="#555553"/>
<path d="M115.541 58.9694C115.541 58.9694 159.425 51.4357 177.69 26.0445C178.674 24.6493 177.128 22.7892 175.63 23.6262C175.349 23.7658 175.021 23.9983 174.693 24.3238C172.023 26.8815 161.252 46.2273 115.541 58.9694Z" fill="#555553"/>
<path d="M129.639 56.7373C129.639 56.7373 159.144 54.4121 173.007 40.1818C173.476 39.6702 173.476 38.9262 172.961 38.4611C172.445 37.9961 171.649 38.0426 171.181 38.6006C168.792 41.6234 159.519 50.4127 129.639 56.7373Z" fill="#555553"/>
<path d="M17.0951 43.9951V44.8322H14.9876V49.2036H14.1445V43.9951H17.0951Z" fill="#555553"/>
<path d="M20.513 43.9951C21.0282 43.9951 21.4028 44.1811 21.7307 44.5067C22.0585 44.8322 22.2459 45.2507 22.2459 45.7158C22.2459 46.1808 22.0585 46.5994 21.7307 46.9249C21.4028 47.2504 20.9813 47.4364 20.513 47.4364H19.4358V49.2036H18.5928V43.9951H20.513ZM20.513 46.6459C20.7472 46.6459 20.9813 46.5528 21.1218 46.3668C21.3092 46.1808 21.356 45.9948 21.356 45.7158C21.356 45.4367 21.2623 45.2507 21.1218 45.0647C20.9345 44.8787 20.7472 44.7857 20.513 44.7857H19.4358V46.5994H20.513V46.6459Z" fill="#555553"/>
<path d="M26.6017 43.9951H27.4915L25.8523 47.855C25.4308 48.7851 24.8219 49.2501 23.9321 49.2036V48.413C24.2131 48.4595 24.4473 48.413 24.6346 48.2735C24.8219 48.134 24.9625 47.948 25.0561 47.6689L23.3232 43.9951H24.2131L25.4776 46.7389L26.6017 43.9951Z" fill="#555553"/>
<path d="M32.7838 43.9951V49.2036H31.9408V44.8322H29.7864V49.2036H28.9434V43.9951H32.7838Z" fill="#555553"/>
<path d="M38.5455 43.9951V49.2036H37.7024V44.8322H35.5481V49.2036H34.6582V43.9951H38.5455Z" fill="#555553"/>
<path d="M43.8374 49.2036L43.4627 48.134H41.2147L40.84 49.2036H39.9033L41.8235 43.9951H42.8539L44.7273 49.2036H43.8374ZM41.5425 47.3899H43.2286L42.3856 45.0182L41.5425 47.3899Z" fill="#555553"/>
<path d="M52.8765 49.2036H51.8461L49.7854 46.7389V49.2036H48.9424V43.9951H49.7854V46.3203L51.7993 43.9951H52.8297L50.7221 46.5528L52.8765 49.2036Z" fill="#555553"/>
<path d="M58.2157 48.5525C57.7005 49.0641 57.0449 49.3431 56.2955 49.3431C55.5461 49.3431 54.8905 49.0641 54.3753 48.5525C53.8601 48.041 53.5791 47.3899 53.5791 46.6459C53.5791 45.9018 53.8601 45.2507 54.3753 44.7392C54.8905 44.2276 55.5461 43.9486 56.2955 43.9486C57.0449 43.9486 57.7005 44.2276 58.2157 44.7392C58.7309 45.2507 59.0119 45.9018 59.0119 46.6459C59.0119 47.3899 58.7777 47.9945 58.2157 48.5525ZM54.9841 47.948C55.3588 48.32 55.7803 48.4595 56.2955 48.4595C56.8107 48.4595 57.279 48.2735 57.6069 47.948C57.9347 47.6224 58.122 47.1574 58.122 46.5993C58.122 46.0413 57.9347 45.6228 57.6069 45.2507C57.279 44.8787 56.8107 44.7392 56.2955 44.7392C55.7803 44.7392 55.312 44.9252 54.9841 45.2507C54.6563 45.5763 54.469 46.0413 54.469 46.5993C54.469 47.1574 54.6095 47.5759 54.9841 47.948Z" fill="#555553"/>
<path d="M65.7086 43.9951V49.2036H64.8656V45.4833L63.2732 48.0875H63.1795L61.5872 45.4833V49.2036H60.7441V43.9951H61.6808L63.2732 46.5994L64.8656 43.9951H65.7086Z" fill="#555553"/>
<path d="M71.4693 43.9951V49.2036H70.6263V44.8322H68.4719V49.2036H67.6289V43.9951H71.4693Z" fill="#555553"/>
<path d="M76.7612 49.2036L76.3866 48.134H74.1385L73.7638 49.2036H72.8271L74.7474 43.9951H75.7777L77.6511 49.2036H76.7612ZM74.4664 47.3899H76.1524L75.3094 45.0182L74.4664 47.3899Z" fill="#555553"/>
<path d="M82.2415 43.9951H83.0845V49.2036H82.2415V46.9714H79.9934V49.2036H79.1504V43.9951H79.9934V46.1343H82.2415V43.9951Z" fill="#555553"/>
<path d="M88.1428 49.2036V45.6693L85.6606 49.2036H85.0049V43.9951H85.8479V47.5294L88.3301 43.9951H88.9858V49.2036H88.1428Z" fill="#555553"/>
<path d="M94.0442 49.2036V45.6693L91.5619 49.2036H90.9062V43.9951H91.7493V47.5294L94.2315 43.9951H94.8872V49.2036H94.0442ZM91.8429 43.4836V42.786H93.9505V43.4836H91.8429Z" fill="#555553"/>
<path d="M16.7199 22.0452V38.3216H12.5517V29.5788L8.57072 36.0894H8.14921L4.21511 29.5788V38.3216H0V22.0452H4.21511L8.38338 29.0208L12.5517 22.0452H16.7199Z" fill="#555553"/>
<path d="M24.5872 34.4153H30.9099V38.3216H20.4189V22.0452H30.8162V25.905H24.5872V28.1837H30.2074V31.9971H24.5872V34.4153Z" fill="#555553"/>
<path d="M40.6993 22.0452C42.9474 22.0452 44.8676 22.8357 46.3663 24.3704C47.865 25.905 48.6612 27.8582 48.6612 30.1834C48.6612 32.5086 47.9118 34.4153 46.3663 35.9964C44.8676 37.5776 42.9474 38.3216 40.6993 38.3216H34.0488V22.0452H40.6993ZM40.6993 34.2758C41.8234 34.2758 42.7601 33.9037 43.5094 33.1597C44.2119 32.4156 44.5866 31.3925 44.5866 30.1834C44.5866 28.9278 44.2119 27.9512 43.5094 27.2071C42.8069 26.4631 41.8702 26.091 40.6993 26.091H38.3576V34.3223H40.6993V34.2758Z" fill="#555553"/>
<path d="M51.7051 22.0452H55.9202V38.3216H51.7051V22.0452Z" fill="#555553"/>
<path d="M69.5956 38.3216L68.8931 35.9964H63.4134L62.7109 38.3216H58.168L63.5539 22.0452H68.6589L74.0917 38.3216H69.5956ZM64.4906 32.3691H67.769L66.1298 26.8351L64.4906 32.3691Z" fill="#555553"/>
<path d="M79.4788 38.3216L74.1865 22.0452H78.7763L81.9611 33.2527L85.1926 22.0452H89.7824L84.4901 38.3216H79.4788Z" fill="#555553"/>
<path d="M92.123 22.0452H96.3382V38.3216H92.123V22.0452Z" fill="#555553"/>
<path d="M104.207 34.2758H109.827V38.3216H99.9922V22.0452H104.207V34.2758Z" fill="#555553"/>
<path d="M92.1699 19.72H96.2445L94.2306 15.9066L92.1699 19.72Z" fill="#555553"/>
</svg>
