<svg width="186" height="62" viewBox="0 0 186 62" fill="none" xmlns="http://www.w3.org/2000/svg">
<path d="M118.489 20.6036C119.145 20.5571 119.519 18.8829 118.583 18.8364C118.583 18.8364 117.974 19.0689 117.646 19.534C117.318 19.999 117.786 20.6036 118.489 20.6036Z" fill="currentColor"/>
<path d="M138.582 14.0465C138.582 14.0465 139.284 13.535 138.863 12.7909C138.395 12.0468 134.414 6.93138 125.983 6.74536C125.89 6.74536 125.843 6.74536 125.749 6.74536C125.656 6.74536 125.609 6.74536 125.515 6.74536C117.132 6.93138 113.104 12.0933 112.636 12.7909C112.167 13.535 112.917 14.0465 112.917 14.0465C111.371 17.1158 113.338 19.3015 113.338 19.3015C112.917 23.4404 117.132 24.8355 117.132 24.8355C116.055 22.7893 117.038 21.5802 117.038 21.5802C117.038 21.5802 116.382 21.2082 116.382 19.6735C116.382 18.0924 117.881 17.6273 118.818 17.6273C119.754 17.6273 121.253 18.1854 121.253 19.9991C121.253 21.8127 119.848 22.4173 119.005 22.4173C118.162 22.4173 117.647 21.9057 117.647 21.9057C117.647 21.9057 117.038 23.7194 117.741 24.2309C118.443 24.7425 119.38 24.2309 121.441 23.0218C123.408 21.8127 125.656 22.0452 125.749 22.0452C125.843 22.0452 128.091 21.8127 130.058 23.0218C132.072 24.2309 133.055 24.7425 133.758 24.2309C134.461 23.7194 133.852 21.9057 133.852 21.9057C133.852 21.9057 133.336 22.4173 132.493 22.4173C131.65 22.4173 130.245 21.8127 130.245 19.9991C130.245 18.1854 131.744 17.6273 132.681 17.6273C133.617 17.6273 135.116 18.0924 135.116 19.6735C135.116 21.2547 134.461 21.5802 134.461 21.5802C134.461 21.5802 135.444 22.7893 134.367 24.8355C134.367 24.8355 138.582 23.4404 138.16 19.3015C138.16 19.3015 140.127 17.1623 138.582 14.0465ZM134.742 15.3951C132.587 15.2556 132.025 17.0228 132.025 17.0228C132.025 17.0228 129.637 16.7438 128.466 18.3249C128.466 18.3249 127.763 17.9064 125.749 17.9064C123.735 17.9064 123.033 18.3249 123.033 18.3249C121.862 16.6973 119.473 17.0228 119.473 17.0228C119.473 17.0228 118.911 15.2556 116.757 15.3951C114.603 15.5347 113.619 18.6039 113.619 18.6039C112.261 16.7438 113.291 14.4651 113.291 14.4651C114.087 14.7906 114.462 14.279 114.462 14.279C118.303 9.44261 123.829 9.11708 125.468 9.11708C125.468 9.11708 125.562 9.11708 125.702 9.11708C125.843 9.11708 125.937 9.11708 125.937 9.11708C127.576 9.11708 133.102 9.44261 136.943 14.279C136.943 14.279 137.364 14.7906 138.114 14.4651C138.114 14.4651 139.191 16.7438 137.786 18.6039C137.879 18.6504 136.896 15.5347 134.742 15.3951Z" fill="currentColor"/>
<path d="M132.961 18.79C132.024 18.8365 132.352 20.5572 133.054 20.5572C133.71 20.6037 134.225 19.9526 133.897 19.4876C133.569 19.0226 132.961 18.79 132.961 18.79Z" fill="currentColor"/>
<path d="M119.007 25.3934C119.007 25.3934 120.365 24.9284 121.396 24.1378C122.426 23.3472 124.253 22.9287 126.079 22.9752C127.859 23.0217 129.685 24.3703 130.809 24.7888C131.933 25.2074 132.73 25.4399 133.619 25.2539C133.619 25.2539 133.292 27.1606 132.121 28.6487C130.95 30.1368 129.92 30.5089 129.685 30.6019C129.404 30.6949 129.076 31.6715 129.685 31.997C130.294 32.3225 130.997 31.5785 131.231 31.0204C131.418 30.4624 132.402 29.9508 132.73 30.3228C133.057 30.6949 132.589 32.3225 132.73 32.7876C132.87 33.2526 134.041 33.2991 134.228 32.7876C134.416 32.276 133.947 31.904 133.854 31.532C133.76 31.1599 133.76 29.6253 134.509 29.7183C135.259 29.8578 135.493 31.0204 136.383 30.7414C137.273 30.4624 137.179 29.0207 136.195 29.0207C135.212 29.0207 134.228 28.6022 134.603 27.4396C134.65 27.3466 134.697 27.2536 134.79 27.1141C136.757 24.1843 141.347 26.4165 140.317 29.8113C139.521 32.5085 137.928 35.4848 134.884 37.9495C126.735 44.6461 117.883 40.3677 117.883 40.3677C117.883 40.3677 114.511 38.0425 115.213 34.8337C115.916 31.625 120.506 32.369 120.787 35.6243C121.068 38.8331 119.944 38.182 120.412 39.6237C120.412 39.6237 121.723 40.2747 121.817 39.1586C121.911 38.089 121.442 37.2055 122.192 36.8799C122.941 36.5544 123.644 37.1125 123.878 37.81C124.112 38.5076 125.423 38.9726 125.704 38.1355C125.985 37.345 123.363 36.6939 123.597 35.6708C123.831 34.6477 125.283 34.8337 125.939 34.7407C126.594 34.6477 126.735 33.0666 125.798 33.1596C124.861 33.2526 124.299 34.6477 122.567 34.1827C120.834 33.7176 119.616 32.09 119.663 30.2763C119.663 28.3697 119.944 26.0445 119.007 25.3934Z" fill="currentColor"/>
<path d="M118.726 39.8563L100.414 56.6443L102.334 59.0626C102.334 59.0626 131.746 49.7617 150.527 33.2527C169.308 16.7438 166.263 4.83868 159.988 7.2569C153.712 9.67511 143.174 19.2085 143.174 19.2085C143.174 19.2085 147.483 39.3448 124.815 41.391C124.815 41.391 134.369 39.3448 138.537 33.1597C142.518 27.2537 140.598 20.9756 140.598 20.9756L134.978 26.6956C134.978 26.6956 136.383 27.9513 136.992 28.1373C137.601 28.3233 138.444 30.0905 137.929 31.6251C137.413 33.1597 130.95 38.3682 128.14 39.1588C125.283 39.9958 122.005 41.1119 118.726 39.8563Z" fill="currentColor"/>
<path d="M106.547 59.3415C106.547 59.3415 123.314 57.0628 150.384 38.0891C173.286 21.9986 173.38 6.55925 172.911 2.18786C172.818 1.44379 173.286 0.746228 173.989 0.513707C175.066 0.141673 176.471 -0.183856 176.752 0.281186C177.173 1.02525 179.89 41.0189 106.547 59.3415Z" fill="currentColor"/>
<path d="M115.543 58.9696C115.543 58.9696 159.427 51.4359 177.692 26.0446C178.676 24.6495 177.13 22.7893 175.632 23.6264C175.351 23.7659 175.023 23.9984 174.695 24.3239C172.025 26.8817 161.253 46.2274 115.543 58.9696Z" fill="currentColor"/>
<path d="M129.637 56.7373C129.637 56.7373 159.142 54.4121 173.005 40.1818C173.474 39.6702 173.474 38.9262 172.959 38.4611C172.443 37.9961 171.647 38.0426 171.179 38.6006C168.79 41.6234 159.517 50.4127 129.637 56.7373Z" fill="currentColor"/>
<path d="M17.0951 43.9951V44.8322H14.9876V49.2036H14.1445V43.9951H17.0951Z" fill="currentColor"/>
<path d="M20.514 43.9951C21.0291 43.9951 21.4038 44.1811 21.7317 44.5067C22.0595 44.8322 22.2468 45.2507 22.2468 45.7158C22.2468 46.1808 22.0595 46.5994 21.7317 46.9249C21.4038 47.2504 20.9823 47.4364 20.514 47.4364H19.4368V49.2036H18.5938V43.9951H20.514ZM20.514 46.6459C20.7481 46.6459 20.9823 46.5528 21.1228 46.3668C21.3102 46.1808 21.357 45.9948 21.357 45.7158C21.357 45.4367 21.2633 45.2507 21.1228 45.0647C20.9355 44.8787 20.7481 44.7857 20.514 44.7857H19.4368V46.5994H20.514V46.6459Z" fill="currentColor"/>
<path d="M26.6026 43.9951H27.4925L25.8533 47.855C25.4318 48.7851 24.8229 49.2501 23.9331 49.2036V48.413C24.2141 48.4595 24.4482 48.413 24.6356 48.2735C24.8229 48.134 24.9634 47.948 25.0571 47.6689L23.3242 43.9951H24.2141L25.4786 46.7389L26.6026 43.9951Z" fill="currentColor"/>
<path d="M32.7857 43.9951V49.2036H31.9427V44.8322H29.7883V49.2036H28.9453V43.9951H32.7857Z" fill="currentColor"/>
<path d="M38.5435 43.9951V49.2036H37.7005V44.8322H35.5461V49.2036H34.6562V43.9951H38.5435Z" fill="currentColor"/>
<path d="M43.8364 49.2036L43.4618 48.134H41.2137L40.839 49.2036H39.9023L41.8226 43.9951H42.8529L44.7263 49.2036H43.8364ZM41.5416 47.3899H43.2276L42.3846 45.0182L41.5416 47.3899Z" fill="currentColor"/>
<path d="M52.8755 49.2036H51.8451L49.7844 46.7389V49.2036H48.9414V43.9951H49.7844V46.3203L51.7983 43.9951H52.8287L50.7211 46.5528L52.8755 49.2036Z" fill="currentColor"/>
<path d="M58.2147 48.5526C57.6996 49.0642 57.0439 49.3432 56.2945 49.3432C55.5452 49.3432 54.8895 49.0642 54.3743 48.5526C53.8591 48.0411 53.5781 47.39 53.5781 46.646C53.5781 45.9019 53.8591 45.2508 54.3743 44.7393C54.8895 44.2278 55.5452 43.9487 56.2945 43.9487C57.0439 43.9487 57.6996 44.2278 58.2147 44.7393C58.7299 45.2508 59.0109 45.9019 59.0109 46.646C59.0109 47.39 58.7768 47.9946 58.2147 48.5526ZM54.9832 47.9481C55.3578 48.3201 55.7793 48.4596 56.2945 48.4596C56.8097 48.4596 57.2781 48.2736 57.6059 47.9481C57.9337 47.6226 58.1211 47.1575 58.1211 46.5995C58.1211 46.0414 57.9337 45.6229 57.6059 45.2508C57.2781 44.8788 56.8097 44.7393 56.2945 44.7393C55.7793 44.7393 55.311 44.9253 54.9832 45.2508C54.6553 45.5764 54.468 46.0414 54.468 46.5995C54.468 47.1575 54.6085 47.5761 54.9832 47.9481Z" fill="currentColor"/>
<path d="M65.7067 43.9951V49.2036H64.8636V45.4833L63.2713 48.0875H63.1776L61.5852 45.4833V49.2036H60.7422V43.9951H61.6789L63.2713 46.5994L64.8636 43.9951H65.7067Z" fill="currentColor"/>
<path d="M71.4693 43.9951V49.2036H70.6263V44.8322H68.4719V49.2036H67.6289V43.9951H71.4693Z" fill="currentColor"/>
<path d="M76.7622 49.2036L76.3876 48.134H74.1395L73.7648 49.2036H72.8281L74.7483 43.9951H75.7787L77.6521 49.2036H76.7622ZM74.4673 47.3899H76.1534L75.3104 45.0182L74.4673 47.3899Z" fill="currentColor"/>
<path d="M82.2395 43.9951H83.0825V49.2036H82.2395V46.9714H79.9915V49.2036H79.1484V43.9951H79.9915V46.1343H82.2395V43.9951Z" fill="currentColor"/>
<path d="M88.1418 49.2036V45.6693L85.6596 49.2036H85.0039V43.9951H85.8469V47.5294L88.3292 43.9951H88.9848V49.2036H88.1418Z" fill="currentColor"/>
<path d="M94.0442 49.2037V45.6694L91.5619 49.2037H90.9062V43.9952H91.7493V47.5296L94.2315 43.9952H94.8872V49.2037H94.0442ZM91.8429 43.4837V42.7861H93.9505V43.4837H91.8429Z" fill="currentColor"/>
<path d="M16.7199 22.0454V38.3219H12.5517V29.5791L8.57072 36.0897H8.14921L4.21511 29.5791V38.3219H0V22.0454H4.21511L8.38338 29.021L12.5517 22.0454H16.7199Z" fill="currentColor"/>
<path d="M24.5862 34.4155H30.9089V38.3219H20.418V22.0454H30.8152V25.9053H24.5862V28.184H30.2064V31.9973H24.5862V34.4155Z" fill="currentColor"/>
<path d="M40.6974 22.0454C42.9454 22.0454 44.8657 22.836 46.3644 24.3706C47.8631 25.9053 48.6593 27.8584 48.6593 30.1836C48.6593 32.5089 47.9099 34.4155 46.3644 35.9967C44.8657 37.5778 42.9454 38.3219 40.6974 38.3219H34.0469V22.0454H40.6974ZM40.6974 34.276C41.8214 34.276 42.7581 33.904 43.5075 33.1599C44.21 32.4158 44.5846 31.3928 44.5846 30.1836C44.5846 28.928 44.21 27.9514 43.5075 27.2074C42.8049 26.4633 41.8682 26.0913 40.6974 26.0913H38.3557V34.3225H40.6974V34.276Z" fill="currentColor"/>
<path d="M51.707 22.0454H55.9221V38.3219H51.707V22.0454Z" fill="currentColor"/>
<path d="M69.5956 38.3219L68.8931 35.9967H63.4134L62.7109 38.3219H58.168L63.5539 22.0454H68.6589L74.0917 38.3219H69.5956ZM64.4906 32.3693H67.769L66.1298 26.8353L64.4906 32.3693Z" fill="currentColor"/>
<path d="M79.4798 38.3219L74.1875 22.0454H78.7773L81.962 33.2529L85.1936 22.0454H89.7834L84.4911 38.3219H79.4798Z" fill="currentColor"/>
<path d="M92.125 22.0454H96.3401V38.3219H92.125V22.0454Z" fill="currentColor"/>
<path d="M104.207 34.276H109.827V38.3219H99.9922V22.0454H104.207V34.276Z" fill="currentColor"/>
<path d="M92.1719 19.7201H96.2465L94.2326 15.9067L92.1719 19.7201Z" fill="currentColor"/>
</svg>
