<svg width="25" height="25" viewBox="0 0 25 25" fill="none" xmlns="http://www.w3.org/2000/svg">
<mask id="path-1-inside-1_912_4559" fill="white">
<path d="M7.11065 23.0553C12.3152 27.6662 25.0494 22.3078 24.9999 12.8949C24.9657 6.44035 19.6517 0.0582334 13.0621 0.000540552C6.9207 -0.0526651 0.410964 3.82237 0.0362199 11.3898C-0.0745293 13.643 0.0362199 17.0687 0.828849 18.9091C2.33233 23.204 0.901609 24.3431 2.63432 24.8886C4.18695 25.2732 5.67928 24.6619 7.11129 23.0546"/>
</mask>
<path d="M10.4263 19.3127C8.35936 17.4815 5.19931 17.6727 3.36813 19.7396C1.53694 21.8065 1.72806 24.9666 3.79499 26.7978L7.11065 23.0553L10.4263 19.3127ZM24.9999 12.8949L29.9998 12.8686V12.8685L24.9999 12.8949ZM13.0621 0.000540552L13.1059 -4.99927L13.1054 -4.99927L13.0621 0.000540552ZM0.0362199 11.3898L-4.95766 11.1425L-4.95775 11.1443L0.0362199 11.3898ZM0.828849 18.9091L5.54805 17.257C5.50953 17.147 5.46717 17.0383 5.42106 16.9313L0.828849 18.9091ZM2.63432 24.8886L1.1328 29.6578C1.23166 29.6889 1.33146 29.717 1.43206 29.7419L2.63432 24.8886ZM10.8445 26.3807C12.6815 24.3189 12.4992 21.1584 10.4374 19.3214C8.37561 17.4844 5.21504 17.6667 3.37807 19.7285L7.11129 23.0546L10.8445 26.3807ZM7.11065 23.0553L3.79499 26.7978C8.63276 31.0837 15.6366 30.05 20.2857 27.694C25.2255 25.1908 30.0376 20.0391 29.9998 12.8686L24.9999 12.8949L19.9999 12.9212C20.0117 15.1636 18.4815 17.3976 15.7654 18.774C12.7586 20.2977 10.7931 19.6377 10.4263 19.3127L7.11065 23.0553ZM24.9999 12.8949L29.9998 12.8685C29.9539 4.1955 22.9177 -4.91336 13.1059 -4.99927L13.0621 0.000540552L13.0184 5.00035C16.3857 5.02983 19.9775 8.68519 19.9999 12.9213L24.9999 12.8949ZM13.0621 0.000540552L13.1054 -4.99927C5.18243 -5.06791 -4.40985 0.0801954 -4.95766 11.1425L0.0362199 11.3898L5.0301 11.6371C5.23177 7.56455 8.65896 4.96258 13.0188 5.00035L13.0621 0.000540552ZM0.0362199 11.3898L-4.95775 11.1443C-5.02189 12.4492 -5.0233 14.0918 -4.88929 15.7155C-4.76505 17.2208 -4.49019 19.1992 -3.76336 20.8868L0.828849 18.9091L5.42106 16.9313C5.42244 16.9345 5.40171 16.8859 5.36879 16.7711C5.3366 16.6589 5.29985 16.5084 5.26237 16.3164C5.18634 15.9271 5.12245 15.4457 5.07682 14.8929C4.98499 13.7804 4.98358 12.5835 5.03019 11.6352L0.0362199 11.3898ZM0.828849 18.9091L-3.89035 20.5611C-3.38792 21.9963 -3.39043 22.7516 -3.34746 23.5677C-3.33527 23.7994 -3.32322 25.2792 -2.58376 26.6723C-1.59689 28.5316 0.0342069 29.3119 1.1328 29.6578L2.63432 24.8886L4.13584 20.1194C4.22489 20.1474 4.57876 20.2652 5.00923 20.5698C5.49605 20.9143 5.93676 21.3955 6.24907 21.9839C6.53016 22.5135 6.61158 22.9525 6.63441 23.0942C6.65391 23.2153 6.65014 23.2591 6.63871 23.042C6.62033 22.6928 6.5948 21.8602 6.44975 20.8606C6.3003 19.8306 6.03249 18.6409 5.54805 17.257L0.828849 18.9091ZM2.63432 24.8886L1.43206 29.7419C5.40612 30.7264 8.6708 28.8205 10.8445 26.3807L7.11129 23.0546L3.37807 19.7285C3.00625 20.1458 2.8706 20.154 3.02266 20.0917C3.10809 20.0567 3.24426 20.0169 3.41624 20.0041C3.58866 19.9913 3.7353 20.0102 3.83658 20.0353L2.63432 24.8886Z" fill="#555553" mask="url(#path-1-inside-1_912_4559)"/>
</svg>
