<svg width="96" height="96" viewBox="0 0 96 96" fill="none" xmlns="http://www.w3.org/2000/svg">
<g clip-path="url(#clip0_912_4612)">
<path d="M76.2613 48.0008C76.2613 63.5528 63.6073 76.1608 47.9962 76.1608C32.3884 76.1608 19.7344 63.5528 19.7344 48.0008C19.7344 32.4488 32.3884 19.8375 47.9962 19.8375C63.6073 19.8375 76.2613 32.4488 76.2613 48.0008Z" fill="white"/>
<path d="M72.9957 37.6427L92.3303 29.6328C87.6313 18.2892 78.6064 8.74257 66.3627 3.67017L58.3594 22.999C64.98 25.7563 70.2414 31.02 72.9957 37.6418V37.6427Z" fill="#B2D237"/>
<path d="M22.9987 58.3531L3.66406 66.3573C8.36561 77.7041 17.388 87.2623 29.6317 92.3322L37.6465 72.987C31.034 70.2448 25.7384 64.9591 22.9987 58.3531Z" fill="#1383C6"/>
<path d="M20.9508 47.9983C20.9508 44.3347 21.6753 40.8377 23.0012 37.6434L3.66661 29.632C-1.03166 40.9731 -1.4091 54.1152 3.66661 66.3564L23.0012 58.3524C21.6414 55.0697 20.9443 51.5506 20.9499 47.9975L20.9508 47.9983ZM47.9999 75.0416C44.3322 75.0416 40.8376 74.3113 37.6433 72.9837L29.6367 92.3322C41.878 97.4046 55.0194 97.0371 66.3655 92.3322L58.3572 72.987C55.0744 74.3495 51.5542 75.0478 47.9999 75.0416Z" fill="#1D93D1"/>
<path d="M37.6461 22.9998L29.6395 3.67017C17.3958 8.74257 8.37343 18.2892 3.67188 29.6328L23.0065 37.6427C25.7437 31.031 31.0393 25.7452 37.6461 22.9998ZM72.9989 58.3532C70.2431 64.972 64.9818 70.2325 58.3625 72.987L66.3658 92.3323C78.6095 87.2656 87.6344 77.7042 92.3335 66.3573L72.9989 58.3532Z" fill="#00AB6C"/>
<path d="M92.3317 29.6328L72.997 37.6426C75.7475 44.2719 75.7475 51.7231 72.997 58.3524L92.3317 66.3573C97.0332 55.0162 97.4049 41.8806 92.3317 29.6328ZM47.9984 20.9452C51.6686 20.9452 55.1631 21.6796 58.3525 22.9965L66.3607 3.66685C54.1145 -1.40556 40.9789 -1.03551 29.6328 3.66685L37.6386 22.9973C40.9241 21.6413 44.444 20.9441 47.9984 20.9452Z" fill="#8CC541"/>
<path fill-rule="evenodd" clip-rule="evenodd" d="M31.8439 42.2892V44.1576H30.4531V35.9697H31.8439V36.5916C33.5522 35.1762 37.3414 35.5085 37.3414 39.1532C37.3414 42.9407 33.5522 43.6538 31.8439 42.2892ZM42.3366 42.199C40.6907 43.5643 37.7418 42.9457 37.7418 40.8369C37.7418 38.5871 40.5537 38.542 42.3219 38.3139C42.1529 36.4341 40.0458 37.0322 38.9824 37.8076C38.7797 37.4203 38.5803 37.0322 38.3785 36.6474C40.2772 35.3469 43.7282 35.3149 43.7282 38.4648V42.7742H42.3366V42.1998V42.199ZM50.5451 42.7733H45.6983V43.3871H44.3633V41.518H45.1724C46.2718 39.9959 46.1077 37.8175 46.1619 35.9688H50.7945V41.518H51.8792V43.3871H50.5418V42.7742H50.5451V42.7733ZM57.4128 38.359L53.5523 42.7709H52.5537V35.9688H53.9445V40.2125L57.6532 35.9721H58.8101V42.7742H57.4128C57.4128 42.7742 57.4128 38.359 57.4128 38.359ZM63.2024 42.9186C68.1353 42.9186 68.1829 35.8236 63.2762 35.8236C58.2062 35.8236 58.2153 42.9186 63.2024 42.9186ZM33.8788 41.6665C36.3543 41.7108 36.6726 37.1208 34.0396 37.0798C31.2466 37.0322 31.1957 41.6189 33.8788 41.6665ZM42.3366 39.5733C40.845 39.7604 39.1662 39.7005 39.1662 40.814C39.1662 42.0907 42.3366 42.185 42.3366 39.5733ZM49.407 37.225H47.4567C47.3557 38.7085 47.4181 40.1896 46.7404 41.5188H49.4062V37.225L49.407 37.225ZM63.2491 37.0773C66.1111 37.0773 66.0815 41.623 63.2196 41.664C60.2419 41.7116 60.278 37.1217 63.2499 37.0773H63.2491Z" fill="#1383C6"/>
<path fill-rule="evenodd" clip-rule="evenodd" d="M33.9559 49.6L31.0546 45.3416H26.6484V58.7241H31.1498V51.6382L33.2831 54.7857H34.6181L36.7457 51.6382V58.7241H41.2249V45.3416H36.8409L33.9551 49.6L33.9559 49.6ZM64.5915 52.718C65.5761 52.718 66.729 52.3364 66.729 50.3606C66.729 48.8427 65.7271 48.4628 64.5915 48.4628H63.442V52.718H64.5915ZM47.7742 58.7241L51.9917 52.5645V58.7241H56.4963V45.3416H52.3847L48.1796 51.6554V45.3416H43.6741V58.7241H47.7751H47.7742ZM58.9365 58.7241V45.3416H65.3464C68.3183 45.3416 71.2311 46.7898 71.2311 50.3606C71.2311 54.2334 68.1706 55.8334 65.3464 55.8334H63.4387V58.7233H58.9365V58.7241Z" fill="black"/>
</g>
<defs>
<clipPath id="clip0_912_4612">
<rect width="96" height="96" fill="white"/>
</clipPath>
</defs>
</svg>
