<svg width="20" height="19" viewBox="0 0 20 19" fill="none" xmlns="http://www.w3.org/2000/svg">
<g opacity="0.5">
<path d="M5.51667 8.54208C6.71667 10.7825 8.65 12.6192 11.0083 13.7592L12.8417 12.0175C13.075 11.7958 13.4 11.7325 13.6917 11.8196C14.625 12.1125 15.625 12.2708 16.6667 12.2708C16.8877 12.2708 17.0996 12.3542 17.2559 12.5027C17.4122 12.6512 17.5 12.8525 17.5 13.0625V15.8333C17.5 16.0433 17.4122 16.2447 17.2559 16.3931C17.0996 16.5416 16.8877 16.625 16.6667 16.625C12.9094 16.625 9.30609 15.2071 6.64932 12.6831C3.99256 10.1592 2.5 6.73604 2.5 3.16667C2.5 2.9567 2.5878 2.75534 2.74408 2.60687C2.90036 2.45841 3.11232 2.375 3.33333 2.375H6.25C6.47101 2.375 6.68298 2.45841 6.83926 2.60687C6.99554 2.75534 7.08333 2.9567 7.08333 3.16667C7.08333 4.15625 7.25 5.10625 7.55833 5.99292C7.65 6.27 7.58333 6.57875 7.35 6.80042L5.51667 8.54208Z" fill="#555553"/>
</g>
</svg>
