<svg width="40" height="40" viewBox="0 0 40 40" fill="none" xmlns="http://www.w3.org/2000/svg">
<rect width="40" height="40" rx="20" fill="currentColor"/>
<path d="M28.5059 21.6652C28.763 21.4685 28.9712 21.2161 29.1144 20.9274C29.2576 20.6388 29.332 20.3215 29.332 20C29.332 19.6785 29.2576 19.3612 29.1144 19.0726C28.9712 18.7839 28.763 18.5315 28.5059 18.3348C25.1756 15.7877 21.4574 13.7796 17.4901 12.3856L16.7647 12.1308C15.3783 11.6442 13.913 12.5713 13.7253 13.9871C13.2009 17.979 13.2009 22.021 13.7253 26.0129C13.9141 27.4287 15.3783 28.3558 16.7647 27.8692L17.4901 27.6144C21.4574 26.2204 25.1756 24.2123 28.5059 21.6652Z" fill="white"/>
</svg>
