<svg width="25" height="25" viewBox="0 0 25 25" fill="none" xmlns="http://www.w3.org/2000/svg">
<rect width="25" height="25" rx="12.5" fill="#404040"/>
<path d="M14.1545 7.55066C14.1713 7.61987 14.2042 7.68414 14.2505 7.73825C14.2967 7.79236 14.3552 7.83479 14.4209 7.86207C14.4867 7.88935 14.558 7.90073 14.629 7.89527C14.7 7.88981 14.7687 7.86768 14.8295 7.83066C16.3539 6.90253 18.0983 8.64628 17.1702 10.1707C17.1331 10.2314 17.111 10.3001 17.1055 10.3711C17.1 10.442 17.1113 10.5133 17.1385 10.5791C17.1657 10.6448 17.2081 10.7032 17.2621 10.7496C17.3162 10.7959 17.3804 10.8288 17.4495 10.8457C19.1839 11.2663 19.1839 13.7332 17.4495 14.1544C17.3803 14.1712 17.3161 14.204 17.2619 14.2503C17.2078 14.2966 17.1654 14.355 17.1381 14.4208C17.1108 14.4866 17.0995 14.5579 17.1049 14.6289C17.1104 14.6999 17.1325 14.7686 17.1695 14.8294C18.0977 16.3538 16.3539 18.0982 14.8295 17.17C14.7687 17.133 14.7001 17.1109 14.6291 17.1054C14.5581 17.0999 14.4869 17.1112 14.4211 17.1384C14.3554 17.1656 14.2969 17.208 14.2506 17.262C14.2043 17.3161 14.1714 17.3803 14.1545 17.4494C13.7339 19.1838 11.267 19.1838 10.8458 17.4494C10.829 17.3802 10.7961 17.3159 10.7499 17.2618C10.7036 17.2077 10.6452 17.1653 10.5794 17.138C10.5136 17.1107 10.4423 17.0993 10.3713 17.1048C10.3003 17.1103 10.2316 17.1324 10.1708 17.1694C8.64641 18.0975 6.90203 16.3538 7.83016 14.8294C7.86718 14.7686 7.88933 14.7 7.89483 14.629C7.90033 14.558 7.889 14.4868 7.86178 14.421C7.83456 14.3552 7.79222 14.2968 7.73818 14.2505C7.68414 14.2042 7.61993 14.1713 7.55078 14.1544C5.81641 13.7338 5.81641 11.2669 7.55078 10.8457C7.61999 10.8289 7.68426 10.796 7.73837 10.7497C7.79248 10.7034 7.83491 10.645 7.86219 10.5793C7.88948 10.5135 7.90085 10.4422 7.89539 10.3712C7.88994 10.3002 7.8678 10.2315 7.83078 10.1707C6.90266 8.64628 8.64641 6.90191 10.1708 7.83003C10.2315 7.86733 10.3002 7.88972 10.3713 7.89536C10.4423 7.90099 10.5137 7.88972 10.5795 7.86247C10.6454 7.83521 10.7038 7.79275 10.7501 7.73855C10.7964 7.68435 10.8292 7.61997 10.8458 7.55066C11.2664 5.81628 13.7333 5.81628 14.1545 7.55066ZM12.5002 10.625C12.0029 10.625 11.526 10.8226 11.1743 11.1742C10.8227 11.5258 10.6252 12.0028 10.6252 12.5C10.6252 12.9973 10.8227 13.4742 11.1743 13.8259C11.526 14.1775 12.0029 14.375 12.5002 14.375C12.9974 14.375 13.4744 14.1775 13.826 13.8259C14.1776 13.4742 14.3752 12.9973 14.3752 12.5C14.3752 12.0028 14.1776 11.5258 13.826 11.1742C13.4744 10.8226 12.9974 10.625 12.5002 10.625Z" fill="#F9D800"/>
</svg>
