<svg width="32" height="32" viewBox="0 0 32 32" fill="none" xmlns="http://www.w3.org/2000/svg">
<path d="M15.9974 2.66669C8.6374 2.66669 2.66406 8.64002 2.66406 16C2.66406 23.36 8.6374 29.3334 15.9974 29.3334C23.3574 29.3334 29.3307 23.36 29.3307 16C29.3307 8.64002 23.3574 2.66669 15.9974 2.66669ZM22.1841 11.7334C21.9841 13.84 21.1174 18.96 20.6774 21.32C20.4907 22.32 20.1174 22.6534 19.7707 22.6934C18.9974 22.76 18.4107 22.1867 17.6641 21.6934C16.4907 20.92 15.8241 20.44 14.6907 19.6934C13.3707 18.8267 14.2241 18.3467 14.9841 17.5734C15.1841 17.3734 18.5974 14.2667 18.6641 13.9867C18.6733 13.9443 18.6721 13.9002 18.6605 13.8584C18.6489 13.8166 18.6272 13.7782 18.5974 13.7467C18.5174 13.68 18.4107 13.7067 18.3174 13.72C18.1974 13.7467 16.3307 14.9867 12.6907 17.44C12.1574 17.8 11.6774 17.9867 11.2507 17.9734C10.7707 17.96 9.86406 17.7067 9.18406 17.48C8.34406 17.2134 7.69073 17.0667 7.74406 16.6C7.77073 16.36 8.10406 16.12 8.73073 15.8667C12.6241 14.1734 15.2107 13.0534 16.5041 12.52C20.2107 10.9734 20.9707 10.7067 21.4774 10.7067C21.5841 10.7067 21.8374 10.7334 21.9974 10.8667C22.1307 10.9734 22.1707 11.12 22.1841 11.2267C22.1707 11.3067 22.1974 11.5467 22.1841 11.7334Z" fill="#555553"/>
</svg>
