<svg width="25" height="25" viewBox="0 0 25 25" fill="none" xmlns="http://www.w3.org/2000/svg">
<rect width="25" height="25" rx="12.5" fill="#404040"/>
<path d="M16.25 16.5625C16.0014 16.5625 15.7629 16.4637 15.5871 16.2879C15.4113 16.1121 15.3125 15.8736 15.3125 15.625C15.3125 15.3764 15.4113 15.1379 15.5871 14.9621C15.7629 14.7863 16.0014 14.6875 16.25 14.6875C16.4986 14.6875 16.7371 14.7863 16.9129 14.9621C17.0887 15.1379 17.1875 15.3764 17.1875 15.625C17.1875 15.8736 17.0887 16.1121 16.9129 16.2879C16.7371 16.4637 16.4986 16.5625 16.25 16.5625ZM17.1875 10.9375L18.4125 12.5H15.625V10.9375M8.75 16.5625C8.50136 16.5625 8.2629 16.4637 8.08709 16.2879C7.91127 16.1121 7.8125 15.8736 7.8125 15.625C7.8125 15.3764 7.91127 15.1379 8.08709 14.9621C8.2629 14.7863 8.50136 14.6875 8.75 14.6875C8.99864 14.6875 9.2371 14.7863 9.41291 14.9621C9.58873 15.1379 9.6875 15.3764 9.6875 15.625C9.6875 15.8736 9.58873 16.1121 9.41291 16.2879C9.2371 16.4637 8.99864 16.5625 8.75 16.5625ZM17.5 10H15.625V7.5H6.875C6.18125 7.5 5.625 8.05625 5.625 8.75V15.625H6.875C6.875 16.1223 7.07254 16.5992 7.42417 16.9508C7.77581 17.3025 8.25272 17.5 8.75 17.5C9.24728 17.5 9.72419 17.3025 10.0758 16.9508C10.4275 16.5992 10.625 16.1223 10.625 15.625H14.375C14.375 16.1223 14.5725 16.5992 14.9242 16.9508C15.2758 17.3025 15.7527 17.5 16.25 17.5C16.7473 17.5 17.2242 17.3025 17.5758 16.9508C17.9275 16.5992 18.125 16.1223 18.125 15.625H19.375V12.5L17.5 10Z" fill="#F9D800"/>
</svg>
