<svg width="32" height="32" viewBox="0 0 32 32" fill="none" xmlns="http://www.w3.org/2000/svg">
<path d="M16.0052 2.66666C23.3692 2.66666 29.3386 8.63599 29.3386 16C29.3386 23.364 23.3692 29.3333 16.0052 29.3333C13.6489 29.3374 11.334 28.7138 9.29856 27.5267L2.67723 29.3333L4.4799 22.7093C3.29184 20.6732 2.66777 18.3573 2.6719 16C2.6719 8.63599 8.64123 2.66666 16.0052 2.66666ZM11.4612 9.73332L11.1946 9.74399C11.0222 9.75587 10.8537 9.80115 10.6986 9.87732C10.554 9.95934 10.422 10.0617 10.3066 10.1813C10.1466 10.332 10.0559 10.4627 9.95856 10.5893C9.46539 11.2305 9.19986 12.0177 9.2039 12.8267C9.20656 13.48 9.37723 14.116 9.6439 14.7107C10.1892 15.9133 11.0866 17.1867 12.2706 18.3667C12.5559 18.6507 12.8359 18.936 13.1372 19.2013C14.6085 20.4965 16.3616 21.4306 18.2572 21.9293L19.0146 22.0453C19.2612 22.0587 19.5079 22.04 19.7559 22.028C20.1441 22.0075 20.5232 21.9024 20.8666 21.72C21.041 21.6298 21.2114 21.5319 21.3772 21.4267C21.3772 21.4267 21.4337 21.3884 21.5439 21.3067C21.7239 21.1733 21.8346 21.0787 21.9839 20.9227C22.0959 20.8071 22.1892 20.6729 22.2639 20.52C22.3679 20.3027 22.4719 19.888 22.5146 19.5427C22.5466 19.2787 22.5372 19.1347 22.5332 19.0453C22.5279 18.9027 22.4092 18.7547 22.2799 18.692L21.5039 18.344C21.5039 18.344 20.3439 17.8387 19.6346 17.516C19.5603 17.4837 19.4808 17.4651 19.3999 17.4613C19.3087 17.4518 19.2164 17.462 19.1295 17.4912C19.0425 17.5204 18.9629 17.568 18.8959 17.6307C18.8892 17.628 18.7999 17.704 17.8359 18.872C17.7806 18.9463 17.7044 19.0025 17.617 19.0334C17.5296 19.0643 17.435 19.0684 17.3452 19.0453C17.2583 19.0222 17.1732 18.9928 17.0906 18.9573C16.9252 18.888 16.8679 18.8613 16.7546 18.8133C15.9891 18.4799 15.2805 18.0286 14.6546 17.476C14.4866 17.3293 14.3306 17.1693 14.1706 17.0147C13.646 16.5123 13.1889 15.944 12.8106 15.324L12.7319 15.1973C12.6762 15.1117 12.6306 15.02 12.5959 14.924C12.5452 14.728 12.6772 14.5707 12.6772 14.5707C12.6772 14.5707 13.0012 14.216 13.1519 14.024C13.2986 13.8373 13.4226 13.656 13.5026 13.5267C13.6599 13.2733 13.7092 13.0133 13.6266 12.812C13.2532 11.9 12.8675 10.9929 12.4692 10.0907C12.3906 9.91199 12.1572 9.78399 11.9452 9.75866C11.8732 9.74977 11.8012 9.74266 11.7292 9.73732C11.5502 9.72705 11.3707 9.72884 11.1919 9.74266L11.4612 9.73332Z" fill="#555553"/>
</svg>
